<?xml version="1.0" encoding="utf-8"?>
<!-- Generator: Adobe Illustrator 24.3.0, SVG Export Plug-In . SVG Version: 6.00 Build 0)  -->
<svg version="1.1" id="Camada_1" xmlns="http://www.w3.org/2000/svg" xmlns:xlink="http://www.w3.org/1999/xlink" x="0px" y="0px"
	 viewBox="0 0 85.3 88.1" style="enable-background:new 0 0 85.3 88.1;" xml:space="preserve">
<style type="text/css">
	.st0{fill:#12684B;stroke:#12684B;stroke-miterlimit:10;}
	.st1{fill:#FFFFFF;}
	.st2{fill:#E5ECF0;}
	.st3{fill:#148260;}
	.st4{fill:#FF4848;}
</style>
<g>
	<circle class="st0" cx="42.6" cy="45.4" r="42.4"/>
	<circle class="st1" cx="42.6" cy="42.7" r="42.4"/>
	<g>
		<path class="st2" d="M26.1,57.8l4.2-6.5c3.3,2.5,6.2,3.8,9.2,3.8c3.7,0,5.3-1.5,5.3-4.5c0-6.7-17.1-6.6-17.1-18.3
			c0-7.5,5.2-12.3,13.4-12.3c5.5,0,9.3,2.3,12.4,5.5L48.7,31c-2.4-2.1-4.4-3.3-7.1-3.3c-3.1,0-4.8,1.3-4.8,4.2
			c0,6.2,17.1,5.6,17.1,18c0,7.5-4.9,12.8-14.4,12.8C35.4,62.9,29.8,61.1,26.1,57.8z M37.5,13.7h6.3V23h-6.3V13.7z M37.5,59h6.3
			v10.3h-6.3V59z"/>
	</g>
	<g>
		<g>
			<path class="st3" d="M28.6,55.6l4.2-6.5C36.1,51.7,39,53,42,53c3.7,0,5.3-1.5,5.3-4.5c0-6.7-17.1-6.6-17.1-18.3
				c0-7.5,5.2-12.3,13.4-12.3c5.5,0,9.3,2.3,12.4,5.5l-4.8,5.5c-2.4-2.1-4.4-3.3-7.1-3.3c-3.1,0-4.8,1.3-4.8,4.2
				c0,6.2,17.1,5.6,17.1,18c0,7.5-4.9,12.8-14.4,12.8C37.9,60.7,32.3,59,28.6,55.6z M40,11.6h6.3v9.3H40V11.6z M40,56.8h6.3v10.3H40
				V56.8z"/>
		</g>
	</g>
	
		<rect x="40.9" y="22.9" transform="matrix(0.7071 -0.7071 0.7071 0.7071 -16.4456 42.1601)" class="st4" width="3.5" height="36.1"/>
	
		<rect x="24.6" y="39.2" transform="matrix(0.7071 -0.7071 0.7071 0.7071 -16.4456 42.1605)" class="st4" width="36.1" height="3.5"/>
</g>
</svg>
