<?xml version="1.0" encoding="utf-8"?>
<!-- Generator: Adobe Illustrator 24.3.0, SVG Export Plug-In . SVG Version: 6.00 Build 0)  -->
<svg version="1.1" id="Camada_1" xmlns="http://www.w3.org/2000/svg" xmlns:xlink="http://www.w3.org/1999/xlink" x="0px" y="0px"
	 viewBox="0 0 85.2761 88.0704" style="enable-background:new 0 0 85.2761 88.0704;" xml:space="preserve">
<style type="text/css">
	.st0{fill:#12684B;}
	.st1{fill:#FFFFFF;}
	.st2{fill:#B3C4DB;}
	.st3{opacity:0.8;fill:#FFFFFF;}
	.st4{opacity:0.8;clip-path:url(#SVGID_2_);}
	.st5{fill:#33435B;}
	.st6{fill:#E5ECF0;}
	.st7{fill:#148260;}
	.st8{fill:#F8B586;}
	.st9{fill:#B9C3C9;}
	.st10{fill:#1D2769;}
	.st11{clip-path:url(#SVGID_4_);}
	.st12{fill:#C1C9E7;}
	.st13{fill:#98A4D1;}
	.st14{fill:#EFA26F;}
	.st15{fill:#F8B586;stroke:#148260;stroke-linecap:round;stroke-linejoin:round;stroke-miterlimit:10;}
	.st16{fill:#727D83;stroke:#727D83;stroke-miterlimit:10;}
	.st17{fill:#D4D4D6;}
	.st18{fill:#D1D1D1;}
	.st19{fill:#FFCC01;}
	.st20{fill:#FDB700;}
	.st21{fill:#E78D01;}
	.st22{fill:#220A00;}
	.st23{fill:#6F3100;}
	.st24{fill:#FF4848;}
	.st25{fill:#A4C639;}
</style>
<g>
	<circle class="st0" cx="42.638" cy="45.7174" r="42.3529"/>
	<circle class="st1" cx="42.638" cy="42.3529" r="42.3529"/>
	<path class="st2" d="M67.7289,55.4317H10.4348v0c0,2.4079,1.952,4.3598,4.3598,4.3598h48.5745
		C65.7769,59.7915,67.7289,57.8396,67.7289,55.4317L67.7289,55.4317z"/>
	<path class="st2" d="M76.85,26.8453H33.4996c-0.1748,0-0.3303,0.1115-0.3865,0.277l-9.5964,28.3094h44.2122l9.5076-28.0474
		C77.3262,27.1197,77.1294,26.8453,76.85,26.8453z"/>
	<path class="st3" d="M26.0345,55.4317l8.7819-25.7896c0.0762-0.2238,0.2864-0.3743,0.5229-0.3743h37.9294
		c0.3785,0,0.6448,0.3721,0.5228,0.7303l-8.6609,25.4336H26.0345z"/>
	<g>
		<defs>
			<path id="SVGID_1_" d="M26.0345,55.4317l8.7819-25.7896c0.0762-0.2238,0.2864-0.3743,0.5229-0.3743h37.9294
				c0.3785,0,0.6448,0.3721,0.5228,0.7303l-8.6609,25.4336H26.0345z"/>
		</defs>
		<clipPath id="SVGID_2_">
			<use xlink:href="#SVGID_1_"  style="overflow:visible;"/>
		</clipPath>
		<g class="st4">
			
				<rect x="13.3335" y="36.1033" transform="matrix(0.8629 -0.5054 0.5054 0.8629 -13.5219 28.8368)" class="st1" width="66.1141" height="6.4768"/>
		</g>
		<g class="st4">
			
				<rect x="18.1833" y="42.6409" transform="matrix(0.8629 -0.5054 0.5054 0.8629 -15.3817 31.9747)" class="st1" width="66.114" height="3.3917"/>
		</g>
	</g>
	<g>
		<polygon class="st5" points="75.5684,46.842 75.2325,50.8468 74.7743,56.3327 74.4841,59.7915 66.6084,59.7915 66.3182,56.3327 
			65.8601,50.8468 65.5242,46.842 		"/>
		<polygon class="st1" points="75.2325,50.8468 74.7743,56.3327 66.3182,56.3327 65.8601,50.8468 		"/>
		<path class="st1" d="M75.1184,45.1544h-9.2079c-0.3152,0-0.5707,0.2555-0.5707,0.5707v0.5552H75.689V45.725
			C75.689,45.4099,75.4336,45.1544,75.1184,45.1544z"/>
		<path class="st1" d="M76.0819,46.4527v0.2176c0,0.0954-0.0763,0.1718-0.1718,0.1718H65.1214
			c-0.0954,0-0.1756-0.0763-0.1756-0.1718v-0.2176c0-0.0954,0.0802-0.1718,0.1756-0.1718h10.7887
			C76.0055,46.2809,76.0819,46.3572,76.0819,46.4527z"/>
		<path class="st1" d="M73.2726,42.7712h-5.4622c-0.9754,0-1.7662,0.7908-1.7662,1.7662v0.6171h8.9946v-0.6171
			C75.0388,43.5619,74.2481,42.7712,73.2726,42.7712z"/>
		<polygon class="st5" points="65.5261,46.842 65.5856,47.5533 75.4167,48.6315 75.5665,46.842 		"/>
	</g>
	<path class="st5" d="M8.4448,67.3358h68.3864c1.715-2.3431,3.1904-4.8702,4.4006-7.5443H4.0442
		C5.2544,62.4656,6.7299,64.9926,8.4448,67.3358z"/>
	<path class="st5" d="M70.3087,63.5636l-3.4986,1.1682l3.2895,9.8513c1.0309-0.8792,2.0186-1.8065,2.9606-2.7794L70.3087,63.5636z"
		/>
	<path class="st7" d="M73.2686,29.2678H35.3392c-0.2365,0-0.4467,0.1505-0.5229,0.3743l-0.6168,1.8113h39.0963l0.4955-1.4553
		C73.9134,29.6399,73.6471,29.2678,73.2686,29.2678z"/>
</g>
</svg>
