<?xml version="1.0" encoding="utf-8"?>
<!-- Generator: Adobe Illustrator 24.3.0, SVG Export Plug-In . SVG Version: 6.00 Build 0)  -->
<svg version="1.1" id="Camada_1" xmlns="http://www.w3.org/2000/svg" xmlns:xlink="http://www.w3.org/1999/xlink" x="0px" y="0px"
	 viewBox="0 0 85.2761 88.0704" style="enable-background:new 0 0 85.2761 88.0704;" xml:space="preserve">
<style type="text/css">
	.st0{fill:#12684B;}
	.st1{fill:#FFFFFF;}
	.st2{fill:#B3C4DB;}
	.st3{opacity:0.8;fill:#FFFFFF;}
	.st4{opacity:0.8;clip-path:url(#SVGID_2_);}
	.st5{fill:#33435B;}
	.st6{fill:#E5ECF0;}
	.st7{fill:#148260;}
	.st8{fill:#F8B586;}
	.st9{fill:#B9C3C9;}
	.st10{fill:#1D2769;}
	.st11{clip-path:url(#SVGID_4_);}
	.st12{fill:#C1C9E7;}
	.st13{fill:#98A4D1;}
	.st14{fill:#EFA26F;}
	.st15{fill:#F8B586;stroke:#148260;stroke-linecap:round;stroke-linejoin:round;stroke-miterlimit:10;}
	.st16{fill:#727D83;stroke:#727D83;stroke-miterlimit:10;}
	.st17{fill:#D4D4D6;}
	.st18{fill:#D1D1D1;}
	.st19{fill:#FFCC01;}
	.st20{fill:#FDB700;}
	.st21{fill:#E78D01;}
	.st22{fill:#220A00;}
	.st23{fill:#6F3100;}
	.st24{fill:#FF4848;}
	.st25{fill:#A4C639;}
</style>
<g>
	<circle class="st16" cx="42.638" cy="45.3881" r="42.3529"/>
	<circle class="st1" cx="42.638" cy="42.6822" r="42.3529"/>
	<g>
		<path class="st6" d="M26.1226,57.7956l4.1621-6.4521c3.2979,2.5264,6.1826,3.8164,9.25,3.8164
			c3.6787,0,5.2959-1.5264,5.2959-4.4795c0-6.6748-17.1279-6.5547-17.1279-18.2627c0-7.5273,5.2139-12.3213,13.4355-12.3213
			c5.5498,0,9.3213,2.29,12.3516,5.5039l-4.7725,5.4678c-2.3584-2.1455-4.3584-3.2744-7.0674-3.2744
			c-3.1211,0-4.8145,1.2578-4.8145,4.1729c0,6.1875,17.1279,5.6475,17.1279,18.0498c0,7.4502-4.9316,12.8398-14.4287,12.8398
			C35.4361,62.8562,29.7877,61.1169,26.1226,57.7956z M37.5348,13.738h6.3301v9.3437h-6.3301V13.738z M37.5348,58.9616h6.3301
			v10.2529h-6.3301V58.9616z"/>
	</g>
	<g>
		<g>
			<path class="st7" d="M28.6226,55.6487l4.1621-6.4521c3.2979,2.5264,6.1826,3.8164,9.25,3.8164
				c3.6787,0,5.2959-1.5264,5.2959-4.4795c0-6.6748-17.1279-6.5547-17.1279-18.2627c0-7.5273,5.2139-12.3213,13.4355-12.3213
				c5.5498,0,9.3213,2.29,12.3516,5.5039l-4.7725,5.4678c-2.3584-2.1455-4.3584-3.2744-7.0674-3.2744
				c-3.1211,0-4.8145,1.2578-4.8145,4.1729c0,6.1875,17.1279,5.6475,17.1279,18.0498c0,7.4502-4.9316,12.8398-14.4287,12.8398
				C37.9361,60.7092,32.2877,58.9699,28.6226,55.6487z M40.0348,11.591h6.3301v9.3437h-6.3301V11.591z M40.0348,56.8147h6.3301
				v10.2529h-6.3301V56.8147z"/>
		</g>
	</g>
	
		<rect x="40.9023" y="22.8664" transform="matrix(0.7071 -0.7071 0.7071 0.7071 -16.4445 42.134)" class="st24" width="3.4715" height="36.1019"/>
	
		<rect x="40.9023" y="22.8664" transform="matrix(0.7071 0.7071 -0.7071 0.7071 41.4213 -18.1653)" class="st24" width="3.4715" height="36.1019"/>
</g>
</svg>
