<?xml version="1.0" encoding="utf-8"?>
<!-- Generator: Adobe Illustrator 24.3.0, SVG Export Plug-In . SVG Version: 6.00 Build 0)  -->
<svg version="1.1" id="Camada_1" xmlns="http://www.w3.org/2000/svg" xmlns:xlink="http://www.w3.org/1999/xlink" x="0px" y="0px"
	 viewBox="0 0 85.3 88.1" style="enable-background:new 0 0 85.3 88.1;" xml:space="preserve">
<style type="text/css">
	.st0{fill:#12684B;stroke:#12684B;stroke-miterlimit:10;}
	.st1{fill:#FFFFFF;}
	.st2{fill:#E5ECF0;}
	.st3{fill:#D4D4D6;}
	.st4{fill:#D1D1D1;}
	.st5{fill:#FFCC01;}
	.st6{fill:#FDB700;}
	.st7{fill:#E78D01;}
	.st8{fill:#220A00;}
	.st9{fill:#6F3100;}
</style>
<g>
	<circle class="st0" cx="42.6" cy="45.4" r="42.4"/>
	<circle class="st1" cx="42.6" cy="42.7" r="42.4"/>
	<g>
		<path class="st2" d="M41.9,17.4H41c-9.3,0-16.9,7.6-16.9,16.9v10c0,9.3,7.6,7,16.9,7h0.9c9.3,0,16.9,2.4,16.9-7v-10
			C58.8,25,51.3,17.4,41.9,17.4z M53.8,42.6c0,6.7-5.5,5-12.2,5h-0.7c-6.7,0-12.2,1.7-12.2-5v-8.1c0-6.7,5.5-12.2,12.2-12.2h0.7
			c6.7,0,12.2,5.5,12.2,12.2V42.6z"/>
		<path class="st2" d="M42.1,17.4h-0.9c-0.3,0-0.6,0-1,0c8.9,0.5,15.9,7.9,15.9,16.9v10c0,5.6-2.7,7-7,7.2c5.8,0.2,9.8-0.4,9.8-7.2
			v-10C59,25,51.4,17.4,42.1,17.4z"/>
		<path class="st2" d="M40,22.3c-6.7,0-12.2,5.5-12.2,12.2v8.1c0,5,3,5.3,7.2,5.2c-3-0.2-5-1.2-5-5.2v-8.1c0-6.5,5.1-11.8,11.4-12.2
			c-0.3,0-0.5,0-0.8,0C40.7,22.3,40,22.3,40,22.3z"/>
		<path class="st2" d="M24.3,41.4h34.4c1.7,0,3.1,1.4,3.1,3.1v9.2c0,11.2-9.1,20.3-20.3,20.3l0,0c-11.2,0-20.3-9.1-20.3-20.3v-9.2
			C21.3,42.7,22.6,41.4,24.3,41.4z"/>
		<path class="st2" d="M59,41.4H41.5V74h1.9c10.2,0,18.4-8.2,18.4-18.4V44.1C61.8,42.6,60.6,41.4,59,41.4z"/>
		<path class="st2" d="M59,41.4h-5.8c1.5,0,2.8,1.2,2.8,2.8v11.4c0,9.8-7.7,17.8-17.4,18.4c0.3,0,0.7,0,1,0h3.8
			c10.2,0,18.4-8.2,18.4-18.4V44.1C61.8,42.6,60.6,41.4,59,41.4z"/>
		<path class="st2" d="M45.5,52.2c0-2.2-1.8-4-4-4s-4,1.8-4,4c0,1.5,0.8,2.8,2.1,3.5v4.2c0,1,0.8,1.9,1.9,1.9l0,0
			c1,0,1.9-0.8,1.9-1.9v-4.2C44.7,55,45.5,53.7,45.5,52.2z"/>
		<path class="st2" d="M41.1,59.9v-4.2c-1.2-0.7-2.1-2-2.1-3.5c0-1.9,1.4-3.6,3.2-3.9c-0.2,0-0.5-0.1-0.7-0.1c-2.2,0-4,1.8-4,4
			c0,1.5,0.8,2.8,2.1,3.5v4.2c0,1,0.8,1.9,1.9,1.9l0,0c0.3,0,0.5-0.1,0.7-0.1C41.6,61.3,41.1,60.7,41.1,59.9z"/>
	</g>
	<g>
		<path class="st2" d="M43.5,15.3h-0.9c-9.3,0-16.9,7.6-16.9,16.9v10c0,9.3,7.6,7,16.9,7h0.9c9.3,0,16.9,2.4,16.9-7v-10
			C60.5,22.9,52.9,15.3,43.5,15.3z M55.4,40.5c0,6.7-5.5,5-12.2,5h-0.7c-6.7,0-12.2,1.7-12.2-5v-8.1c0-6.7,5.5-12.2,12.2-12.2h0.7
			c6.7,0,12.2,5.5,12.2,12.2V40.5z"/>
		<path class="st3" d="M43.7,15.3h-0.9c-0.3,0-0.6,0-1,0c8.9,0.5,15.9,7.9,15.9,16.9v10c0,5.6-2.7,7-7,7.2c5.8,0.2,9.8-0.4,9.8-7.2
			v-10C60.6,22.9,53.1,15.3,43.7,15.3z"/>
		<path class="st4" d="M41.6,20.2c-6.7,0-12.2,5.5-12.2,12.2v8.1c0,5,3,5.3,7.2,5.2c-3-0.2-5-1.2-5-5.2v-8.1
			c0-6.5,5.1-11.8,11.4-12.2c-0.3,0-0.5,0-0.8,0C42.3,20.2,41.6,20.2,41.6,20.2z"/>
		<path class="st5" d="M26,39.2h34.4c1.7,0,3.1,1.4,3.1,3.1v9.2c0,11.2-9.1,20.3-20.3,20.3l0,0c-11.2,0-20.3-9.1-20.3-20.3v-9.2
			C22.9,40.6,24.3,39.2,26,39.2z"/>
		<path class="st6" d="M60.6,39.2H43.2v32.6H45c10.2,0,18.4-8.2,18.4-18.4V42C63.4,40.5,62.2,39.2,60.6,39.2z"/>
		<path class="st7" d="M60.6,39.2h-5.8c1.5,0,2.8,1.2,2.8,2.8v11.4c0,9.8-7.7,17.8-17.4,18.4c0.3,0,0.7,0,1,0H45
			c10.2,0,18.4-8.2,18.4-18.4V42C63.4,40.5,62.2,39.2,60.6,39.2z"/>
		<path class="st8" d="M47.1,50c0-2.2-1.8-4-4-4s-4,1.8-4,4c0,1.5,0.8,2.8,2.1,3.5v4.2c0,1,0.8,1.9,1.9,1.9l0,0c1,0,1.9-0.8,1.9-1.9
			v-4.2C46.3,52.8,47.1,51.5,47.1,50z"/>
		<path class="st9" d="M42.7,57.7v-4.2c-1.2-0.7-2.1-2-2.1-3.5c0-1.9,1.4-3.6,3.2-3.9c-0.2,0-0.5-0.1-0.7-0.1c-2.2,0-4,1.8-4,4
			c0,1.5,0.8,2.8,2.1,3.5v4.2c0,1,0.8,1.9,1.9,1.9l0,0c0.3,0,0.5-0.1,0.7-0.1C43.2,59.2,42.7,58.5,42.7,57.7z"/>
	</g>
</g>
</svg>
