<?xml version="1.0" encoding="utf-8"?>
<!-- Generator: Adobe Illustrator 24.3.0, SVG Export Plug-In . SVG Version: 6.00 Build 0)  -->
<svg version="1.1" id="Camada_1" xmlns="http://www.w3.org/2000/svg" xmlns:xlink="http://www.w3.org/1999/xlink" x="0px" y="0px"
	 viewBox="0 0 85.3 88.1" style="enable-background:new 0 0 85.3 88.1;" xml:space="preserve">
<style type="text/css">
	.st0{fill:#12684B;stroke:#12684B;stroke-miterlimit:10;}
	.st1{fill:#FFFFFF;}
	.st2{fill:#E5ECF0;}
	.st3{fill:#727D83;stroke:#727D83;stroke-miterlimit:10;}
	.st4{fill:#A4C639;}
</style>
<g>
	<circle class="st0" cx="42.6" cy="45.4" r="42.4"/>
	<circle class="st1" cx="42.6" cy="42.7" r="42.4"/>
	<path class="st2" d="M27.2,82.2c2.5-0.2,5.1-3.1,7.6-3.4c6-1.2,12.1-2.3,18.2-2.1c2.3,0.1,4.5,0.2,6.8,0.3V31.5
		c0-1.1-0.9-1.9-1.9-1.9H20.7c-1.1,0-1.9,0.9-1.9,1.9v46.4C21.4,79.5,24.4,81.2,27.2,82.2z"/>
	<path class="st3" d="M61.2,26.7H24.1c-1.1,0-1.9,0.9-1.9,1.9v51.1c6.1,3.4,13.1,5.3,20.5,5.3c7.4,0,14.4-1.9,20.5-5.3V28.6
		C63.2,27.5,62.3,26.7,61.2,26.7z"/>
	<path class="st1" d="M59.6,32.7h-34c-1.1,0-1.9,0.9-1.9,1.9v45.9c5.7,2.9,12.1,4.5,18.9,4.5s13.2-1.6,18.9-4.5V34.7
		C61.6,33.6,60.7,32.7,59.6,32.7z"/>
	<g>
		<g>
			<path class="st4" d="M39.4,60.7c0.8,0,1.4,0.6,1.4,1.4v6.1c0,0.8-0.6,1.4-1.4,1.4S38,69,38,68.2v-6.1
				C38,61.4,38.7,60.7,39.4,60.7L39.4,60.7z"/>
		</g>
		<g>
			<path class="st4" d="M36.2,53.4c0,0.1,0,0.1,0,0.2v9.2c0,1,0.8,1.8,1.8,1.8h9.4c1,0,1.8-0.8,1.8-1.8v-9.2c0-0.1,0-0.1,0-0.2H36.2
				L36.2,53.4z"/>
		</g>
		<g>
			<path class="st4" d="M45.8,60.7c0.8,0,1.4,0.6,1.4,1.4v6.1c0,0.8-0.6,1.4-1.4,1.4s-1.4-0.6-1.4-1.4v-6.1
				C44.4,61.4,45.1,60.7,45.8,60.7L45.8,60.7z M33.9,54.2c0.8,0,1.4,0.6,1.4,1.4v6.1c0,0.8-0.6,1.4-1.4,1.4c-0.8,0-1.4-0.6-1.4-1.4
				v-6.1C32.5,54.9,33.1,54.2,33.9,54.2L33.9,54.2z M51.4,54.2c0.8,0,1.4,0.6,1.4,1.4v6.1c0,0.8-0.6,1.4-1.4,1.4
				c-0.8,0-1.4-0.6-1.4-1.4v-6.1C49.9,54.9,50.6,54.2,51.4,54.2L51.4,54.2z M36.3,52.8c0-2.8,2.5-5.1,5.7-5.5h1.4
				c3.2,0.3,5.6,2.6,5.7,5.5H36.3z"/>
		</g>
		<g>
			<path class="st4" d="M38.2,49.8c-0.1,0-0.1,0-0.1-0.1l-1.5-2.6c0-0.1,0-0.2,0.1-0.2s0.2,0,0.2,0.1l1.5,2.6
				C38.4,49.7,38.4,49.8,38.2,49.8C38.3,49.8,38.3,49.8,38.2,49.8z M47,49.8C47,49.8,47,49.8,47,49.8c-0.1-0.1-0.2-0.2-0.1-0.2
				l1.5-2.6c0-0.1,0.1-0.1,0.2-0.1c0.1,0,0.1,0.1,0.1,0.2l-1.5,2.6C47.1,49.8,47.1,49.8,47,49.8z"/>
		</g>
		<g>
			<path class="st1" d="M40.7,50.3c0,0.4-0.3,0.7-0.7,0.7c-0.4,0-0.7-0.3-0.7-0.7v0c0-0.4,0.3-0.7,0.7-0.7
				C40.4,49.6,40.7,49.9,40.7,50.3L40.7,50.3z M46.2,50.3c0,0.4-0.3,0.7-0.7,0.7c-0.4,0-0.7-0.3-0.7-0.7v0c0-0.4,0.3-0.7,0.7-0.7
				C45.9,49.6,46.2,49.9,46.2,50.3L46.2,50.3z"/>
		</g>
	</g>
	<path class="st3" d="M48,34.1h-9.5c-1.1,0-1.9-0.9-1.9-1.9l0,0c0-1.1,0.9-1.9,1.9-1.9H48c1.1,0,1.9,0.9,1.9,1.9l0,0
		C49.9,33.2,49.1,34.1,48,34.1z"/>
</g>
</svg>
