<?xml version="1.0" encoding="utf-8"?>
<!-- Generator: Adobe Illustrator 24.3.0, SVG Export Plug-In . SVG Version: 6.00 Build 0)  -->
<svg version="1.1" id="Camada_1" xmlns="http://www.w3.org/2000/svg" xmlns:xlink="http://www.w3.org/1999/xlink" x="0px" y="0px"
	 viewBox="0 0 85.2761 88.0704" style="enable-background:new 0 0 85.2761 88.0704;" xml:space="preserve">
<style type="text/css">
	.st0{fill:#12684B;}
	.st1{fill:#FFFFFF;}
	.st2{fill:#B3C4DB;}
	.st3{opacity:0.8;fill:#FFFFFF;}
	.st4{opacity:0.8;clip-path:url(#SVGID_2_);}
	.st5{fill:#33435B;}
	.st6{fill:#E5ECF0;}
	.st7{fill:#148260;}
	.st8{fill:#F8B586;}
	.st9{fill:#B9C3C9;}
	.st10{fill:#1D2769;}
	.st11{clip-path:url(#SVGID_4_);}
	.st12{fill:#C1C9E7;}
	.st13{fill:#98A4D1;}
	.st14{fill:#EFA26F;}
	.st15{fill:#F8B586;stroke:#148260;stroke-linecap:round;stroke-linejoin:round;stroke-miterlimit:10;}
	.st16{fill:#727D83;stroke:#727D83;stroke-miterlimit:10;}
	.st17{fill:#D4D4D6;}
	.st18{fill:#D1D1D1;}
	.st19{fill:#FFCC01;}
	.st20{fill:#FDB700;}
	.st21{fill:#E78D01;}
	.st22{fill:#220A00;}
	.st23{fill:#6F3100;}
	.st24{fill:#FF4848;}
	.st25{fill:#A4C639;}
</style>
<g>
	<circle class="st0" cx="42.6382" cy="45.7174" r="42.3529"/>
	<circle class="st1" cx="42.6379" cy="42.3529" r="42.3529"/>
	<g>
		<path class="st8" d="M49.4604,43.1075C44.491,37.5769,27.4599,57.8779,27.5608,60.277c0.3373,8.023,5.9416,14.2552,9.9896,18.1591
			c4.3386,1.1323,10.2043,0.6569,14.5819,0.3222C54.4248,67.1974,57.7092,52.288,49.4604,43.1075z"/>
	</g>
	<path class="st8" d="M19.9268,53.4938c3.3018,0.9092,6.2136,1.9997,8.6908,4.4476c1.8181,1.7967,6.9828-4.9829,4.261-6.0452
		c-3.5316-1.3785-7.2004-2.6015-10.9719-3.6493c-2.9027-0.8089-4.6885,0.3623-5.0354,1.7315
		C16.5629,51.1956,17.449,52.8085,19.9268,53.4938z"/>
	<path class="st8" d="M19.7416,62.4446c3.8456,0.7169,6.9252,1.4526,9.7937,5.5804c1.6074,2.3131,8.0158-5.1675,4.9226-6.3486
		c-4.0135-1.5326-8.1777-2.914-12.4534-4.1229c-3.2909-0.9329-5.3755,0.2345-5.4871,1.7293
		C16.4226,60.5537,17.1705,62.1156,19.7416,62.4446z"/>
	<path class="st8" d="M20.9766,45.1337c3.2837,0.9728,6.1738,2.1194,8.6032,4.6148c1.7831,1.8315,5.89-0.4714,7.0433-1.6797l0,0
		c1.1492-1.2049,0.0345-3.1673-2.6663-4.2821c-3.5043-1.4465-7.1487-2.7402-10.8993-3.8606
		c-2.8866-0.8648-5.5071-0.8028-5.9928,1.2564C16.696,42.7464,18.5125,44.4006,20.9766,45.1337z"/>
	<path class="st8" d="M44.867,39.1162c-2.2984-2.1408-11.9346-10.6106-14.8889-10.6825c-1.689-0.041-2.728,1.1404-2.4237,2.6592
		c0.2714,1.3545,1.3741,2.5493,2.3134,3.6565c1.8378,2.1664,4.4968,3.9879,6.1875,5.9678c0.9084,1.0637,2.9478,4.0116,4.2131,4.7108
		C42.2405,46.5176,47.2765,41.3605,44.867,39.1162z"/>
	<g>
		<g>
			<path class="st9" d="M43.7329,70.2025l-22.4573-8.2681c-0.9313-0.3429-1.4083-1.3758-1.0654-2.307L38.4984,9.9544
				c0.3429-0.9313,1.3758-1.4083,2.3071-1.0654l22.4573,8.2681c0.9313,0.3429,1.4083,1.3758,1.0654,2.307L46.04,69.1371
				C45.6971,70.0684,44.6642,70.5453,43.7329,70.2025z"/>
		</g>
	</g>
	<g>
		<g>
			<g>
				<path class="st1" d="M44.2309,68.8499l-22.4573-8.2681c-0.9313-0.3429-1.4083-1.3758-1.0654-2.307L38.9964,8.6018
					c0.3429-0.9313,1.3758-1.4083,2.307-1.0654l22.4573,8.2681c0.9313,0.3429,1.4083,1.3758,1.0654,2.307L46.538,67.7845
					C46.1951,68.7158,45.1622,69.1928,44.2309,68.8499z"/>
			</g>
		</g>
	</g>
	<g>
		<g>
			<g>
				<g>
					<g>
						<path class="st10" d="M54.1961,15.3556l-3.2609-1.2006c-0.237-0.0872-0.3583-0.3501-0.2711-0.587l0,0
							c0.0873-0.237,0.3501-0.3583,0.587-0.2711l3.2609,1.2006c0.237,0.0872,0.3583,0.3501,0.2711,0.587l0,0
							C54.6959,15.3214,54.4331,15.4428,54.1961,15.3556z"/>
					</g>
				</g>
			</g>
			<g>
				<g>
					<path class="st10" d="M49.4627,13.1256c-0.0872,0.237-0.3501,0.3583-0.587,0.2711c-0.237-0.0872-0.3583-0.3501-0.2711-0.587
						s0.3501-0.3583,0.5871-0.2711C49.4286,12.6258,49.55,12.8887,49.4627,13.1256z"/>
				</g>
			</g>
		</g>
	</g>
	<g>
		<circle class="st9" cx="34.0113" cy="61.9753" r="1.407"/>
	</g>
	<g>
		<defs>
			<path id="SVGID_3_" d="M41.7026,62.708l-14.0215-5.1623c-2.3254-0.8561-3.5164-3.4352-2.6603-5.7606l13.4761-36.6027
				c0.8561-2.3253,3.4352-3.5163,5.7605-2.6602l14.0217,5.1624c2.3253,0.8561,3.5163,3.4352,2.6602,5.7605L47.4631,60.0478
				C46.607,62.3731,44.0279,63.5642,41.7026,62.708z"/>
		</defs>
		<clipPath id="SVGID_2_">
			<use xlink:href="#SVGID_3_"  style="overflow:visible;"/>
		</clipPath>
		<g style="clip-path:url(#SVGID_2_);">
			<g>
				<g>
					
						<rect x="29.1514" y="13.8149" transform="matrix(0.9403 0.3403 -0.3403 0.9403 15.545 -12.2993)" class="st12" width="27.363" height="48.6962"/>
				</g>
				<g>
					
						<rect x="29.8886" y="24.2939" transform="matrix(0.9403 0.3403 -0.3403 0.9403 14.8958 -12.6718)" class="st1" width="27.363" height="23.6643"/>
				</g>
				<g>
					<path class="st13" d="M59.2988,23.8979c-0.0547,0-0.11-0.0093-0.1644-0.0289l-19.6782-7.1224
						c-0.2506-0.0908-0.3805-0.3676-0.2896-0.6184c0.0908-0.2512,0.3676-0.3809,0.6186-0.2898l19.6782,7.1224
						c0.2506,0.0908,0.3805,0.3676,0.2896,0.6184C59.6819,23.7758,59.4965,23.8979,59.2988,23.8979z"/>
				</g>
				<g>
					<path class="st13" d="M58.3676,26.4711c-0.0547,0-0.11-0.0093-0.1644-0.0289l-19.6785-7.1224
						c-0.2506-0.0908-0.3805-0.3676-0.2896-0.6184c0.0905-0.251,0.3673-0.3807,0.6186-0.2898l19.6785,7.1224
						c0.2506,0.0908,0.3804,0.3676,0.2896,0.6184C58.7507,26.349,58.5653,26.4711,58.3676,26.4711z"/>
				</g>
				<path class="st13" d="M31.5572,47.8711c-0.348,0.9614-1.4094,1.4587-2.3708,1.1107c-0.9614-0.348-1.4587-1.4094-1.1107-2.3708
					c0.3479-0.9614,1.4094-1.4587,2.3708-1.1107C31.4078,45.8482,31.9051,46.9097,31.5572,47.8711z"/>
				<g>
					<g>
						<path class="st13" d="M47.4,56.6135c-0.0547,0-0.11-0.0093-0.1645-0.0291l-14.8344-5.3691
							c-0.2507-0.0908-0.3805-0.3676-0.2896-0.6186s0.3677-0.381,0.6186-0.2896l14.8345,5.3691
							c0.2506,0.0908,0.3804,0.3676,0.2896,0.6186C47.7831,56.4912,47.5977,56.6135,47.4,56.6135z"/>
					</g>
					<g>
						<path class="st13" d="M46.5646,58.9221c-0.0547,0-0.1101-0.0093-0.1645-0.0291l-14.8345-5.3691
							c-0.2506-0.0908-0.3804-0.3676-0.2896-0.6186c0.0906-0.2509,0.3674-0.3813,0.6186-0.2896l14.8345,5.3691
							c0.2506,0.0908,0.3805,0.3676,0.2896,0.6186C46.9476,58.7999,46.7622,58.9221,46.5646,58.9221z"/>
					</g>
					<g>
						<path class="st13" d="M48.2354,54.3052c-0.0547,0-0.11-0.0093-0.1644-0.0291l-14.8345-5.3691
							c-0.2506-0.0908-0.3805-0.3676-0.2896-0.6186c0.0905-0.2509,0.3671-0.3808,0.6186-0.2896l14.8345,5.3691
							c0.2506,0.0908,0.3805,0.3676,0.2896,0.6186C48.6185,54.1829,48.4331,54.3052,48.2354,54.3052z"/>
					</g>
				</g>
			</g>
		</g>
	</g>
	<g>
		<path class="st8" d="M40.5699,75.5983c-1.7179-0.1605-4.5372-9.1305,0.7884-17.4255c-4.2499-1.1824-9.4894-4.4033-7.1491-6.4187
			c1.6064-1.3833,10.0915,0.4082,12.2929,1.5589c2.4322,2.546,5.5584,7.571,6.2571,9.4396
			C52.7593,62.7526,41.079,73.285,40.5699,75.5983z"/>
		<g>
			<path class="st14" d="M41.3694,58.2301c-0.5736,1.4971-1.1584,2.9648-1.6174,4.458c-0.4581,1.4914-0.7819,3.0085-0.8573,4.5308
				c-0.0758,1.5211,0.1063,3.0448,0.5622,4.5173c0.4529,1.475,1.1665,2.8804,1.9469,4.2789
				c-1.1223-1.1403-2.0722-2.4853-2.7016-4.0034c-0.6328-1.5136-0.9257-3.1927-0.8354-4.8432
				c0.0802-1.6537,0.5133-3.2583,1.1321-4.7509C39.6197,60.922,40.4228,59.5218,41.3694,58.2301z"/>
		</g>
	</g>
	<path class="st8" d="M37.4986,78.3058c-0.5442,1.7106-1.1756,3.6678-1.8729,5.8116c2.282,0.3804,4.6223,0.5884,7.0122,0.5884
		c3.0145,0,5.9534-0.3203,8.7896-0.9191c0.303-1.9367,0.5483-3.6299,0.7141-4.9879C47.344,74.7297,43.1572,78.1701,37.4986,78.3058z
		"/>
</g>
</svg>
