<?xml version="1.0" encoding="utf-8"?>
<!-- Generator: Adobe Illustrator 24.3.0, SVG Export Plug-In . SVG Version: 6.00 Build 0)  -->
<svg version="1.1" id="Camada_1" xmlns="http://www.w3.org/2000/svg" xmlns:xlink="http://www.w3.org/1999/xlink" x="0px" y="0px"
	 viewBox="0 0 85.2761 88.0704" style="enable-background:new 0 0 85.2761 88.0704;" xml:space="preserve">
<style type="text/css">
	.st0{fill:#12684B;}
	.st1{fill:#FFFFFF;}
	.st2{fill:#B3C4DB;}
	.st3{opacity:0.8;fill:#FFFFFF;}
	.st4{opacity:0.8;clip-path:url(#SVGID_2_);}
	.st5{fill:#33435B;}
	.st6{fill:#E5ECF0;}
	.st7{fill:#148260;}
	.st8{fill:#F8B586;}
	.st9{fill:#B9C3C9;}
	.st10{fill:#1D2769;}
	.st11{clip-path:url(#SVGID_4_);}
	.st12{fill:#C1C9E7;}
	.st13{fill:#98A4D1;}
	.st14{fill:#EFA26F;}
	.st15{fill:#F8B586;stroke:#148260;stroke-linecap:round;stroke-linejoin:round;stroke-miterlimit:10;}
	.st16{fill:#727D83;stroke:#727D83;stroke-miterlimit:10;}
	.st17{fill:#D4D4D6;}
	.st18{fill:#D1D1D1;}
	.st19{fill:#FFCC01;}
	.st20{fill:#FDB700;}
	.st21{fill:#E78D01;}
	.st22{fill:#220A00;}
	.st23{fill:#6F3100;}
	.st24{fill:#FF4848;}
	.st25{fill:#A4C639;}
</style>
<g>
	<circle class="st16" cx="42.638" cy="45.3881" r="42.3529"/>
	<circle class="st1" cx="42.638" cy="42.6822" r="42.3529"/>
	<g>
		<path class="st6" d="M41.9146,17.4307h-0.9444c-9.3411,0-16.9136,7.5725-16.9136,16.9136v9.9593
			c0,9.3411,7.5725,6.9543,16.9136,6.9543h0.9444c9.3411,0,16.9136,2.3868,16.9136-6.9543v-9.9593
			C58.8283,25.0032,51.2558,17.4307,41.9146,17.4307z M53.7628,42.6192c0,6.7405-5.4643,5.0182-12.2048,5.0182h-0.6815
			c-6.7405,0-12.2048,1.7223-12.2048-5.0182v-8.0989c0-6.7405,5.4643-12.2048,12.2048-12.2048h0.6815
			c6.7405,0,12.2048,5.4643,12.2048,12.2048V42.6192z"/>
		<path class="st6" d="M42.0971,17.4307h-0.9445c-0.3242,0-0.6461,0.01-0.9659,0.0281c8.8916,0.5007,15.9478,7.8687,15.9478,16.8856
			v9.9593c0,5.6252-2.7468,6.9967-6.9716,7.1983c5.8124,0.1896,9.8477-0.3797,9.8477-7.1983v-9.9593
			C59.0107,25.0032,51.4382,17.4307,42.0971,17.4307z"/>
		<path class="st6" d="M39.9855,22.3155c-6.7405,0-12.2048,5.4643-12.2048,12.2048v8.0988c0,4.957,2.9553,5.3372,7.2,5.1912
			c-3.013-0.1561-4.9678-1.16-4.9678-5.1912v-8.0988c0-6.4798,5.0506-11.7774,11.4294-12.1777
			c-0.2566-0.0161-0.5146-0.0271-0.7753-0.0271H39.9855z"/>
		<path class="st6" d="M24.3362,41.3547h34.395c1.699,0,3.0764,1.3773,3.0764,3.0764v9.2344
			c0,11.1969-9.0769,20.2738-20.2738,20.2738h0c-11.1969,0-20.2738-9.0769-20.2738-20.2738v-9.2344
			C21.2598,42.7321,22.6371,41.3547,24.3362,41.3547z"/>
		<path class="st6" d="M59.0159,41.3547H41.5336v32.5847H43.41c10.1606,0,18.3975-8.2368,18.3975-18.3975V44.1464
			C61.8075,42.6046,60.5576,41.3547,59.0159,41.3547z"/>
		<path class="st6" d="M59.0158,41.3547h-5.7664c1.5418,0,2.7917,1.2499,2.7917,2.7917v11.3955
			c0,9.8228-7.6983,17.8469-17.3907,18.3697c0.3334,0.018,0.6689,0.0278,1.0068,0.0278H43.41
			c10.1606,0,18.3975-8.2368,18.3975-18.3975V44.1464C61.8075,42.6046,60.5576,41.3547,59.0158,41.3547z"/>
		<path class="st6" d="M45.5152,52.1553c0-2.199-1.7826-3.9816-3.9815-3.9816c-2.199,0-3.9816,1.7826-3.9816,3.9816
			c0,1.5157,0.8472,2.8332,2.0937,3.5058v4.217c0,1.0426,0.8452,1.8878,1.8878,1.8878h0c1.0426,0,1.8878-0.8452,1.8878-1.8878
			v-4.217C44.6679,54.9884,45.5152,53.6709,45.5152,52.1553z"/>
		<path class="st6" d="M41.1103,59.8781v-4.217c-1.2465-0.6726-2.0937-1.9901-2.0937-3.5058c0-1.9485,1.4006-3.5673,3.2493-3.9114
			c-0.2376-0.0442-0.4818-0.0702-0.7322-0.0702c-2.199,0-3.9816,1.7826-3.9816,3.9816c0,1.5157,0.8472,2.8332,2.0937,3.5058v4.217
			c0,1.0426,0.8452,1.8878,1.8878,1.8878l0,0c0.2597,0,0.507-0.0526,0.7322-0.1474C41.587,61.3325,41.1103,60.661,41.1103,59.8781z"
			/>
	</g>
	<g>
		<path class="st6" d="M43.5393,15.2814h-0.9444c-9.3411,0-16.9136,7.5725-16.9136,16.9136v9.9593
			c0,9.3411,7.5725,6.9543,16.9136,6.9543h0.9444c9.3411,0,16.9136,2.3868,16.9136-6.9543V32.195
			C60.4529,22.8538,52.8804,15.2814,43.5393,15.2814z M55.3874,40.4699c0,6.7405-5.4643,5.0182-12.2048,5.0182h-0.6815
			c-6.7405,0-12.2048,1.7223-12.2048-5.0182V32.371c0-6.7405,5.4643-12.2048,12.2048-12.2048h0.6815
			c6.7405,0,12.2048,5.4643,12.2048,12.2048V40.4699z"/>
		<path class="st17" d="M43.7217,15.2814h-0.9445c-0.3242,0-0.6461,0.01-0.9658,0.0281
			c8.8916,0.5007,15.9478,7.8687,15.9478,16.8856v9.9593c0,5.6252-2.7468,6.9967-6.9716,7.1983
			c5.8124,0.1896,9.8477-0.3797,9.8477-7.1983V32.195C60.6354,22.8538,53.0629,15.2814,43.7217,15.2814z"/>
		<path class="st18" d="M41.6102,20.1662c-6.7405,0-12.2048,5.4643-12.2048,12.2048v8.0989c0,4.957,2.9553,5.3372,7.2,5.1912
			c-3.013-0.1561-4.9678-1.1601-4.9678-5.1912V32.371c0-6.4798,5.0506-11.7774,11.4294-12.1777
			c-0.2566-0.0161-0.5146-0.0271-0.7753-0.0271H41.6102z"/>
		<path class="st19" d="M25.9608,39.2054h34.395c1.699,0,3.0764,1.3773,3.0764,3.0764v9.2344
			c0,11.1969-9.0769,20.2738-20.2738,20.2738h0c-11.1969,0-20.2738-9.0769-20.2738-20.2738v-9.2344
			C22.8844,40.5827,24.2618,39.2054,25.9608,39.2054z"/>
		<path class="st20" d="M60.6405,39.2053H43.1583V71.79h1.8764c10.1606,0,18.3975-8.2368,18.3975-18.3975V41.997
			C63.4322,40.4552,62.1823,39.2053,60.6405,39.2053z"/>
		<path class="st21" d="M60.6405,39.2053h-5.7664c1.5418,0,2.7917,1.2499,2.7917,2.7917v11.3955
			c0,9.8228-7.6983,17.8469-17.3907,18.3697c0.3334,0.018,0.6689,0.0278,1.0068,0.0278h3.7527
			c10.1606,0,18.3975-8.2368,18.3975-18.3975V41.997C63.4321,40.4552,62.1823,39.2053,60.6405,39.2053z"/>
		<path class="st22" d="M47.1398,50.0059c0-2.199-1.7826-3.9816-3.9815-3.9816c-2.199,0-3.9816,1.7826-3.9816,3.9816
			c0,1.5157,0.8472,2.8332,2.0937,3.5058v4.217c0,1.0426,0.8452,1.8878,1.8878,1.8878h0c1.0426,0,1.8878-0.8452,1.8878-1.8878
			v-4.217C46.2926,52.8391,47.1398,51.5216,47.1398,50.0059z"/>
		<path class="st23" d="M42.7349,57.7287v-4.217c-1.2465-0.6726-2.0937-1.9901-2.0937-3.5058c0-1.9485,1.4006-3.5673,3.2493-3.9114
			c-0.2376-0.0442-0.4818-0.0702-0.7322-0.0702c-2.199,0-3.9816,1.7826-3.9816,3.9816c0,1.5157,0.8472,2.8332,2.0937,3.5058v4.217
			c0,1.0426,0.8452,1.8878,1.8878,1.8878l0,0c0.2597,0,0.5071-0.0526,0.7322-0.1474
			C43.2116,59.1831,42.7349,58.5116,42.7349,57.7287z"/>
	</g>
</g>
</svg>
