<?xml version="1.0" encoding="utf-8"?>
<!-- Generator: Adobe Illustrator 24.3.0, SVG Export Plug-In . SVG Version: 6.00 Build 0)  -->
<svg version="1.1" id="Camada_1" xmlns="http://www.w3.org/2000/svg" xmlns:xlink="http://www.w3.org/1999/xlink" x="0px" y="0px"
	 viewBox="0 0 85.2761 88.0704" style="enable-background:new 0 0 85.2761 88.0704;" xml:space="preserve">
<style type="text/css">
	.st0{fill:#12684B;}
	.st1{fill:#FFFFFF;}
	.st2{fill:#B3C4DB;}
	.st3{opacity:0.8;fill:#FFFFFF;}
	.st4{opacity:0.8;clip-path:url(#SVGID_2_);}
	.st5{fill:#33435B;}
	.st6{fill:#E5ECF0;}
	.st7{fill:#148260;}
	.st8{fill:#F8B586;}
	.st9{fill:#B9C3C9;}
	.st10{fill:#1D2769;}
	.st11{clip-path:url(#SVGID_4_);}
	.st12{fill:#C1C9E7;}
	.st13{fill:#98A4D1;}
	.st14{fill:#EFA26F;}
	.st15{fill:#F8B586;stroke:#148260;stroke-linecap:round;stroke-linejoin:round;stroke-miterlimit:10;}
	.st16{fill:#727D83;stroke:#727D83;stroke-miterlimit:10;}
	.st17{fill:#D4D4D6;}
	.st18{fill:#D1D1D1;}
	.st19{fill:#FFCC01;}
	.st20{fill:#FDB700;}
	.st21{fill:#E78D01;}
	.st22{fill:#220A00;}
	.st23{fill:#6F3100;}
	.st24{fill:#FF4848;}
	.st25{fill:#A4C639;}
</style>
<g>
	<circle class="st0" cx="42.638" cy="45.7174" r="42.3529"/>
	<circle class="st1" cx="42.638" cy="42.3529" r="42.3529"/>
	<path class="st8" d="M62.6058,23.2466c-2.6667-3.2676-23.1736,17.8403-23.1736,17.8403s-3.0986-10.6854-7.2112-11.568
		c-4.1127-0.8826-5.4836,1.7277-5.4836,1.7277s3.0047,3.3052,3.6807,4.7324c0.6761,1.4272,1.5524,6.0094,1.277,7.5869
		c-0.2755,1.5775,0.1001,7.3114,0.701,8.8638c0.601,1.5524-0.8263,3.5806-0.8263,3.5806l-18.8472,16.322
		c4.5032,4.4936,10.0172,7.9686,16.1656,10.0787l14.525-12.7545c0,0,22.5352-15.2237,17.7777-21.0828c0,0-1.252-1.7026-1.953-1.6025
		c0,0,1.0516-3.205-3.6808-5.0829c0,0-0.025-3.831-3.8309-4.4319C51.7263,37.4563,65.2724,26.5142,62.6058,23.2466z"/>
	<g>
		<line class="st15" x1="46.6914" y1="27.3403" x2="50.8552" y2="22.4363"/>
		<line class="st15" x1="43.3611" y1="26.1912" x2="43.2805" y2="19.7585"/>
		<line class="st15" x1="39.9502" y1="27.3403" x2="36.229" y2="22.0925"/>
	</g>
</g>
</svg>
