<?xml version="1.0" encoding="utf-8"?>
<!-- Generator: Adobe Illustrator 24.3.0, SVG Export Plug-In . SVG Version: 6.00 Build 0)  -->
<svg version="1.1" id="Camada_1" xmlns="http://www.w3.org/2000/svg" xmlns:xlink="http://www.w3.org/1999/xlink" x="0px" y="0px"
	 viewBox="0 0 85.3 88.1" style="enable-background:new 0 0 85.3 88.1;" xml:space="preserve">
<style type="text/css">
	.st0{fill:#12684B;}
	.st1{fill:#FFFFFF;}
	.st2{fill:#F8B586;}
	.st3{fill:#B9C3C9;}
	.st4{fill:#1D2769;}
	.st5{clip-path:url(#SVGID_2_);}
	.st6{clip-path:url(#SVGID_2_);fill:#FFFFFF;}
	.st7{fill:#EFA26F;}
</style>
<circle class="st0" cx="42.6" cy="45.7" r="42.4"/>
<circle class="st1" cx="42.6" cy="42.4" r="42.4"/>
<g>
	<path class="st2" d="M49.5,43.1c-5-5.5-22,14.8-21.9,17.2c0.3,8,5.9,14.3,10,18.2c4.3,1.1,10.2,0.7,14.6,0.3
		C54.4,67.2,57.7,52.3,49.5,43.1z"/>
</g>
<path class="st2" d="M19.9,53.5c3.3,0.9,6.2,2,8.7,4.4c1.8,1.8,7-5,4.3-6c-3.5-1.4-7.2-2.6-11-3.6c-2.9-0.8-4.7,0.4-5,1.7
	C16.6,51.2,17.4,52.8,19.9,53.5z"/>
<path class="st2" d="M19.7,62.4c3.8,0.7,6.9,1.5,9.8,5.6c1.6,2.3,8-5.2,4.9-6.3c-4-1.5-8.2-2.9-12.5-4.1c-3.3-0.9-5.4,0.2-5.5,1.7
	C16.4,60.6,17.2,62.1,19.7,62.4z"/>
<path class="st2" d="M21,45.1c3.3,1,6.2,2.1,8.6,4.6c1.8,1.8,5.9-0.5,7-1.7l0,0c1.1-1.2,0-3.2-2.7-4.3c-3.5-1.4-7.1-2.7-10.9-3.9
	c-2.9-0.9-5.5-0.8-6,1.3C16.7,42.7,18.5,44.4,21,45.1z"/>
<path class="st2" d="M44.9,39.1C42.6,37,32.9,28.5,30,28.4c-1.7,0-2.7,1.1-2.4,2.7c0.3,1.4,1.4,2.5,2.3,3.7c1.8,2.2,4.5,4,6.2,6
	c0.9,1.1,2.9,4,4.2,4.7C42.2,46.5,47.3,41.4,44.9,39.1z"/>
<g>
	<g>
		<path class="st3" d="M43.7,70.2l-22.5-8.3c-0.9-0.3-1.4-1.4-1.1-2.3L38.5,10c0.3-0.9,1.4-1.4,2.3-1.1l22.5,8.3
			c0.9,0.3,1.4,1.4,1.1,2.3L46,69.1C45.7,70.1,44.7,70.5,43.7,70.2z"/>
	</g>
</g>
<g>
	<g>
		<g>
			<path class="st1" d="M44.2,68.8l-22.5-8.3c-0.9-0.3-1.4-1.4-1.1-2.3L39,8.6c0.3-0.9,1.4-1.4,2.3-1.1l22.5,8.3
				c0.9,0.3,1.4,1.4,1.1,2.3L46.5,67.8C46.2,68.7,45.2,69.2,44.2,68.8z"/>
		</g>
	</g>
</g>
<g>
	<g>
		<g>
			<g>
				<g>
					<path class="st4" d="M54.2,15.4l-3.3-1.2c-0.2-0.1-0.4-0.4-0.3-0.6l0,0c0.1-0.2,0.4-0.4,0.6-0.3l3.3,1.2
						c0.2,0.1,0.4,0.4,0.3,0.6l0,0C54.7,15.3,54.4,15.4,54.2,15.4z"/>
				</g>
			</g>
		</g>
		<g>
			<g>
				<path class="st4" d="M49.5,13.1c-0.1,0.2-0.4,0.4-0.6,0.3c-0.2-0.1-0.4-0.4-0.3-0.6s0.4-0.4,0.6-0.3
					C49.4,12.6,49.5,12.9,49.5,13.1z"/>
			</g>
		</g>
	</g>
</g>
<g>
	<circle class="st3" cx="34" cy="62" r="1.4"/>
</g>
<g>
	<defs>
		<path id="SVGID_1_" d="M41.7,62.7l-14-5.2c-2.3-0.9-3.5-3.4-2.7-5.8l13.5-36.6c0.9-2.3,3.4-3.5,5.8-2.7l14,5.2
			c2.3,0.9,3.5,3.4,2.7,5.8L47.5,60C46.6,62.4,44,63.6,41.7,62.7z"/>
	</defs>
	<clipPath id="SVGID_2_">
		<use xlink:href="#SVGID_1_"  style="overflow:visible;"/>
	</clipPath>
	<g class="st5">
		
			<rect x="33.2" y="-10.8" transform="matrix(0.3403 -0.9403 0.9403 0.3403 35.1998 56.0197)" class="st0" width="48.7" height="27.4"/>
	</g>
	<g class="st5">
		
			<rect x="31.7" y="22.4" transform="matrix(0.3403 -0.9403 0.9403 0.3403 -5.2247 64.8016)" class="st1" width="23.7" height="27.4"/>
	</g>
	<g class="st5">
		<path class="st1" d="M57.8,23.1c-0.1,0-0.1,0-0.2,0l-10.4-3.8c-0.3-0.1-0.4-0.4-0.3-0.6c0.1-0.3,0.4-0.4,0.6-0.3L58,22.2
			c0.3,0.1,0.4,0.4,0.3,0.6C58.2,23,58,23.1,57.8,23.1z"/>
	</g>
	<g class="st5">
		<path class="st1" d="M56.9,25.7c-0.1,0-0.1,0-0.2,0L50,23.3c-0.3-0.1-0.4-0.4-0.3-0.6c0.1-0.3,0.4-0.4,0.6-0.3l6.8,2.4
			c0.3,0.1,0.4,0.4,0.3,0.6C57.3,25.6,57.1,25.7,56.9,25.7z"/>
	</g>
	<g class="st5">
		<g>
			<path class="st3" d="M50.6,36.5c-0.1,0-0.1,0-0.2,0l-14.8-5.4c-0.3-0.1-0.4-0.4-0.3-0.6s0.4-0.4,0.6-0.3l14.8,5.4
				c0.3,0.1,0.4,0.4,0.3,0.6C51,36.4,50.8,36.5,50.6,36.5z"/>
		</g>
		<g>
			<path class="st3" d="M46.3,37.5c-0.1,0-0.1,0-0.2,0l-8.7-3.1c-0.3-0.1-0.4-0.4-0.3-0.6c0.1-0.3,0.4-0.4,0.6-0.3l8.7,3.1
				c0.3,0.1,0.4,0.4,0.3,0.6C46.7,37.4,46.5,37.5,46.3,37.5z"/>
		</g>
		<g>
			<path class="st3" d="M51.4,34.2c-0.1,0-0.1,0-0.2,0l-14.8-5.4c-0.3-0.1-0.4-0.4-0.3-0.6c0.1-0.3,0.4-0.4,0.6-0.3l14.8,5.4
				c0.3,0.1,0.4,0.4,0.3,0.6C51.8,34.1,51.6,34.2,51.4,34.2z"/>
		</g>
	</g>
	<g class="st5">
		<g>
			<path class="st3" d="M43.4,44c-0.1,0-0.1,0-0.2,0l-7.9-2.9C35,41,34.9,40.8,35,40.5s0.4-0.4,0.6-0.3l7.9,2.9
				c0.3,0.1,0.4,0.4,0.3,0.6C43.7,43.9,43.6,44,43.4,44z"/>
		</g>
		<g>
			<path class="st3" d="M46.2,47.6c-0.1,0-0.1,0-0.2,0l-14.8-5.4c-0.3-0.1-0.4-0.4-0.3-0.6c0.1-0.3,0.4-0.4,0.6-0.3l14.8,5.4
				c0.3,0.1,0.4,0.4,0.3,0.6C46.6,47.5,46.4,47.6,46.2,47.6z"/>
		</g>
		<g>
			<path class="st3" d="M47.9,43c-0.1,0-0.1,0-0.2,0l-14.8-5.4c-0.3-0.1-0.4-0.4-0.3-0.6c0.1-0.3,0.4-0.4,0.6-0.3L48,42.1
				c0.3,0.1,0.4,0.4,0.3,0.6C48.3,42.9,48.1,43,47.9,43z"/>
		</g>
	</g>
	<g class="st5">
		<g>
			<path class="st3" d="M43.9,54.9c-0.1,0-0.1,0-0.2,0l-12-4.3c-0.3-0.1-0.4-0.4-0.3-0.6s0.4-0.4,0.6-0.3l12,4.3
				c0.3,0.1,0.4,0.4,0.3,0.6C44.3,54.8,44.1,54.9,43.9,54.9z"/>
		</g>
		<g>
			<path class="st3" d="M43.1,57.2c-0.1,0-0.1,0-0.2,0l-14.8-5.4c-0.3-0.1-0.4-0.4-0.3-0.6c0.1-0.3,0.4-0.4,0.6-0.3l14.8,5.4
				c0.3,0.1,0.4,0.4,0.3,0.6C43.5,57.1,43.3,57.2,43.1,57.2z"/>
		</g>
		<g>
			<path class="st3" d="M44.8,52.6c-0.1,0-0.1,0-0.2,0l-14.8-5.4c-0.3-0.1-0.4-0.4-0.3-0.6c0.1-0.3,0.4-0.4,0.6-0.3l14.8,5.4
				c0.3,0.1,0.4,0.4,0.3,0.6C45.1,52.5,45,52.6,44.8,52.6z"/>
		</g>
	</g>
	<circle class="st6" cx="42" cy="18.3" r="2.2"/>
</g>
<g>
	<path class="st2" d="M40.6,75.6c-1.7-0.2-4.5-9.1,0.8-17.4c-4.2-1.2-9.5-4.4-7.1-6.4c1.6-1.4,10.1,0.4,12.3,1.6
		c2.4,2.5,5.6,7.6,6.3,9.4C52.8,62.8,41.1,73.3,40.6,75.6z"/>
	<g>
		<path class="st7" d="M41.4,58.2c-0.6,1.5-1.2,3-1.6,4.5c-0.5,1.5-0.8,3-0.9,4.5c-0.1,1.5,0.1,3,0.6,4.5c0.5,1.5,1.2,2.9,1.9,4.3
			c-1.1-1.1-2.1-2.5-2.7-4c-0.6-1.5-0.9-3.2-0.8-4.8c0.1-1.7,0.5-3.3,1.1-4.8C39.6,60.9,40.4,59.5,41.4,58.2z"/>
	</g>
</g>
<path class="st2" d="M37.5,78.3C37,80,36.3,82,35.6,84.1c2.3,0.4,4.6,0.6,7,0.6c3,0,6-0.3,8.8-0.9c0.3-1.9,0.5-3.6,0.7-5
	C47.3,74.7,43.2,78.2,37.5,78.3z"/>
</svg>
