<?xml version="1.0" encoding="utf-8"?>
<!-- Generator: Adobe Illustrator 24.3.0, SVG Export Plug-In . SVG Version: 6.00 Build 0)  -->
<svg version="1.1" id="Camada_1" xmlns="http://www.w3.org/2000/svg" xmlns:xlink="http://www.w3.org/1999/xlink" x="0px" y="0px"
	 viewBox="0 0 85.2761 88.0704" style="enable-background:new 0 0 85.2761 88.0704;" xml:space="preserve">
<style type="text/css">
	.st0{fill:#12684B;}
	.st1{fill:#FFFFFF;}
	.st2{fill:#B3C4DB;}
	.st3{opacity:0.8;fill:#FFFFFF;}
	.st4{opacity:0.8;clip-path:url(#SVGID_2_);}
	.st5{fill:#33435B;}
	.st6{fill:#E5ECF0;}
	.st7{fill:#148260;}
	.st8{fill:#F8B586;}
	.st9{fill:#B9C3C9;}
	.st10{fill:#1D2769;}
	.st11{clip-path:url(#SVGID_4_);}
	.st12{fill:#C1C9E7;}
	.st13{fill:#98A4D1;}
	.st14{fill:#EFA26F;}
	.st15{fill:#F8B586;stroke:#148260;stroke-linecap:round;stroke-linejoin:round;stroke-miterlimit:10;}
	.st16{fill:#727D83;stroke:#727D83;stroke-miterlimit:10;}
	.st17{fill:#D4D4D6;}
	.st18{fill:#D1D1D1;}
	.st19{fill:#FFCC01;}
	.st20{fill:#FDB700;}
	.st21{fill:#E78D01;}
	.st22{fill:#220A00;}
	.st23{fill:#6F3100;}
	.st24{fill:#FF4848;}
	.st25{fill:#A4C639;}
</style>
<g>
	<circle class="st16" cx="42.638" cy="45.3881" r="42.3529"/>
	<circle class="st1" cx="42.638" cy="42.6822" r="42.3529"/>
	<path class="st6" d="M27.1547,82.1994c2.5131-0.1938,5.1423-3.0638,7.6435-3.4259c6.0076-1.2036,12.0504-2.3052,18.1772-2.1311
		c2.2728,0.0645,4.5446,0.1831,6.8151,0.3364V31.4505c0-1.072-0.8691-1.9412-1.9412-1.9412H20.6995
		c-1.0721,0-1.9412,0.8691-1.9412,1.9412v46.3567C21.3888,79.5479,24.3869,81.247,27.1547,82.1994z"/>
	<path class="st16" d="M61.2129,26.6737H24.0632c-1.0721,0-1.9412,0.8691-1.9412,1.9412v51.1199
		c6.079,3.3733,13.0712,5.3003,20.5161,5.3003c7.4448,0,14.437-1.927,20.516-5.3003V28.6149
		C63.154,27.5429,62.285,26.6737,61.2129,26.6737z"/>
	<path class="st1" d="M59.6236,32.7189H25.6525c-1.0721,0-1.9412,0.8691-1.9412,1.9414v45.9089
		c5.6974,2.8521,12.1219,4.4658,18.9268,4.4658s13.2294-1.6138,18.9268-4.4658V34.6603
		C61.5648,33.588,60.6957,32.7189,59.6236,32.7189z"/>
	<g>
		<g>
			<path class="st25" d="M39.4478,60.7323c0.7828,0,1.4173,0.6346,1.4173,1.4173v6.08c0,0.7828-0.6346,1.4172-1.4173,1.4172
				c-0.7827,0-1.4172-0.6345-1.4172-1.4172v-6.08C38.0305,61.367,38.6651,60.7324,39.4478,60.7323L39.4478,60.7323z"/>
		</g>
		<g>
			<path class="st25" d="M36.2121,53.4225c-0.0047,0.0537-0.0088,0.1081-0.0088,0.163v9.2117c0,0.9907,0.7842,1.7888,1.7576,1.7888
				h9.3677c0.9735,0,1.7577-0.7982,1.7577-1.7888v-9.2117c0-0.0549-0.002-0.1095-0.0066-0.163H36.2121L36.2121,53.4225z"/>
		</g>
		<g>
			<path class="st25" d="M45.842,60.7323c0.7828,0,1.4173,0.6346,1.4173,1.4173v6.08c0,0.7828-0.6346,1.4172-1.4173,1.4172
				c-0.7827,0-1.4172-0.6345-1.4172-1.4172v-6.08C44.4248,61.367,45.0594,60.7324,45.842,60.7323L45.842,60.7323z M33.9261,54.2423
				c0.7827,0,1.4172,0.6346,1.4172,1.4173v6.08c0,0.7828-0.6346,1.4173-1.4172,1.4173c-0.7828,0-1.4173-0.6346-1.4173-1.4172v-6.08
				C32.5087,54.877,33.1433,54.2423,33.9261,54.2423L33.9261,54.2423z M51.3638,54.2423c0.7827,0,1.4172,0.6346,1.4172,1.4173v6.08
				c0,0.7828-0.6346,1.4173-1.4172,1.4173c-0.7828,0-1.4173-0.6346-1.4173-1.4172v-6.08
				C49.9464,54.877,50.581,54.2423,51.3638,54.2423L51.3638,54.2423z M36.2535,52.8174c0.0394-2.8295,2.509-5.1494,5.6791-5.4551
				h1.4244c3.1703,0.3058,5.6397,2.6259,5.6791,5.4551H36.2535z"/>
		</g>
		<g>
			<path class="st25" d="M38.2417,49.8281c-0.0516,0-0.1018-0.0268-0.1294-0.0747l-1.4951-2.5896
				c-0.0412-0.0714-0.0168-0.1627,0.0546-0.2039c0.0714-0.0412,0.1627-0.0168,0.2039,0.0546l1.4951,2.5896
				c0.0412,0.0714,0.0168,0.1627-0.0546,0.2039C38.2927,49.8217,38.267,49.8281,38.2417,49.8281z M47.0481,49.8281
				c-0.0253,0-0.051-0.0064-0.0745-0.02c-0.0714-0.0412-0.0959-0.1325-0.0546-0.2039l1.4952-2.5896
				c0.0412-0.0714,0.1325-0.0959,0.2039-0.0546c0.0714,0.0412,0.0959,0.1325,0.0546,0.2039l-1.4952,2.5896
				C47.1499,49.8013,47.0997,49.8281,47.0481,49.8281z"/>
		</g>
		<g>
			<path class="st1" d="M40.7409,50.2817c0.0012,0.3955-0.3261,0.7171-0.7312,0.7182c-0.4049,0.001-0.7341-0.3187-0.7353-0.7142
				v-0.004c-0.0011-0.3956,0.3262-0.7171,0.7312-0.7182c0.4049-0.0011,0.7341,0.3185,0.7353,0.7142V50.2817z M46.2144,50.2817
				c0.0012,0.3955-0.3261,0.7171-0.7312,0.7182c-0.4049,0.001-0.7341-0.3187-0.7353-0.7142v-0.004
				c-0.0011-0.3956,0.3262-0.7171,0.7312-0.7182c0.4049-0.0011,0.7341,0.3185,0.7353,0.7142V50.2817z"/>
		</g>
	</g>
	<path class="st16" d="M48.0304,34.094h-9.5171c-1.0582,0-1.9161-0.8578-1.9161-1.9161v0c0-1.0582,0.8578-1.9161,1.9161-1.9161
		h9.5171c1.0582,0,1.9161,0.8579,1.9161,1.9161v0C49.9464,33.2362,49.0886,34.094,48.0304,34.094z"/>
</g>
</svg>
