<?xml version="1.0" encoding="utf-8"?>
<!-- Generator: Adobe Illustrator 24.3.0, SVG Export Plug-In . SVG Version: 6.00 Build 0)  -->
<svg version="1.1" id="Camada_1" xmlns="http://www.w3.org/2000/svg" xmlns:xlink="http://www.w3.org/1999/xlink" x="0px" y="0px"
	 viewBox="0 0 595.2756 99.2277" style="enable-background:new 0 0 595.2756 99.2277;" xml:space="preserve">
<style type="text/css">
	.st0{fill:#FFB104;}
	.st1{fill:#DD1B4A;}
	.st2{fill:#96CA3F;}
	.st3{fill:#FC9572;}
	.st4{fill:#D65E3E;}
	.st5{fill:#7CA736;}
	.st6{fill:#E48040;}
	.st7{fill:#FFFFFF;}
	.st8{fill:#97CEF7;}
	.st9{opacity:0.49;}
	.st10{fill:#969696;}
	.st11{fill:#F5F5F3;}
	.st12{clip-path:url(#XMLID_2_);}
	.st13{fill:#26AB70;}
	.st14{fill:#02132F;}
	.st15{fill:#E85E5E;}
	.st16{fill:#F47F7F;}
	.st17{fill:#FAB036;}
	.st18{fill:#2E73F8;}
	.st19{fill:#99402E;}
	.st20{fill:#148260;}
	.st21{fill:#D3D3D3;}
	.st22{fill:#FCAE51;}
	.st23{fill:#FFC16B;}
</style>
<g>
	<rect x="499.0102" y="46.9383" class="st0" width="12.7695" height="51.7663"/>
	<rect x="513.4883" y="26.8516" class="st1" width="13.0578" height="71.853"/>
	<rect x="485.4664" y="34.7715" class="st2" width="12.0267" height="63.9332"/>
	<polygon class="st3" points="563.4079,93.8754 552.3877,98.7046 526.8326,40.129 537.8528,35.2997 	"/>
	<polygon class="st4" points="544.2874,59.5722 540.2145,61.3561 533.1337,45.114 537.2067,43.3302 	"/>
	<rect x="485.4664" y="39.8053" class="st5" width="12.0267" height="4.1462"/>
	<rect x="485.4664" y="86.5842" class="st5" width="12.0267" height="4.1462"/>
	<rect x="501.8144" y="51.3188" class="st6" width="7.161" height="19.7487"/>
	<rect x="513.4883" y="34.7715" class="st7" width="13.0578" height="3.1204"/>
	<rect x="513.4883" y="88.6573" class="st7" width="13.0578" height="4.0898"/>
</g>
<rect x="414.2355" y="89.6429" class="st0" width="67.9805" height="9.4322"/>
<rect x="406.0182" y="80.2105" class="st2" width="67.9804" height="9.4324"/>
<rect x="409.2458" y="81.6703" class="st8" width="32.16" height="6.2883"/>
<rect x="464.3772" y="89.6429" class="st7" width="3.4738" height="9.4322"/>
<g class="st9">
	<polygon class="st10" points="298.8346,34.4727 329.397,54.6266 337.2927,35.0022 	"/>
	<polygon class="st11" points="336.2363,26.6659 337.2927,35.0022 298.8346,34.4727 	"/>
	<polygon class="st11" points="338.3871,37.9265 298.8346,34.4727 340.3978,50.5094 	"/>
</g>
<g>
	<g>
		<rect x="106.4214" y="84.1148" class="st10" width="2.0352" height="13.0015"/>
	</g>
	<path class="st10" d="M109.5193,85.2887c-24.0646,0-43.6425-19.5779-43.6425-43.6422c0-7.5999,1.9836-15.0835,5.7359-21.6423
		c3.6392-6.3603,8.8658-11.7488,15.115-15.5829l1.1517,1.877c-5.9354,3.6412-10.8994,8.7589-14.3553,14.7995
		c-3.5623,6.2262-5.4451,13.3319-5.4451,20.5487c0,22.8502,18.59,41.4402,41.4403,41.4402c7.8167,0,15.429-2.1868,22.0144-6.3243
		l1.1716,1.8646C125.7683,82.985,117.7509,85.2887,109.5193,85.2887z"/>
	<g>
		<defs>
			<path id="XMLID_274_" d="M146.5449,51.643c-13.9588,47.7012-85.2454,28.1479-72.9182-19.9944
				C87.5851-16.0513,158.8713,3.5022,146.5449,51.643z"/>
		</defs>
		<use xlink:href="#XMLID_274_"  style="overflow:visible;fill:#1B8BEF;"/>
		<clipPath id="XMLID_2_">
			<use xlink:href="#XMLID_274_"  style="overflow:visible;"/>
		</clipPath>
		<g class="st12">
			<path class="st2" d="M79.3987,31.942c-6.7102,1.3959-4.1611,14.1797,0.7671,7.4991c1.7455,0.6513-0.3597,6.691,2.8148,4.4688
				c7.9484,12.4105,6.4445-2.0154,14.6647,2.7255c7.3104,2.8564,11.0458,6.539,16.4743,10.2244
				c0.6476,3.0681,0.3861,6.7,0.0216,9.8109c-2.9011,1.7315-3.3243,5.111-4.7228,8.0152c0.3565,2.1537,1.3779,4.2035,1.9851,6.3118
				c-5.7286,1.023-6.8658-8.6291-10.8477-11.405c-3.6951-3.5675-9.9867-5.2292-11.502-10.6512
				c-0.3624-3.2023-0.5176-11.0242-5.6294-8.2266c0.2082-3.1352-5.3277-2.8412-5.6006-5.7387
				c-6.3464,1.0466-6.0866-5.5076-7.1028-9.857c-3.7432,1.4835-3.0387-5.0507-4.92-6.9086
				c-3.5324-9.9386,18.473-29.7176,26.9402-22.8383c3.9282-0.9022,1.6282,2.2679-0.5129,2.127
				c-0.9632,0.0471-1.7391,0.8744-2.137-0.34c-1.6864-1.3775-1.4737,2.2463-2.7871,2.2721c-1.934-0.7926-4.3909,1.4498-2.9141,3.427
				c2.6215,2.8432,4.1698-1.5552,6.386-2.376c1.6482-0.7976,3.1902,0.0422,4.455,1.0597c1.3094,0.1218,2.623,1.3698,1.3192,2.4883
				c-1.1189,0.9659-2.6441,0.3026-3.8441,0.9043c-1.2027,2.0216,2.3361,1.5806,3.2644,2.274
				c2.1907,3.0853-3.2777,2.3853-4.7376,3.1579c-1.4521,1.0635-2.0534,6.3377-4.6704,4.1816
				c-0.2887,1.0556-0.1435,2.2228,0.3948,3.1755c-6.7736,0.9217,0.7035,5.1337-1.8259,7.6527
				C82.3423,36.6849,81.8073,32.1132,79.3987,31.942"/>
			<path class="st2" d="M83.183,38.3139c-0.2871,1.4215,1.9335,0.5329,2.6966,0.926c1.0324,0.8561,4.3359,1.9389,3.0092-0.5353
				C87.2967,37.6589,83.985,35.1986,83.183,38.3139z"/>
			<path class="st2" d="M97.5419,3.5886c4.7673,0.6113-0.335,7.2879,5.6321,5.8197c2.1673-0.9692,3.0252-3.8502,5.363-4.5449
				c1.843-0.0782,2.6399-1.5025,2.0931-3.2845c-0.0729-1.6178-1.6238-1.7755-2.8933-2.2019
				c-1.495-0.6892-2.1419-1.3534-3.8951-1.2619C100.9989-2.5069,95.8521,0.274,97.5419,3.5886z"/>
			<path class="st2" d="M117.7657,3.711c2.0754-0.1533,2.4026,0.5664,2.4619,2.5784c0.495,2.5766,3.9263,2.8795,5.2074,0.7464
				c1.4468-0.6662,2.1167,1.9296,0.7783,2.4217c-1.4977,0.0654-1.0302,1.2935-1.3568,2.2677
				c-0.4766,0.6677-1.9128,0.2923-2.0556,1.1001c-0.1777,1.0059,2.1353,1.0338,1.9275,2.034
				c-5.9712,0.9317,0.8829,7.5088,3.6813,4.2294c3.2801-9.8932,6.2485-0.5795,8.8622-2.5836
				C143.183,7.308,128.621,1.023,121.6971-1.444C118.7549-3.2616,116.0749,1.6953,117.7657,3.711z"/>
			<path class="st2" d="M134.8759,23.8432c-0.8246-0.5829-1.1089-1.8885-0.4476-2.6516c-1.9422-1.6961-4.0222,0.903-5.5205,2.0251
				c-1.1594,0.7728-2.8076,1.2798-3.0401,2.6536c1.7832,4.1234-3.0091,7.0645-1.7851,10.8734
				c5.0084,3.8026,1.0534,6.7375,2.2851,11.696c2.9437,2.6048,7.512-2.3329,10.9857-1.7071
				c3.046,1.2467,0.1212,2.6298-0.4926,4.0881c0.2954,1.6887,3.4599,2.6014,0.9552,4.4803
				c-4.685,2.7849-6.1075,19.654,1.8546,14.6944c6.4253-13.5926,15.8385-29.569,3.9727-43.1673
				C140.2614,18.4878,139.537,25.418,134.8759,23.8432z"/>
		</g>
	</g>
	<rect x="90.0598" y="96.6351" class="st10" width="34.6638" height="2.3481"/>
</g>
<g>
	<path class="st13" d="M56.7746,78.3212c0,0,0.0749-5.592-5.7725-5.102C51.0021,73.2192,50.5647,78.6675,56.7746,78.3212z"/>
	<path class="st14" d="M56.5805,81.5685c0,0-0.3553-6.5285,2.9311-8.3493l1.1103,1.0214c0,0-3.5085,2.5759-3.0644,7.3279H56.5805z"
		/>
	<path class="st15" d="M66.6928,81.1152c-3.078-3.8475-9.8325-0.513-9.8325-0.513s-6.7545-3.3345-9.8324,0.513
		c-3.078,3.8475-3.5055,20.0069,9.8324,17.6129C70.1983,101.1221,69.7708,84.9627,66.6928,81.1152z"/>
	<path class="st16" d="M65.8487,84.0265c-0.2247,0.9374-1.7373,1.3783-3.3783,0.9848c-1.6411-0.3935-2.7892-1.4724-2.5644-2.4098
		c0.2248-0.9375,1.7373-1.3784,3.3784-0.9849C64.9254,82.0101,66.0735,83.089,65.8487,84.0265z"/>
	<path class="st16" d="M65.7478,87.4669c0,0.5114-0.4146,0.9259-0.926,0.9259c-0.5113,0-0.9259-0.4145-0.9259-0.9259
		c0-0.5114,0.4146-0.9259,0.9259-0.9259C65.3332,86.541,65.7478,86.9555,65.7478,87.4669z"/>
</g>
<rect x="21.6643" y="37.2437" transform="matrix(6.123234e-17 -1 1 6.123234e-17 -16.903 68.2319)" class="st17" width="8.0002" height="10.6474"/>
<rect x="159.9743" y="9.3931" transform="matrix(0.322 -0.9467 0.9467 0.322 97.2448 165.2205)" class="st17" width="8.0002" height="10.6474"/>
<rect x="18.2333" y="22.1671" transform="matrix(0.1381 -0.9904 0.9904 0.1381 -8.0362 43.0007)" class="st18" width="4.9074" height="7.9007"/>
<rect x="30.3898" y="30.3846" transform="matrix(-0.1999 -0.9798 0.9798 -0.1999 14.0628 83.3082)" class="st15" width="21.3101" height="11.0558"/>
<path class="st19" d="M33.9105,88.2374c-0.579-0.901-1.8173-1.2976-3.3596-1.0924c0.0621-0.3871,0.1105-0.772,0.1446-1.1493
	c0.0428-0.4729-0.1123-0.9287-0.4365-1.2835c-0.3289-0.3599-0.7969-0.5662-1.2841-0.5662H3.9455
	c-0.4873,0-0.9553,0.2063-1.2841,0.5662c-0.3242,0.3548-0.4792,0.8105-0.4364,1.2835c0.4853,5.3711,4.0349,10.8411,8.1003,13.232
	h12.8958c1.0608-0.6253,2.056-2.3813,2.9579-3.2973c1.3858,0.0343,3.0329-0.4942,4.5359-1.4598
	c1.3374-0.8594,2.4099-1.9632,3.0199-3.1083C34.3731,90.1643,34.4355,89.0543,33.9105,88.2374z M9.1569,94.6768
	c-0.1487,0.0962-0.3406,0.0766-0.4662-0.0477c-0.7859-0.7776-2.7703-3.1162-4.2198-8.0235
	c-0.0325-0.1099-0.0112-0.2265,0.0585-0.3197c0.0722-0.0963,0.1822-0.1517,0.3021-0.1517h0.3315
	c0.1775,0,0.3311,0.1243,0.3651,0.2956c0.2941,1.4812,1.2423,5.194,3.6901,7.676c0.0791,0.0803,0.1174,0.1899,0.1054,0.3009
	C9.3115,94.5174,9.2508,94.6157,9.1569,94.6768z M11.1471,96.3738c-0.2467,0-0.4474-0.2006-0.4474-0.4474
	c0-0.2468,0.2007-0.4474,0.4474-0.4474s0.4475,0.2006,0.4475,0.4474C11.5946,96.1732,11.3938,96.3738,11.1471,96.3738z
	 M29.8417,93.1115c-0.6977,0.4483-1.4285,0.785-2.1187,0.9807c1.1116-1.557,1.9556-3.3491,2.4615-5.2338
	c1.0584-0.2459,1.8919-0.1114,2.1959,0.3622C32.8767,89.9929,31.975,91.741,29.8417,93.1115z"/>
<path class="st10" d="M20.7668,77.05c0.671,0.8948,0.6074,2.1404-0.1511,2.9623l-1.1788,1.277l0.4996,0.4609l1.1788-1.277
	c0.981-1.0627,1.0632-2.674,0.1954-3.831l-1.4945-1.9927c-0.6452-0.8602-0.617-2.0395,0.0686-2.8679l1.4085-1.702
	c0.8866-1.0714,0.923-2.5968,0.0887-3.7091l-1.4235-1.8981l-0.5439,0.4079l1.4235,1.8981c0.6451,0.8602,0.617,2.0394-0.0685,2.8679
	l-1.4085,1.7019c-0.8867,1.0713-0.9231,2.5966-0.0888,3.7091L20.7668,77.05z"/>
<path class="st10" d="M17.104,77.05c0.671,0.8948,0.6074,2.1404-0.1511,2.9623l-1.1787,1.277l0.4996,0.4609l1.1788-1.277
	c0.981-1.0627,1.0632-2.674,0.1954-3.831l-1.4945-1.9927c-0.6452-0.8602-0.617-2.0395,0.0686-2.8679l1.4085-1.702
	c0.8866-1.0714,0.923-2.5968,0.0887-3.7091l-1.4236-1.8981l-0.5439,0.4079l1.4235,1.8981c0.6451,0.8602,0.617,2.0394-0.0685,2.8679
	l-1.4085,1.7019c-0.8867,1.0713-0.9231,2.5966-0.0888,3.7091L17.104,77.05z"/>
<path class="st10" d="M12.3229,77.05c0.671,0.8948,0.6075,2.1404-0.1511,2.9623l-1.1787,1.277l0.4996,0.4609l1.1787-1.277
	c0.981-1.0629,1.0632-2.674,0.1954-3.831l-1.4944-1.9927c-0.6452-0.8602-0.617-2.0395,0.0686-2.8679l1.4085-1.702
	c0.8867-1.0714,0.9231-2.5966,0.0888-3.7091l-1.4235-1.8981l-0.5439,0.4079l1.4236,1.8981c0.6452,0.8602,0.617,2.0395-0.0686,2.8679
	l-1.4085,1.7019c-0.8866,1.0713-0.9231,2.5966-0.0887,3.7091L12.3229,77.05z"/>
<rect x="569.5109" y="63.4592" transform="matrix(0.9874 -0.1586 0.1586 0.9874 -4.8692 91.4342)" class="st20" width="2.1677" height="25.5481"/>
<polygon class="st21" points="567.8561,59.1798 567.4991,63.7926 569.6396,63.4489 "/>
<rect x="588.3436" y="65.562" transform="matrix(0.9832 0.1827 -0.1827 0.9832 24.2374 -106.3841)" class="st20" width="2.1676" height="25.5479"/>
<polygon class="st21" points="592.5823,61.3547 590.6951,65.579 592.8267,65.975 "/>
<rect x="585.6415" y="58.1948" transform="matrix(0.9832 0.1826 -0.1826 0.9832 22.8163 -105.9204)" class="st20" width="2.1674" height="25.548"/>
<polygon class="st21" points="589.8801,53.9874 587.9929,58.2117 590.1241,58.6077 "/>
<rect x="575.5236" y="74.0985" class="st22" width="17.0731" height="24.6061"/>
<rect x="566.9865" y="74.0985" class="st23" width="17.0738" height="24.6061"/>
<g>
</g>
<g>
</g>
<g>
</g>
<g>
</g>
<g>
</g>
<g>
</g>
</svg>
