<?xml version="1.0" encoding="utf-8"?>
<!-- Generator: Adobe Illustrator 24.3.0, SVG Export Plug-In . SVG Version: 6.00 Build 0)  -->
<svg version="1.1" id="Camada_1" xmlns="http://www.w3.org/2000/svg" xmlns:xlink="http://www.w3.org/1999/xlink" x="0px" y="0px"
	 viewBox="0 0 292.6314 296.0001" style="enable-background:new 0 0 292.6314 296.0001;" xml:space="preserve">
<style type="text/css">
	.st0{fill:#2CBA8D;}
	.st1{fill:#F6BFA3;}
	.st2{fill:#FFFFFF;}
	.st3{fill:#E4EBF0;}
	.st4{fill:#E29F81;}
	.st5{fill:#44261B;}
	.st6{fill:#B9C2C8;}
	.st7{fill:#404040;}
	.st8{fill:#1DA074;}
	.st9{fill:#FFCF8C;}
	.st10{fill:#F6C3AC;}
	.st11{fill:#EA6F42;}
	.st12{fill:#DB9880;}
	.st13{fill:#ED8045;}
	.st14{fill:#F9BF7A;}
	.st15{fill:#727D83;}
</style>
<g>
	<circle class="st0" cx="146.3157" cy="129.1017" r="123.0748"/>
	<path class="st1" d="M127.7137,179.4803v10.0984l-20.3547,7.5738c0,0,17.6723,22.5637,40.236,22.5637
		s38.6581-22.8793,38.6581-22.8793l-15.621-7.416v-11.203h-42.9184V179.4803z"/>
	<path class="st2" d="M146.3158,252.1764c31.0961,0,59.4772-11.5566,81.1426-30.578l-0.85-5.4606
		c-0.4067-2.6118-2.2094-4.7917-4.6984-5.6815l-48.8402-20.0354c3.4355,1.8564,8.286,6.6994-1.2957,17.6175
		c-6.2016,7.0662-30.0504,7.9051-37.5406,2.2227c-16.6078-12.5991-12.8613-17.7406-9.3328-19.6574l-54.5369,19.8665
		c-2.4651,0.8812-4.2508,3.0402-4.6534,5.627l-0.8183,5.2575C86.5924,240.5224,115.0857,252.1764,146.3158,252.1764z"/>
	<path class="st3" d="M124.9006,190.6036l2.8131-1.0249C127.7137,189.5788,126.3249,189.8297,124.9006,190.6036z"/>
	<path class="st3" d="M173.0698,190.4209c-1.3203-0.7135-2.4378-1.0001-2.4378-1.0001L173.0698,190.4209z"/>
	<path class="st4" d="M127.8834,180.506l-0.1697,6.9032c0,0,8.4451,10.322,21.3838,10.322
		c12.9386,0,21.5346-11.3387,21.5346-11.3387v-6.807h-42.2048L127.8834,180.506z"/>
	<path class="st1" d="M149.6498,73.7752c-40.3938-0.6311-47.7573-7.9946-46.9158,61.2219
		c0.4208,34.6081,23.6682,57.0537,46.9156,57.0537c23.2475,0,46.4949-22.4456,46.9157-57.0537
		C197.4069,65.7806,190.0436,73.1441,149.6498,73.7752z"/>
	<path class="st5" d="M150.2104,89.5937c7.4686,0,18.8294-5.2596,32.0836-4.8388c13.2542,0.4208,13.8853,52.2804,13.8853,52.2804
		s23.4783-80.8927-10.7296-80.8927c0,0-10.5192-13.149-35.2393-13.149c-62.1726,0-58.8024,61.064-45.9689,94.0417
		c0,0,0.6311-51.8597,13.8854-52.2804C131.3811,84.3341,142.7418,89.5937,150.2104,89.5937"/>
	<path class="st6" d="M152.9492,213.9323c5.2171-1.7698,22.9153-10.9656,21.1335-24.757c5.3272,6.0192,9.6425,24.521-5.9131,37.726
		C163.8548,220.6525,157.4372,215.8288,152.9492,213.9323z"/>
	<path class="st6" d="M145.2866,213.9323c-5.2171-1.7698-22.9153-10.9656-21.1335-24.757
		c-5.3272,6.0192-9.6425,24.521,5.9131,37.726C134.3811,220.6525,140.7986,215.8288,145.2866,213.9323z"/>
	<g>
		<path class="st7" d="M154.2711,124.5413c-0.6176-0.7131-2.038-0.8338-4.6269-0.8338v-2.241c2.4147,0,5.4245,0,7.0364,1.7804
			L154.2711,124.5413z"/>
		<g>
			<path class="st7" d="M189.3024,135.534H162.633c-5.1214,0-6.7328-6.5533-8.3728-10.4424
				c-0.5785-1.3617-0.1121-3.0047,1.2128-4.4026c1.5779-1.6763,4.0323-2.6062,6.7281-2.6062h26.8654
				c2.3192,0,4.2456,0.548,5.543,1.5866c1.4825,1.2157,2.1565,3.0018,1.9937,5.3181
				C196.1203,131.7939,193.5256,135.534,189.3024,135.534z M162.2012,120.3267c-1.7522,0-3.3302,0.6009-4.3584,1.6619
				c-0.7522,0.8062-1.0725,1.7413-0.7919,2.398c2.5665,6.1496,3.7177,8.9013,5.5821,8.9013h26.6694
				c2.7913,0,4.0886-4.3468,4.375-8.4407c0.1236-1.6705-0.2864-2.881-1.1904-3.6252c-0.7527-0.5981-1.8983-0.8954-3.4204-0.8954
				H162.2012z"/>
			<path class="st7" d="M136.66,135.534h-26.6636c-4.2175,0-6.8064-3.7402-7.2888-10.5465
				c-0.1662-2.3163,0.5026-4.1024,1.988-5.3181c1.3082-1.0386,3.2203-1.5866,5.5424-1.5866h26.8661
				c2.7068,0,5.1496,0.9299,6.7218,2.6062c1.348,1.398,1.7804,3.0409,1.2191,4.4026
				C143.4106,128.9807,141.793,135.534,136.66,135.534z M110.2379,120.3267c-1.5216,0-2.6843,0.2973-3.4199,0.8954
				c-0.904,0.7441-1.2973,1.9546-1.1904,3.6252c0.2864,4.0938,1.6004,8.4407,4.3687,8.4407H136.66
				c1.8758,0,3.0213-2.7516,5.6051-8.9013c0.2582-0.6567-0.0397-1.5918-0.8033-2.398c-1.0276-1.061-2.6113-1.6619-4.3578-1.6619
				H110.2379z"/>
			<path class="st7" d="M145.0167,124.5413l-2.398-1.2944c1.6228-1.7804,4.6275-1.7804,7.0255-1.7804v2.241
				C147.0829,123.7074,145.6511,123.8282,145.0167,124.5413z"/>
		</g>
	</g>
	
		<rect x="223.3232" y="140.0198" transform="matrix(0.9532 -0.3025 0.3025 0.9532 -34.2434 79.5617)" class="st8" width="32.8562" height="20.6387"/>
	
		<rect x="47.3023" y="151.1711" transform="matrix(0.9991 0.0423 -0.0423 0.9991 6.7236 -2.303)" class="st8" width="20.9822" height="13.18"/>
	
		<rect x="218.4751" y="111.1481" transform="matrix(0.9691 0.2467 -0.2467 0.9691 36.2251 -52.9718)" class="st8" width="22.0797" height="13.8694"/>
	<path class="st8" d="M64.8919,36.8485c-25.5306,22.5509-41.651,55.5109-41.651,92.2531c0,3.7287,0.1944,7.4104,0.5191,11.0547
		h41.1318V36.8485z"/>
</g>
<g>
	<path class="st15" d="M92.8938,272.2761c0,1.3057-0.2041,2.4619-0.6104,3.4688c-0.4082,1.0059-1.001,1.8535-1.7793,2.542
		c-0.7793,0.6895-1.7344,1.2129-2.8662,1.5723s-2.4648,0.5391-3.998,0.5391h-1.9404v7.4219c0,0.1191-0.0391,0.2275-0.1172,0.3232
		s-0.2061,0.1738-0.3857,0.2334c-0.1797,0.0605-0.4199,0.1074-0.7188,0.1436c-0.2998,0.0361-0.6836,0.0537-1.1504,0.0537
		c-0.4551,0-0.8359-0.0176-1.1416-0.0537c-0.3047-0.0361-0.5479-0.083-0.7275-0.1436c-0.1797-0.0596-0.3057-0.1377-0.377-0.2334
		c-0.0723-0.0957-0.1084-0.2041-0.1084-0.3232v-20.916c0-0.5635,0.1475-0.9854,0.4404-1.2676
		c0.2939-0.2813,0.6797-0.4219,1.1592-0.4219h5.4805c0.5508,0,1.0752,0.0205,1.5723,0.0625s1.0928,0.1318,1.7881,0.2695
		c0.6943,0.1387,1.3984,0.3926,2.1113,0.7637c0.7129,0.3721,1.3213,0.8418,1.8242,1.4111s0.8857,1.2334,1.1494,1.9941
		S92.8938,271.3298,92.8938,272.2761z M87.9524,272.6179c0-0.8145-0.1436-1.4854-0.4316-2.0127
		c-0.2871-0.5273-0.6406-0.916-1.0596-1.168c-0.4199-0.252-0.8594-0.4102-1.3213-0.4766c-0.4609-0.0654-0.9375-0.0986-1.4277-0.0986
		h-2.0127v7.8887h2.1201c0.7549,0,1.3867-0.1016,1.8955-0.3057c0.5088-0.2031,0.9258-0.4883,1.249-0.8535
		s0.5693-0.8027,0.7363-1.3115C87.8684,273.7712,87.9524,273.2166,87.9524,272.6179z"/>
	<path class="st15" d="M106.5862,273.3181c0,0.4316-0.0127,0.7852-0.0361,1.0605c-0.0244,0.2754-0.0596,0.4912-0.1074,0.6475
		c-0.0488,0.1553-0.1113,0.2627-0.1895,0.3232c-0.0771,0.0596-0.1768,0.0898-0.2959,0.0898c-0.0957,0-0.2041-0.0215-0.3232-0.0635
		c-0.1201-0.042-0.2549-0.0869-0.4043-0.1348c-0.1504-0.0479-0.3145-0.0928-0.4941-0.1348s-0.3779-0.0625-0.5938-0.0625
		c-0.251,0-0.5029,0.0508-0.7539,0.1523c-0.252,0.1025-0.5127,0.2607-0.7822,0.4766s-0.5508,0.5029-0.8447,0.8623
		c-0.293,0.3594-0.6074,0.8027-0.9434,1.3301v9.9902c0,0.1201-0.0352,0.2246-0.1074,0.3145s-0.1953,0.165-0.3682,0.2246
		c-0.1738,0.0605-0.4043,0.1055-0.6924,0.1348c-0.2871,0.0303-0.6523,0.0449-1.0957,0.0449s-0.8086-0.0146-1.0967-0.0449
		c-0.2871-0.0293-0.5176-0.0742-0.6914-0.1348c-0.1738-0.0596-0.2969-0.1348-0.3682-0.2246
		c-0.0723-0.0898-0.1084-0.1943-0.1084-0.3145v-16.0283c0-0.1191,0.0303-0.2246,0.0898-0.3145
		c0.0605-0.0898,0.168-0.1641,0.3242-0.2246c0.1553-0.0596,0.3555-0.1045,0.6016-0.1348c0.2451-0.0293,0.5537-0.0449,0.9258-0.0449
		c0.3828,0,0.7002,0.0156,0.9521,0.0449c0.252,0.0303,0.4463,0.0752,0.584,0.1348c0.1377,0.0605,0.2363,0.1348,0.2969,0.2246
		c0.0596,0.0898,0.0898,0.1953,0.0898,0.3145v1.9951c0.4189-0.5996,0.8145-1.0938,1.1855-1.4824
		c0.3711-0.3896,0.7246-0.6982,1.0605-0.9258c0.335-0.2275,0.6699-0.3867,1.0059-0.4766c0.335-0.0898,0.6709-0.1348,1.0059-0.1348
		c0.1563,0,0.3242,0.0098,0.5039,0.0273s0.3652,0.0479,0.5566,0.0898s0.3594,0.0898,0.5029,0.1436s0.249,0.1113,0.3145,0.1709
		c0.0664,0.0605,0.1143,0.126,0.1436,0.1973c0.0303,0.0723,0.0576,0.1709,0.0811,0.2969c0.0244,0.126,0.042,0.3145,0.0537,0.5664
		C106.5803,272.5457,106.5862,272.8875,106.5862,273.3181z"/>
	<path class="st15" d="M125.1311,279.6794c0,1.3662-0.1797,2.6123-0.5391,3.7373c-0.3594,1.127-0.9053,2.0967-1.6357,2.9111
		c-0.7305,0.8154-1.6475,1.4443-2.749,1.8867c-1.1025,0.4434-2.3896,0.665-3.8633,0.665c-1.4258,0-2.666-0.1973-3.7197-0.5928
		c-1.0547-0.3955-1.9287-0.9707-2.624-1.7246c-0.6943-0.7549-1.21-1.6836-1.5449-2.7852c-0.3359-1.1025-0.5029-2.3604-0.5029-3.7744
		c0-1.3652,0.1826-2.6143,0.5479-3.7461s0.9131-2.1025,1.6445-2.9111c0.7305-0.8086,1.6436-1.4346,2.7402-1.8779
		c1.0957-0.4424,2.3809-0.665,3.8545-0.665c1.4375,0,2.6826,0.1953,3.7373,0.584c1.0537,0.3896,1.9258,0.9619,2.6143,1.7168
		s1.2012,1.6826,1.5361,2.7852C124.9631,276.99,125.1311,278.2546,125.1311,279.6794z M120.4768,279.8591
		c0-0.79-0.0635-1.5186-0.1885-2.1826c-0.126-0.665-0.3389-1.2432-0.6387-1.7344c-0.2988-0.4912-0.6973-0.874-1.1943-1.1504
		c-0.4971-0.2754-1.123-0.4131-1.8779-0.4131c-0.6709,0-1.2578,0.123-1.7607,0.3682c-0.5029,0.2461-0.917,0.6055-1.2402,1.0781
		c-0.3232,0.4736-0.5654,1.043-0.7275,1.707c-0.1621,0.665-0.2422,1.4229-0.2422,2.2734c0,0.791,0.0654,1.5186,0.1973,2.1836
		c0.1318,0.6641,0.3438,1.2422,0.6377,1.7334s0.6924,0.8721,1.1953,1.1416s1.126,0.4043,1.8682,0.4043
		c0.6836,0,1.2764-0.123,1.7793-0.3682c0.5029-0.2461,0.916-0.6025,1.2402-1.0693c0.3232-0.4678,0.5625-1.0332,0.7188-1.6982
		C120.3987,281.4675,120.4768,280.7097,120.4768,279.8591z"/>
	<path class="st15" d="M138.3743,265.7175c0,0.3477-0.0127,0.626-0.0361,0.8359c-0.0244,0.21-0.0596,0.3711-0.1074,0.4854
		c-0.0488,0.1133-0.1025,0.1914-0.1621,0.2334s-0.126,0.0625-0.1973,0.0625c-0.084,0-0.1768-0.0205-0.2793-0.0625
		c-0.1016-0.042-0.2275-0.0869-0.377-0.1348c-0.1504-0.0479-0.3262-0.0928-0.5303-0.1348s-0.4434-0.0635-0.7188-0.0635
		c-0.3232,0-0.6016,0.0518-0.835,0.1533c-0.2344,0.1016-0.4287,0.2637-0.584,0.4854c-0.1563,0.2217-0.2695,0.5088-0.3418,0.8623
		s-0.1074,0.7881-0.1074,1.3027v1.4736h2.9287c0.1074,0,0.2061,0.0293,0.2959,0.0898c0.0898,0.0596,0.165,0.1582,0.2246,0.2959
		c0.0605,0.1377,0.1055,0.3271,0.1348,0.5664c0.0303,0.2393,0.0449,0.5332,0.0449,0.8799c0,0.6592-0.0596,1.1299-0.1797,1.4111
		c-0.1191,0.2813-0.293,0.4219-0.5205,0.4219h-2.9287v12.9736c0,0.1201-0.0361,0.2246-0.1084,0.3145
		c-0.0713,0.0898-0.1914,0.165-0.3594,0.2246c-0.168,0.0605-0.4014,0.1055-0.7002,0.1348c-0.2998,0.0303-0.665,0.0449-1.0967,0.0449
		c-0.4307,0-0.7939-0.0146-1.0869-0.0449c-0.2939-0.0293-0.5273-0.0742-0.7012-0.1348c-0.1738-0.0596-0.293-0.1348-0.3594-0.2246
		c-0.0654-0.0898-0.0986-0.1943-0.0986-0.3145v-12.9736h-2.0127c-0.2275,0-0.3984-0.1406-0.5117-0.4219
		c-0.1143-0.2813-0.1709-0.752-0.1709-1.4111c0-0.3467,0.0146-0.6406,0.0449-0.8799c0.0293-0.2393,0.0723-0.4287,0.126-0.5664
		s0.126-0.2363,0.2158-0.2959c0.0898-0.0605,0.1943-0.0898,0.3145-0.0898h1.9941v-1.3477c0-1.0898,0.1074-2.0459,0.3232-2.8662
		s0.5547-1.5039,1.0156-2.0488s1.0479-0.9551,1.7607-1.2305s1.5547-0.4141,2.5244-0.4141c0.4678,0,0.9102,0.0391,1.3301,0.1172
		c0.4189,0.0781,0.748,0.1621,0.9883,0.252c0.2393,0.0898,0.4014,0.1738,0.4854,0.251c0.084,0.0781,0.1523,0.1924,0.2061,0.3418
		c0.0547,0.1494,0.0928,0.3418,0.1172,0.5752C138.3616,265.0798,138.3743,265.3699,138.3743,265.7175z"/>
	<path class="st15" d="M154.51,279.3738c0,0.5518-0.123,0.959-0.3682,1.2227s-0.584,0.3945-1.0146,0.3945h-9.7578
		c0,0.6836,0.0811,1.3027,0.2432,1.8604c0.1611,0.5566,0.4189,1.0303,0.7725,1.4199c0.3525,0.3887,0.8086,0.6855,1.3652,0.8887
		c0.5576,0.2041,1.2246,0.3057,2.0039,0.3057c0.79,0,1.4854-0.0566,2.084-0.1709c0.5996-0.1133,1.1172-0.2393,1.5547-0.377
		s0.7998-0.2637,1.0869-0.377c0.2881-0.1143,0.5215-0.1709,0.7012-0.1709c0.1074,0,0.1973,0.0205,0.2695,0.0625
		c0.0713,0.042,0.1318,0.1172,0.1797,0.2246c0.0479,0.1084,0.0811,0.2607,0.0986,0.458c0.0176,0.1982,0.0273,0.4463,0.0273,0.7461
		c0,0.2637-0.0068,0.4883-0.0186,0.6738s-0.0303,0.3447-0.0537,0.4766c-0.0244,0.1318-0.0605,0.2422-0.1074,0.332
		c-0.0488,0.0898-0.1113,0.1768-0.1895,0.2607s-0.29,0.1973-0.6377,0.3408c-0.3477,0.1445-0.791,0.2852-1.3301,0.4229
		s-1.1553,0.2568-1.8506,0.3594c-0.6943,0.1016-1.4375,0.1523-2.2275,0.1523c-1.4258,0-2.6748-0.1797-3.7471-0.5391
		s-1.9678-0.9043-2.6865-1.6348s-1.2549-1.6533-1.6084-2.7676s-0.5293-2.4199-0.5293-3.917c0-1.4258,0.1855-2.71,0.5566-3.8545
		c0.3711-1.1436,0.9102-2.1143,1.6172-2.9111s1.5664-1.4043,2.5791-1.8242c1.0117-0.4189,2.1523-0.6289,3.4229-0.6289
		c1.3408,0,2.4883,0.1982,3.4404,0.5938c0.9531,0.3945,1.7344,0.9434,2.3457,1.6436c0.6104,0.7012,1.0596,1.5303,1.3477,2.4893
		c0.2871,0.958,0.4307,2.001,0.4307,3.126V279.3738z M150.1262,278.0808c0.0352-1.2705-0.2188-2.2676-0.7637-2.9922
		c-0.5459-0.7246-1.3867-1.0869-2.5254-1.0869c-0.5742,0-1.0752,0.1074-1.5,0.3232c-0.4258,0.2158-0.7793,0.5059-1.0605,0.8711
		c-0.2813,0.3662-0.4971,0.7969-0.6465,1.2939c-0.1504,0.4971-0.2363,1.0273-0.2607,1.5908H150.1262z"/>
	<path class="st15" d="M169.5139,283.3269c0,0.9111-0.1709,1.7139-0.5127,2.4082c-0.3408,0.6953-0.8232,1.2764-1.4463,1.7432
		s-1.3594,0.8174-2.21,1.0508c-0.8506,0.2344-1.7734,0.3506-2.7676,0.3506c-0.5986,0-1.1709-0.0449-1.7158-0.1348
		s-1.0332-0.2041-1.4648-0.3408c-0.4307-0.1377-0.79-0.2793-1.0781-0.4229c-0.2871-0.1436-0.4971-0.2783-0.6289-0.4043
		s-0.2334-0.3232-0.3047-0.5928c-0.0723-0.2695-0.1084-0.668-0.1084-1.1953c0-0.3467,0.0117-0.626,0.0361-0.835
		c0.0234-0.21,0.0596-0.3779,0.1074-0.5029c0.0479-0.126,0.1084-0.21,0.1797-0.252c0.0723-0.042,0.1621-0.0625,0.2695-0.0625
		c0.1318,0,0.3271,0.0742,0.584,0.2246c0.2578,0.1494,0.5781,0.3145,0.9619,0.4941c0.3828,0.1797,0.8291,0.3467,1.3389,0.5029
		c0.5088,0.1553,1.0869,0.2334,1.7334,0.2334c0.4072,0,0.7695-0.042,1.0879-0.126c0.3164-0.084,0.5928-0.2031,0.8262-0.3594
		c0.2334-0.1553,0.4102-0.3535,0.5303-0.5928c0.1191-0.2393,0.1797-0.5146,0.1797-0.8262c0-0.3604-0.1113-0.668-0.333-0.9258
		s-0.5146-0.4824-0.8799-0.6738c-0.3662-0.1914-0.7793-0.3711-1.2402-0.5391s-0.9346-0.3535-1.4189-0.5576
		c-0.4854-0.2031-0.959-0.4365-1.4199-0.7002s-0.875-0.5869-1.2402-0.9707c-0.3652-0.3828-0.6592-0.8447-0.8799-1.3838
		c-0.2217-0.5391-0.333-1.1855-0.333-1.9404c0-0.7666,0.1494-1.4707,0.4492-2.1113s0.7305-1.1885,1.2939-1.6445
		c0.5635-0.4551,1.249-0.8086,2.0576-1.0596c0.8086-0.252,1.7158-0.3779,2.7227-0.3779c0.5029,0,0.9902,0.0361,1.4639,0.1084
		c0.4736,0.0713,0.9014,0.1611,1.2852,0.2695c0.3828,0.1074,0.7061,0.2246,0.9697,0.3506c0.2637,0.125,0.4521,0.2334,0.5664,0.3232
		c0.1133,0.0898,0.1943,0.1797,0.2422,0.2695s0.084,0.1973,0.1084,0.3232c0.0234,0.126,0.0449,0.2813,0.0625,0.4668
		c0.0186,0.1865,0.0273,0.417,0.0273,0.6924c0,0.3232-0.0088,0.5869-0.0273,0.791c-0.0176,0.2031-0.0479,0.3652-0.0898,0.4844
		c-0.042,0.1201-0.0986,0.2012-0.1709,0.2432c-0.0713,0.042-0.1553,0.0625-0.251,0.0625c-0.1084,0-0.2754-0.0625-0.5029-0.1885
		c-0.2285-0.126-0.5127-0.2607-0.8535-0.4043c-0.3418-0.1436-0.7373-0.2783-1.1865-0.4043s-0.9609-0.1885-1.5361-0.1885
		c-0.4072,0-0.7607,0.042-1.0605,0.126c-0.2988,0.083-0.5449,0.2031-0.7363,0.3594c-0.1914,0.1553-0.3359,0.3379-0.4316,0.5479
		c-0.0957,0.209-0.1436,0.4336-0.1436,0.6738c0,0.3711,0.1143,0.6826,0.3418,0.9346c0.2275,0.251,0.5264,0.4727,0.8984,0.6641
		c0.3711,0.1924,0.793,0.3721,1.2666,0.5391c0.4727,0.168,0.9521,0.3506,1.4375,0.5488c0.4854,0.1973,0.9639,0.4277,1.4375,0.6914
		c0.4727,0.2637,0.8955,0.5869,1.2666,0.9707c0.3711,0.3828,0.6709,0.8418,0.8984,1.374
		C169.3996,281.9646,169.5139,282.5964,169.5139,283.3269z"/>
	<path class="st15" d="M184.1955,283.3269c0,0.9111-0.1709,1.7139-0.5127,2.4082c-0.3408,0.6953-0.8232,1.2764-1.4463,1.7432
		s-1.3594,0.8174-2.21,1.0508c-0.8506,0.2344-1.7734,0.3506-2.7676,0.3506c-0.5986,0-1.1709-0.0449-1.7158-0.1348
		s-1.0332-0.2041-1.4648-0.3408c-0.4307-0.1377-0.79-0.2793-1.0781-0.4229c-0.2871-0.1436-0.4971-0.2783-0.6289-0.4043
		s-0.2334-0.3232-0.3047-0.5928c-0.0723-0.2695-0.1084-0.668-0.1084-1.1953c0-0.3467,0.0117-0.626,0.0361-0.835
		c0.0234-0.21,0.0596-0.3779,0.1074-0.5029c0.0479-0.126,0.1084-0.21,0.1797-0.252c0.0723-0.042,0.1621-0.0625,0.2695-0.0625
		c0.1318,0,0.3271,0.0742,0.584,0.2246c0.2578,0.1494,0.5781,0.3145,0.9619,0.4941c0.3828,0.1797,0.8291,0.3467,1.3389,0.5029
		c0.5088,0.1553,1.0869,0.2334,1.7334,0.2334c0.4072,0,0.7695-0.042,1.0879-0.126c0.3164-0.084,0.5928-0.2031,0.8262-0.3594
		c0.2334-0.1553,0.4102-0.3535,0.5303-0.5928c0.1191-0.2393,0.1797-0.5146,0.1797-0.8262c0-0.3604-0.1113-0.668-0.333-0.9258
		s-0.5146-0.4824-0.8799-0.6738c-0.3662-0.1914-0.7793-0.3711-1.2402-0.5391s-0.9346-0.3535-1.4189-0.5576
		c-0.4854-0.2031-0.959-0.4365-1.4199-0.7002s-0.875-0.5869-1.2402-0.9707c-0.3652-0.3828-0.6592-0.8447-0.8799-1.3838
		c-0.2217-0.5391-0.333-1.1855-0.333-1.9404c0-0.7666,0.1494-1.4707,0.4492-2.1113s0.7305-1.1885,1.2939-1.6445
		c0.5635-0.4551,1.249-0.8086,2.0576-1.0596c0.8086-0.252,1.7158-0.3779,2.7227-0.3779c0.5029,0,0.9902,0.0361,1.4639,0.1084
		c0.4736,0.0713,0.9014,0.1611,1.2852,0.2695c0.3828,0.1074,0.7061,0.2246,0.9697,0.3506c0.2637,0.125,0.4521,0.2334,0.5664,0.3232
		c0.1133,0.0898,0.1943,0.1797,0.2422,0.2695s0.084,0.1973,0.1084,0.3232c0.0234,0.126,0.0449,0.2813,0.0625,0.4668
		c0.0186,0.1865,0.0273,0.417,0.0273,0.6924c0,0.3232-0.0088,0.5869-0.0273,0.791c-0.0176,0.2031-0.0479,0.3652-0.0898,0.4844
		c-0.042,0.1201-0.0986,0.2012-0.1709,0.2432c-0.0713,0.042-0.1553,0.0625-0.251,0.0625c-0.1084,0-0.2754-0.0625-0.5029-0.1885
		c-0.2285-0.126-0.5127-0.2607-0.8535-0.4043c-0.3418-0.1436-0.7373-0.2783-1.1865-0.4043s-0.9609-0.1885-1.5361-0.1885
		c-0.4072,0-0.7607,0.042-1.0605,0.126c-0.2988,0.083-0.5449,0.2031-0.7363,0.3594c-0.1914,0.1553-0.3359,0.3379-0.4316,0.5479
		c-0.0957,0.209-0.1436,0.4336-0.1436,0.6738c0,0.3711,0.1143,0.6826,0.3418,0.9346c0.2275,0.251,0.5264,0.4727,0.8984,0.6641
		c0.3711,0.1924,0.793,0.3721,1.2666,0.5391c0.4727,0.168,0.9521,0.3506,1.4375,0.5488c0.4854,0.1973,0.9639,0.4277,1.4375,0.6914
		c0.4727,0.2637,0.8955,0.5869,1.2666,0.9707c0.3711,0.3828,0.6709,0.8418,0.8984,1.374
		C184.0813,281.9646,184.1955,282.5964,184.1955,283.3269z"/>
	<path class="st15" d="M203.8,279.6794c0,1.3662-0.1797,2.6123-0.5391,3.7373c-0.3594,1.127-0.9053,2.0967-1.6357,2.9111
		c-0.7305,0.8154-1.6475,1.4443-2.749,1.8867c-1.1025,0.4434-2.3896,0.665-3.8633,0.665c-1.4258,0-2.666-0.1973-3.7197-0.5928
		c-1.0547-0.3955-1.9287-0.9707-2.624-1.7246c-0.6943-0.7549-1.21-1.6836-1.5449-2.7852c-0.3359-1.1025-0.5029-2.3604-0.5029-3.7744
		c0-1.3652,0.1826-2.6143,0.5479-3.7461s0.9131-2.1025,1.6445-2.9111c0.7305-0.8086,1.6436-1.4346,2.7402-1.8779
		c1.0957-0.4424,2.3809-0.665,3.8545-0.665c1.4375,0,2.6826,0.1953,3.7373,0.584c1.0537,0.3896,1.9258,0.9619,2.6143,1.7168
		s1.2012,1.6826,1.5361,2.7852C203.6321,276.99,203.8,278.2546,203.8,279.6794z M199.1457,279.8591
		c0-0.79-0.0635-1.5186-0.1885-2.1826c-0.126-0.665-0.3389-1.2432-0.6387-1.7344c-0.2988-0.4912-0.6973-0.874-1.1943-1.1504
		c-0.4971-0.2754-1.123-0.4131-1.8779-0.4131c-0.6709,0-1.2578,0.123-1.7607,0.3682c-0.5029,0.2461-0.917,0.6055-1.2402,1.0781
		c-0.3232,0.4736-0.5654,1.043-0.7275,1.707c-0.1621,0.665-0.2422,1.4229-0.2422,2.2734c0,0.791,0.0654,1.5186,0.1973,2.1836
		c0.1318,0.6641,0.3438,1.2422,0.6377,1.7334s0.6924,0.8721,1.1953,1.1416s1.126,0.4043,1.8682,0.4043
		c0.6836,0,1.2764-0.123,1.7793-0.3682c0.5029-0.2461,0.916-0.6025,1.2402-1.0693c0.3232-0.4678,0.5625-1.0332,0.7188-1.6982
		C199.0676,281.4675,199.1457,280.7097,199.1457,279.8591z"/>
	<path class="st15" d="M217.6711,273.3181c0,0.4316-0.0127,0.7852-0.0361,1.0605c-0.0244,0.2754-0.0596,0.4912-0.1074,0.6475
		c-0.0488,0.1553-0.1113,0.2627-0.1895,0.3232c-0.0771,0.0596-0.1768,0.0898-0.2959,0.0898c-0.0957,0-0.2041-0.0215-0.3232-0.0635
		c-0.1201-0.042-0.2549-0.0869-0.4043-0.1348c-0.1504-0.0479-0.3145-0.0928-0.4941-0.1348s-0.3779-0.0625-0.5938-0.0625
		c-0.251,0-0.5029,0.0508-0.7539,0.1523c-0.252,0.1025-0.5127,0.2607-0.7822,0.4766s-0.5508,0.5029-0.8447,0.8623
		c-0.293,0.3594-0.6074,0.8027-0.9434,1.3301v9.9902c0,0.1201-0.0352,0.2246-0.1074,0.3145s-0.1953,0.165-0.3682,0.2246
		c-0.1738,0.0605-0.4043,0.1055-0.6924,0.1348c-0.2871,0.0303-0.6523,0.0449-1.0957,0.0449s-0.8086-0.0146-1.0967-0.0449
		c-0.2871-0.0293-0.5176-0.0742-0.6914-0.1348c-0.1738-0.0596-0.2969-0.1348-0.3682-0.2246
		c-0.0723-0.0898-0.1084-0.1943-0.1084-0.3145v-16.0283c0-0.1191,0.0303-0.2246,0.0898-0.3145
		c0.0605-0.0898,0.168-0.1641,0.3242-0.2246c0.1553-0.0596,0.3555-0.1045,0.6016-0.1348c0.2451-0.0293,0.5537-0.0449,0.9258-0.0449
		c0.3828,0,0.7002,0.0156,0.9521,0.0449c0.252,0.0303,0.4463,0.0752,0.584,0.1348c0.1377,0.0605,0.2363,0.1348,0.2969,0.2246
		c0.0596,0.0898,0.0898,0.1953,0.0898,0.3145v1.9951c0.4189-0.5996,0.8145-1.0938,1.1855-1.4824
		c0.3711-0.3896,0.7246-0.6982,1.0605-0.9258c0.335-0.2275,0.6699-0.3867,1.0059-0.4766c0.335-0.0898,0.6709-0.1348,1.0059-0.1348
		c0.1563,0,0.3242,0.0098,0.5039,0.0273s0.3652,0.0479,0.5566,0.0898s0.3594,0.0898,0.5029,0.1436s0.249,0.1113,0.3145,0.1709
		c0.0664,0.0605,0.1143,0.126,0.1436,0.1973c0.0303,0.0723,0.0576,0.1709,0.0811,0.2969c0.0244,0.126,0.042,0.3145,0.0537,0.5664
		C217.6653,272.5457,217.6711,272.8875,217.6711,273.3181z"/>
</g>
</svg>
