<?xml version="1.0" encoding="utf-8"?>
<!-- Generator: Adobe Illustrator 24.3.0, SVG Export Plug-In . SVG Version: 6.00 Build 0)  -->
<svg version="1.1" id="Camada_1" xmlns="http://www.w3.org/2000/svg" xmlns:xlink="http://www.w3.org/1999/xlink" x="0px" y="0px"
	 viewBox="0 0 292.631 296" style="enable-background:new 0 0 292.631 296;" xml:space="preserve">
<style type="text/css">
	.st0{fill:#FFCF8C;}
	.st1{fill:#F6C3AC;}
	.st2{fill:#EA6F42;}
	.st3{fill:#DB9880;}
	.st4{fill:#ED8045;}
	.st5{fill:#FFFFFF;}
	.st6{fill:#F9BF7A;}
	.st7{fill:#2CBA8D;}
	.st8{fill:#F6BFA3;}
	.st9{fill:#E4EBF0;}
	.st10{fill:#E29F81;}
	.st11{fill:#44261B;}
	.st12{fill:#B9C2C8;}
	.st13{fill:#404040;}
	.st14{fill:#1DA074;}
</style>
<circle class="st0" cx="146.108" cy="148.05" r="144.288"/>
<path class="st1" d="M204.572,238.779l-36.786-19.901v-8.223h-31.504v0.927v7.413L91.529,238.95
	c-2.359,0.878-4.236,2.714-5.164,5.054l-2.944,27.329l130.209-5.91l-4.205-21.326C208.637,241.715,206.872,239.781,204.572,238.779z
	"/>
<circle class="st2" cx="182.928" cy="64.347" r="25.066"/>
<path class="st3" d="M136.703,209.536l-0.122,4.961c0,0,6.069,7.418,15.367,7.418s15.476-8.148,15.476-8.148v-4.892h-30.33
	L136.703,209.536z"/>
<path class="st1" d="M203.686,159.645c0-22.859-6.741-43.643-12.138-65.333c-10.822-2.407-25.146-1.745-41.251-1.477
	c-16.105-0.268-30.43-0.93-41.251,1.477c-5.397,21.69-12.138,42.475-12.138,65.333c0,6.693,26.248,55.722,52.558,57.745v0.097
	c0.277,0,0.555-0.037,0.832-0.048c0.277,0.011,0.554,0.048,0.832,0.048v-0.097C177.438,215.367,203.686,166.337,203.686,159.645z"/>
<path class="st4" d="M95.509,155.989c0,0-22.5-62.983,21.162-83.224c0,0,22.972-27.09,62.716-7.343
	c31.556,15.679,37.113,54.181,24.213,95.588l-16.244-23.232c0,0-60.571-11.085-73.24-38.401c0,0-18.792,35.505-17.209,61.633"/>
<path class="st5" d="M135.96,292.338c30.232,0,61.166-3.112,83.552-20.045l-10.088-28.197c-0.788-2.382-2.553-4.316-4.852-5.318
	l-13.138-7.107c0,0-19.472,37.123-41.542,37.123s-42.04-37.123-42.04-37.123l-16.323,7.279c-2.359,0.878-4.236,2.714-5.164,5.054
	L74.257,273.2C93.045,283.286,113.143,292.338,135.96,292.338z"/>
<rect x="31.082" y="111.447" transform="matrix(0.9532 -0.3025 0.3025 0.9532 -35.0112 21.0146)" class="st6" width="38.519" height="24.196"/>
<rect x="219.641" y="207.669" transform="matrix(0.9991 0.0423 -0.0423 0.9991 9.3168 -9.6163)" class="st6" width="24.599" height="15.452"/>
<rect x="61.314" y="191.453" transform="matrix(0.9691 0.2467 -0.2467 0.9691 51.5325 -12.1504)" class="st6" width="25.885" height="16.26"/>
<path class="st6" d="M241.566,39.896c29.931,26.438,48.83,65.079,48.83,108.154c0,4.371-0.228,8.688-0.609,12.96h-48.221V39.896z"/>
</svg>
