<?xml version="1.0" encoding="utf-8"?>
<!-- Generator: Adobe Illustrator 24.3.0, SVG Export Plug-In . SVG Version: 6.00 Build 0)  -->
<svg version="1.1" id="Camada_1" xmlns="http://www.w3.org/2000/svg" xmlns:xlink="http://www.w3.org/1999/xlink" x="0px" y="0px"
	 viewBox="0 0 292.631 296" style="enable-background:new 0 0 292.631 296;" xml:space="preserve">
<style type="text/css">
	.st0{fill:#FFCF8C;}
	.st1{fill:#F6C3AC;}
	.st2{fill:#EA6F42;}
	.st3{fill:#DB9880;}
	.st4{fill:#ED8045;}
	.st5{fill:#FFFFFF;}
	.st6{fill:#F9BF7A;}
	.st7{fill:#2CBA8D;}
	.st8{fill:#F6BFA3;}
	.st9{fill:#E4EBF0;}
	.st10{fill:#E29F81;}
	.st11{fill:#44261B;}
	.st12{fill:#B9C2C8;}
	.st13{fill:#404040;}
	.st14{fill:#1DA074;}
</style>
<g>
	<circle class="st7" cx="146.316" cy="148.05" r="145.023"/>
	<path class="st8" d="M124.396,207.413v11.899l-23.985,8.925c0,0,20.824,26.588,47.411,26.588s45.552-26.959,45.552-26.959
		l-18.407-8.739v-13.201h-50.572V207.413z"/>
	<path class="st5" d="M146.316,293.074c36.642,0,70.084-13.618,95.613-36.031l-1.002-6.434c-0.479-3.078-2.603-5.646-5.536-6.695
		l-57.55-23.608c4.048,2.187,9.764,7.894-1.527,20.759c-7.308,8.326-35.409,9.315-44.235,2.619
		c-19.57-14.846-15.155-20.904-10.997-23.163L56.819,243.93c-2.905,1.038-5.009,3.582-5.483,6.631l-0.964,6.195
		C75.942,279.341,109.516,293.074,146.316,293.074z"/>
	<path class="st9" d="M121.081,220.52l3.315-1.208C124.396,219.313,122.76,219.608,121.081,220.52z"/>
	<path class="st9" d="M177.841,220.305c-1.556-0.841-2.873-1.178-2.873-1.178L177.841,220.305z"/>
	<path class="st10" d="M124.596,208.622l-0.2,8.134c0,0,9.951,12.163,25.197,12.163c15.246,0,25.375-13.361,25.375-13.361v-8.021
		h-49.731L124.596,208.622z"/>
	<path class="st8" d="M150.244,82.857c-47.597-0.744-56.274-9.42-55.283,72.14c0.496,40.78,27.889,67.228,55.282,67.228
		c27.393,0,54.787-26.448,55.282-67.228C206.518,73.437,197.842,82.114,150.244,82.857z"/>
	<path class="st11" d="M150.905,101.497c8.801,0,22.187-6.198,37.805-5.702c15.618,0.496,16.362,61.604,16.362,61.604
		s27.665-95.319-12.643-95.319c0,0-12.395-15.494-41.524-15.494c-73.26,0-69.289,71.954-54.167,110.813
		c0,0,0.744-61.108,16.362-61.604C128.718,95.299,142.104,101.497,150.905,101.497"/>
	<path class="st12" d="M154.132,248.009c6.148-2.085,27.002-12.921,24.902-29.172c6.277,7.093,11.362,28.894-6.968,44.454
		C166.983,255.928,159.421,250.244,154.132,248.009z"/>
	<path class="st12" d="M145.103,248.009c-6.148-2.085-27.002-12.921-24.902-29.172c-6.277,7.093-11.362,28.894,6.968,44.454
		C132.253,255.928,139.815,250.244,145.103,248.009z"/>
	<g>
		<path class="st13" d="M155.69,142.677c-0.728-0.84-2.401-0.983-5.452-0.983v-2.641c2.845,0,6.392,0,8.291,2.098L155.69,142.677z"
			/>
		<g>
			<path class="st13" d="M196.968,155.63h-31.426c-6.035,0-7.933-7.722-9.866-12.305c-0.682-1.605-0.132-3.541,1.429-5.188
				c1.859-1.975,4.751-3.071,7.928-3.071h31.657c2.733,0,5.003,0.646,6.531,1.87c1.747,1.432,2.541,3.537,2.349,6.267
				C205.002,151.223,201.945,155.63,196.968,155.63z M165.034,137.71c-2.065,0-3.924,0.708-5.136,1.958
				c-0.886,0.95-1.264,2.052-0.933,2.826c3.024,7.246,4.381,10.489,6.578,10.489h31.426c3.289,0,4.818-5.122,5.155-9.946
				c0.146-1.968-0.337-3.395-1.403-4.272c-0.887-0.705-2.237-1.055-4.03-1.055H165.034z"/>
			<path class="st13" d="M134.938,155.63h-31.419c-4.97,0-8.02-4.407-8.589-12.427c-0.196-2.729,0.592-4.834,2.343-6.267
				c1.542-1.224,3.795-1.87,6.531-1.87h31.657c3.189,0,6.068,1.096,7.921,3.071c1.588,1.647,2.098,3.583,1.437,5.188
				C142.893,147.908,140.986,155.63,134.938,155.63z M103.804,137.71c-1.793,0-3.163,0.35-4.03,1.055
				c-1.065,0.877-1.529,2.303-1.403,4.272c0.337,4.824,1.886,9.946,5.148,9.946h31.419c2.21,0,3.56-3.242,6.605-10.489
				c0.304-0.774-0.047-1.876-0.947-2.826c-1.211-1.25-3.077-1.958-5.135-1.958H103.804z"/>
			<path class="st13" d="M144.785,142.677l-2.826-1.525c1.912-2.098,5.453-2.098,8.278-2.098v2.641
				C147.22,141.694,145.533,141.836,144.785,142.677z"/>
		</g>
	</g>
	
		<rect x="237.056" y="160.916" transform="matrix(0.9532 -0.3025 0.3025 0.9532 -40.34 85.6669)" class="st14" width="38.716" height="24.319"/>
	
		<rect x="29.645" y="174.056" transform="matrix(0.9991 0.0423 -0.0423 0.9991 7.727 -1.6138)" class="st14" width="24.724" height="15.53"/>
	
		<rect x="231.344" y="126.895" transform="matrix(0.9691 0.2467 -0.2467 0.9691 40.8736 -56.1073)" class="st14" width="26.017" height="16.343"/>
	<path class="st14" d="M50.371,39.345C20.287,65.918,1.292,104.756,1.292,148.05c0,4.394,0.229,8.732,0.612,13.026h48.467V39.345z"
		/>
</g>
</svg>
