<?xml version="1.0" encoding="utf-8"?>
<!-- Generator: Adobe Illustrator 24.3.0, SVG Export Plug-In . SVG Version: 6.00 Build 0)  -->
<svg version="1.1" id="Camada_1" xmlns="http://www.w3.org/2000/svg" xmlns:xlink="http://www.w3.org/1999/xlink" x="0px" y="0px"
	 viewBox="0 0 292.6314 296.0001" style="enable-background:new 0 0 292.6314 296.0001;" xml:space="preserve">
<style type="text/css">
	.st0{fill:#2CBA8D;}
	.st1{fill:#F6BFA3;}
	.st2{fill:#FFFFFF;}
	.st3{fill:#E4EBF0;}
	.st4{fill:#E29F81;}
	.st5{fill:#44261B;}
	.st6{fill:#B9C2C8;}
	.st7{fill:#404040;}
	.st8{fill:#1DA074;}
	.st9{fill:#FFCF8C;}
	.st10{fill:#F6C3AC;}
	.st11{fill:#EA6F42;}
	.st12{fill:#DB9880;}
	.st13{fill:#ED8045;}
	.st14{fill:#F9BF7A;}
	.st15{fill:#727D83;}
</style>
<g>
	<circle class="st9" cx="146.3157" cy="129.1017" r="122.4506"/>
	<path class="st10" d="M195.9315,206.0986l-31.2188-16.8887v-6.9788h-26.7358v0.7863v6.2908l-37.9803,16.9356
		c-2.002,0.7449-3.5945,2.3036-4.3822,4.2892l-2.4985,23.1928l110.5022-5.0153l-3.5688-18.0988
		C199.3808,208.5904,197.8833,206.9492,195.9315,206.0986z"/>
	<circle class="st11" cx="177.563" cy="58.0667" r="21.2725"/>
	<path class="st12" d="M138.3344,181.2819l-0.1035,4.2102c0,0,5.1505,6.2952,13.0416,6.2952c7.891,0,13.1336-6.9153,13.1336-6.9153
		v-4.1514h-25.74L138.3344,181.2819z"/>
	<path class="st10" d="M195.1793,138.9411c0-19.3993-5.7204-37.0378-10.3009-55.4454c-9.1838-2.0427-21.3403-1.4809-35.008-1.2538
		c-13.6677-0.2272-25.8243-0.7889-35.0082,1.2538c-4.5805,18.4077-10.3009,36.0462-10.3009,55.4454
		c0,5.6798,22.2751,47.289,44.6031,49.0055v0.0821c0.2353,0,0.4706-0.0318,0.706-0.0411c0.2353,0.0092,0.4704,0.0411,0.7058,0.0411
		v-0.0821C172.9041,186.2301,195.1793,144.6208,195.1793,138.9411z"/>
	<path class="st13" d="M103.3746,135.839c0,0-19.095-53.4505,17.9595-70.6282c0,0,19.4955-22.99,53.2238-6.2319
		c26.7803,13.3059,31.4964,45.9813,20.5484,81.1213l-13.7858-19.716c0,0-51.404-9.4073-62.1551-32.5894
		c0,0-15.948,30.1312-14.6041,52.3054"/>
	<path class="st2" d="M137.7036,251.5521c25.6565,0,51.909-2.641,70.9068-17.0111l-8.561-23.9293
		c-0.6687-2.0215-2.1662-3.6627-4.1181-4.5134l-11.1497-6.0316c0,0-16.5253,31.5042-35.2549,31.5042
		s-35.6773-31.5042-35.6773-31.5042l-13.8529,6.1771c-2.002,0.745-3.5945,2.3036-4.3821,4.2891l-10.2756,24.7775
		C101.2838,243.8699,118.3397,251.5521,137.7036,251.5521z"/>
	
		<rect x="48.6988" y="98.0378" transform="matrix(0.9532 -0.3025 0.3025 0.9532 -29.7129 24.7475)" class="st14" width="32.6895" height="20.534"/>
	
		<rect x="208.7201" y="179.6973" transform="matrix(0.9991 0.0423 -0.0423 0.9991 8.0729 -9.1018)" class="st14" width="20.8758" height="13.1132"/>
	
		<rect x="74.3549" y="165.9356" transform="matrix(0.9691 0.2467 -0.2467 0.9691 45.2763 -15.7111)" class="st14" width="21.9678" height="13.7991"/>
	<path class="st14" d="M227.3265,37.3163c25.4012,22.4365,41.4397,55.2294,41.4397,91.7852c0,3.7098-0.1934,7.3728-0.5165,10.9986
		h-40.9232V37.3163z"/>
</g>
<g>
	<path class="st15" d="M122.5867,286.7058c0.1436,0.4307,0.2334,0.7725,0.2695,1.0244c0.0361,0.251-0.0127,0.4395-0.1436,0.5654
		c-0.1318,0.126-0.3662,0.2041-0.7012,0.2334c-0.3359,0.0303-0.7969,0.0449-1.3838,0.0449c-0.6104,0-1.0869-0.0088-1.4287-0.0264
		c-0.3408-0.0186-0.6016-0.0537-0.7813-0.1084c-0.1797-0.0537-0.3057-0.1279-0.377-0.2246
		c-0.0723-0.0957-0.1328-0.2207-0.1797-0.377l-1.5635-4.6719h-8.7334l-1.4736,4.5459c-0.0479,0.168-0.1104,0.3086-0.1885,0.4229
		c-0.0781,0.1133-0.2041,0.2031-0.377,0.2695c-0.1738,0.0654-0.4199,0.1104-0.7373,0.1348
		c-0.3174,0.0234-0.7334,0.0352-1.249,0.0352c-0.5508,0-0.9824-0.0176-1.293-0.0537c-0.3125-0.0361-0.5273-0.1221-0.6475-0.2607
		c-0.1201-0.1367-0.1611-0.332-0.126-0.584c0.0361-0.251,0.126-0.5869,0.2695-1.0059l7.1699-20.6289
		c0.0723-0.2031,0.1553-0.3682,0.252-0.4941c0.0957-0.125,0.248-0.2217,0.458-0.2871c0.209-0.0654,0.5-0.1074,0.8711-0.126
		c0.3711-0.0176,0.8633-0.0264,1.4736-0.0264c0.707,0,1.2695,0.0088,1.6895,0.0264c0.4189,0.0186,0.7451,0.0605,0.9795,0.126
		c0.2334,0.0654,0.4014,0.165,0.5029,0.2969s0.1885,0.3115,0.2607,0.5391L122.5867,286.7058z M111.9129,269.6531h-0.0176
		l-3.2891,9.8828h6.5947L111.9129,269.6531z"/>
	<path class="st15" d="M130.0975,287.8552c0,0.1201-0.0352,0.2246-0.1074,0.3145s-0.1953,0.165-0.3682,0.2246
		c-0.1738,0.0605-0.4043,0.1055-0.6924,0.1348c-0.2871,0.0303-0.6523,0.0449-1.0957,0.0449s-0.8086-0.0146-1.0967-0.0449
		c-0.2871-0.0293-0.5176-0.0742-0.6914-0.1348c-0.1738-0.0596-0.2969-0.1348-0.3682-0.2246
		c-0.0723-0.0898-0.1084-0.1943-0.1084-0.3145v-23.6289c0-0.1201,0.0361-0.2275,0.1084-0.3232
		c0.0713-0.0957,0.1943-0.1768,0.3682-0.2432c0.1738-0.0654,0.4043-0.1162,0.6914-0.1523c0.2881-0.0361,0.6533-0.0537,1.0967-0.0537
		s0.8086,0.0176,1.0957,0.0537c0.2881,0.0361,0.5186,0.0869,0.6924,0.1523c0.1729,0.0664,0.2959,0.1475,0.3682,0.2432
		s0.1074,0.2031,0.1074,0.3232V287.8552z"/>
	<path class="st15" d="M149.8094,287.8552c0,0.1201-0.0303,0.2246-0.0898,0.3145s-0.165,0.165-0.3145,0.2246
		c-0.1494,0.0605-0.3477,0.1055-0.5928,0.1348c-0.2461,0.0303-0.5547,0.0449-0.9258,0.0449c-0.3945,0-0.7158-0.0146-0.9609-0.0449
		c-0.2461-0.0293-0.4404-0.0742-0.584-0.1348c-0.1436-0.0596-0.2461-0.1348-0.3057-0.2246s-0.0898-0.1943-0.0898-0.3145v-1.8506
		c-0.8867,0.959-1.7881,1.6777-2.7041,2.1563c-0.917,0.4795-1.8662,0.7188-2.8486,0.7188c-1.1016,0-2.0273-0.1797-2.7754-0.5391
		c-0.749-0.3594-1.3545-0.8506-1.8154-1.4736c-0.4609-0.6221-0.791-1.3438-0.9883-2.165c-0.1973-0.8203-0.2969-1.8418-0.2969-3.0635
		v-9.8115c0-0.1191,0.0332-0.2246,0.0996-0.3145c0.0654-0.0898,0.1855-0.1641,0.3594-0.2246
		c0.1729-0.0596,0.4072-0.1045,0.7002-0.1348c0.2939-0.0293,0.6563-0.0449,1.0869-0.0449c0.4434,0,0.8096,0.0156,1.0967,0.0449
		c0.2871,0.0303,0.5176,0.0752,0.6914,0.1348c0.1738,0.0605,0.2969,0.1348,0.3691,0.2246c0.0713,0.0898,0.1074,0.1953,0.1074,0.3145
		v9.0566c0,0.8389,0.0537,1.4795,0.1621,1.9229c0.1074,0.4434,0.2715,0.8232,0.4941,1.1406
		c0.2207,0.3174,0.5029,0.5635,0.8438,0.7373c0.3418,0.1738,0.7402,0.2607,1.1953,0.2607c0.5752,0,1.1523-0.21,1.7344-0.6289
		c0.5801-0.4199,1.2002-1.0303,1.8594-1.833v-10.6563c0-0.1191,0.0332-0.2246,0.0986-0.3145
		c0.0664-0.0898,0.1855-0.1641,0.3594-0.2246c0.1738-0.0596,0.4043-0.1045,0.6924-0.1348c0.2871-0.0293,0.6523-0.0449,1.0957-0.0449
		s0.8086,0.0156,1.0967,0.0449c0.2871,0.0303,0.5146,0.0752,0.6826,0.1348c0.167,0.0605,0.2871,0.1348,0.3594,0.2246
		c0.0713,0.0898,0.1074,0.1953,0.1074,0.3145V287.8552z"/>
	<path class="st15" d="M169.6658,287.8552c0,0.1201-0.0361,0.2246-0.1084,0.3145c-0.0713,0.0898-0.1914,0.165-0.3594,0.2246
		c-0.168,0.0605-0.3984,0.1055-0.6914,0.1348c-0.2939,0.0303-0.6563,0.0449-1.0869,0.0449c-0.4434,0-0.8125-0.0146-1.1055-0.0449
		c-0.2939-0.0293-0.5244-0.0742-0.6924-0.1348c-0.167-0.0596-0.2871-0.1348-0.3594-0.2246
		c-0.0713-0.0898-0.1074-0.1943-0.1074-0.3145v-9.1455c0-0.7793-0.0566-1.3896-0.1709-1.833
		c-0.1133-0.4434-0.2783-0.8232-0.4941-1.1416c-0.2158-0.3174-0.4941-0.5625-0.835-0.7363
		c-0.3418-0.1738-0.7402-0.2607-1.1953-0.2607c-0.5752,0-1.1563,0.21-1.7432,0.6289c-0.5869,0.4199-1.1982,1.0303-1.833,1.833
		v10.6553c0,0.1201-0.0352,0.2246-0.1074,0.3145s-0.1953,0.165-0.3682,0.2246c-0.1738,0.0605-0.4043,0.1055-0.6924,0.1348
		c-0.2871,0.0303-0.6523,0.0449-1.0957,0.0449s-0.8086-0.0146-1.0967-0.0449c-0.2871-0.0293-0.5176-0.0742-0.6914-0.1348
		c-0.1738-0.0596-0.2969-0.1348-0.3682-0.2246c-0.0723-0.0898-0.1084-0.1943-0.1084-0.3145v-16.0283
		c0-0.1191,0.0303-0.2246,0.0898-0.3145c0.0605-0.0898,0.168-0.1641,0.3242-0.2246c0.1553-0.0596,0.3555-0.1045,0.6016-0.1348
		c0.2451-0.0293,0.5537-0.0449,0.9258-0.0449c0.3828,0,0.7002,0.0156,0.9521,0.0449c0.252,0.0303,0.4463,0.0752,0.584,0.1348
		c0.1377,0.0605,0.2363,0.1348,0.2969,0.2246c0.0596,0.0898,0.0898,0.1953,0.0898,0.3145v1.8516
		c0.8857-0.959,1.7871-1.6777,2.7041-2.1572c0.916-0.4785,1.8711-0.7188,2.8662-0.7188c1.0898,0,2.0088,0.1797,2.7578,0.5391
		s1.3535,0.8477,1.8154,1.4648c0.4609,0.6172,0.793,1.3389,0.9971,2.165c0.2031,0.8271,0.3057,1.8213,0.3057,2.9834V287.8552z"/>
	<path class="st15" d="M190.3123,279.6794c0,1.3662-0.1797,2.6123-0.5391,3.7373c-0.3594,1.127-0.9053,2.0967-1.6357,2.9111
		c-0.7305,0.8154-1.6475,1.4443-2.749,1.8867c-1.1025,0.4434-2.3896,0.665-3.8633,0.665c-1.4258,0-2.666-0.1973-3.7197-0.5928
		c-1.0547-0.3955-1.9287-0.9707-2.624-1.7246c-0.6943-0.7549-1.21-1.6836-1.5449-2.7852c-0.3359-1.1025-0.5029-2.3604-0.5029-3.7744
		c0-1.3652,0.1826-2.6143,0.5479-3.7461s0.9131-2.1025,1.6445-2.9111c0.7305-0.8086,1.6436-1.4346,2.7402-1.8779
		c1.0957-0.4424,2.3809-0.665,3.8545-0.665c1.4375,0,2.6826,0.1953,3.7373,0.584c1.0537,0.3896,1.9258,0.9619,2.6143,1.7168
		s1.2012,1.6826,1.5361,2.7852C190.1444,276.99,190.3123,278.2546,190.3123,279.6794z M185.658,279.8591
		c0-0.79-0.0635-1.5186-0.1885-2.1826c-0.126-0.665-0.3389-1.2432-0.6387-1.7344c-0.2988-0.4912-0.6973-0.874-1.1943-1.1504
		c-0.4971-0.2754-1.123-0.4131-1.8779-0.4131c-0.6709,0-1.2578,0.123-1.7607,0.3682c-0.5029,0.2461-0.917,0.6055-1.2402,1.0781
		c-0.3232,0.4736-0.5654,1.043-0.7275,1.707c-0.1621,0.665-0.2422,1.4229-0.2422,2.2734c0,0.791,0.0654,1.5186,0.1973,2.1836
		c0.1318,0.6641,0.3438,1.2422,0.6377,1.7334s0.6924,0.8721,1.1953,1.1416s1.126,0.4043,1.8682,0.4043
		c0.6836,0,1.2764-0.123,1.7793-0.3682c0.5029-0.2461,0.916-0.6025,1.2402-1.0693c0.3232-0.4678,0.5625-1.0332,0.7188-1.6982
		C185.5799,281.4675,185.658,280.7097,185.658,279.8591z"/>
</g>
</svg>
