<?xml version="1.0" encoding="utf-8"?>
<!-- Generator: Adobe Illustrator 24.3.0, SVG Export Plug-In . SVG Version: 6.00 Build 0)  -->
<svg version="1.1" id="Camada_1" xmlns="http://www.w3.org/2000/svg" xmlns:xlink="http://www.w3.org/1999/xlink" x="0px" y="0px"
	 viewBox="0 0 329.059 288.496" style="enable-background:new 0 0 329.059 288.496;" xml:space="preserve">
<style type="text/css">
	.st0{fill:none;stroke:#E5ECF0;stroke-width:0.5;stroke-miterlimit:10;}
	.st1{fill:#E5F2EE;}
	.st2{opacity:0.14;}
	.st3{opacity:0.53;}
	.st4{fill-rule:evenodd;clip-rule:evenodd;fill:#148260;}
	.st5{fill:#142F56;}
	.st6{fill:#AA5450;}
	.st7{fill:#853F38;}
	.st8{fill:#231924;}
	.st9{fill:#FFAF57;}
	.st10{fill:#E8923D;}
	.st11{fill:#362836;}
	.st12{fill:#1A0806;}
	.st13{fill:#9E3A2D;}
	.st14{fill:#F4826C;}
	.st15{fill:#FFFFFF;}
	.st16{fill:#FFA54E;}
	.st17{fill:#FF9433;}
	.st18{fill:#BABABA;}
	.st19{fill:#E5E5E5;}
	.st20{fill:#2CBA8D;}
	.st21{fill:#A04E4A;}
</style>
<polyline class="st0" points="-81.555,19.522 -81.555,132.372 38.765,132.372 "/>
<path class="st1" d="M0.605,206.726c-11.285-85.764,138.362-23.697,191.302-152.217c32.947-79.983,160.405,74.729,121.954,152.217
	C259.034,317.218,5.289,242.316,0.605,206.726z"/>
<g class="st2">
	<g>
		<g class="st3">
			<path class="st4" d="M259.483,266.24c1.468-4.426,15.489-24.898-1.706-41.876c-6.133-6.056-18.98,0.136-17.106,7.384
				c1.499,5.798,5.156,11.533,13.719,25.834C255.832,259.991,259.483,266.24,259.483,266.24z"/>
		</g>
		<g>
			<path class="st4" d="M260.533,269.647c0.476-4.644-3.903-29.162,18.695-37.391c8.06-2.935,17.216,8.094,12.544,13.903
				c-3.738,4.647-9.413,8.33-23.06,17.748C266.413,265.494,260.533,269.647,260.533,269.647z"/>
		</g>
		<g>
			<path class="st4" d="M261.307,268.997c-1.249-4.499-1.046-29.403-24.705-33.731c-8.439-1.544-15.614,10.863-10.033,15.807
				c4.465,3.955,10.678,6.636,25.711,13.635C254.814,265.887,261.307,268.997,261.307,268.997z"/>
		</g>
	</g>
</g>
<path class="st5" d="M140.679,251.242c0,0-4.699,9.438-6.171,20.365s33.363,11.554,33.363,11.554s67.606-0.343,53.264-26.421
	c-14.341-26.078-17.545-23.111-17.545-23.111L140.679,251.242z"/>
<path class="st6" d="M216.724,203.344c0,0,22.449-45.834,29.108-59.407c6.659-13.572,11.505-0.475,11.505-0.475
	s-24.375,87.662-36.008,74.125C213.996,209.054,216.724,203.344,216.724,203.344z"/>
<path class="st6" d="M217.116,172.064c0,0,10.236,25.357,11.219,28.306s1.775,16.608-3.795,18.52
	c-10.919,3.748-20.43-27.09-24.72-45.873S217.116,172.064,217.116,172.064z"/>
<path class="st7" d="M204.891,169.035c-0.413-1.808-0.584-3.274-0.56-4.452c-3.494-0.688-5.882,0.989-4.176,8.459
	c4.29,18.784,13.801,49.622,24.72,45.873c1.512-0.519,2.552-1.907,3.25-3.708C217.835,215.865,208.985,186.962,204.891,169.035z"/>
<path class="st6" d="M113.931,185.107c0,0,8.768,30.512,9.896,33.895c1.128,3.383,2.037,19.058-4.355,21.251
	c-12.53,4.301-23.444-31.085-28.366-52.639S113.931,185.107,113.931,185.107z"/>
<path class="st8" d="M111.049,43.182c0.261-1.009,9.93-9.276,3.002-13.549c0,0,7.752-14.309-1.409-18.91s-15.373,4.062-15.373,4.062
	s1.937-9.104-1.884-10.339s-3.637,10.238-3.637,10.238s-9.095-13.195-21.19-5.472c-12.096,7.723,0.718,20.305,0.718,20.305
	s-8.743-8.467-11.758-5.769c-3.015,2.699,8.199,10.894,8.199,10.894s-10-4.238-11.258-0.009s10.771,5.1,10.771,5.1
	s-9.002-0.089-10.112,5.172s9.887,6.279,9.887,6.279s-10.077,8.244-1.663,18.945s17.153-2.939,17.153-2.939
	s-3.921,11.655-0.122,13.299c3.798,1.643,6.573-15.193,6.573-15.193s5.285,8.071,8.515,5.18c3.231-2.892-2.87-11.008-2.87-11.008
	L111.049,43.182z"/>
<path class="st9" d="M125.856,41.955c0,0-15.252-2.669-19.16-1.47c-7.913,2.428-13.534,15.217-11.402,21.067
	c2.132,5.85,15.988,14.396,15.988,14.396L125.856,41.955z"/>
<path class="st10" d="M95.84,53.095c-1.055,3.184-1.335,6.294-0.547,8.456c2.132,5.85,15.988,14.396,15.988,14.396l6.103-14.235
	C109.473,60.809,102.073,58.314,95.84,53.095z"/>
<g>
	<g>
		<g>
			<g>
				<path class="st6" d="M176.845,188.121c-15.063,3.537-68.728-12.021-83.864-8.803c-1.851-9.894-1.96-18.628,2.197-21.823
					c11.606-8.92,42.226,1.416,39.931-24.967c-2.39-27.471-3.665-33.93-3.665-33.93l32.602,19.385c0,0-6.256,10.146,1.258,23.714
					c6.88,12.423,27.324-5.596,36.331,9.516C180.918,158.474,198.221,183.102,176.845,188.121z"/>
				<path class="st7" d="M163.9,138.836c-13.046,2.468-25.384-4.027-29.654-15.857c-1.832-19.466-2.802-24.381-2.802-24.381
					l32.602,19.385C164.046,117.983,158.662,126.729,163.9,138.836z"/>
			</g>
		</g>
		<path class="st6" d="M151.719,51.005c0,0,27.969-7.287,34.495,24.257c6.526,31.543-0.955,55.448-19.507,58.639
			c-20.981,3.609-36.834-13.287-40.273-38.873C124.051,77.294,122.782,53.378,151.719,51.005z"/>
	</g>
	<g>
		<g>
			<g>
				<path class="st11" d="M119.47,95.928c0,0,8.63-9.117,12.448,10.176c0,0,7.214-7.983-0.823-16.387c0,0,13.776-7.7,6.656-25.185
					c0,0,29.037-18.331,41.914-4.545c0,0-21.33-34.767-55.441-17.763C96.145,56.222,119.47,95.928,119.47,95.928z"/>
			</g>
		</g>
		<g>
			<g>
				<path class="st8" d="M115.384,49.268c3.851,12.324,12.382,24.814,23.74,29.796c-2.037,7.3-8.029,10.653-8.029,10.653
					c8.037,8.404,0.823,16.387,0.823,16.387C128.1,86.811,119.47,95.928,119.47,95.928S102.11,66.369,115.384,49.268z"/>
			</g>
		</g>
	</g>
</g>
<g>
	<path class="st7" d="M170.394,82.751c1.291,2.966,2.468,5.935,3.771,8.824c0.649,1.443,1.342,2.861,2.118,4.2
		c0.388,0.667,0.819,1.303,1.284,1.877c0.459,0.572,0.997,1.069,1.551,1.299l0.988,0.41l-0.731,0.65
		c-0.969,0.862-1.96,1.644-3.042,2.332c-1.075,0.673-2.234,1.304-3.491,1.523c0.569-0.277,1.08-0.628,1.575-0.997
		c0.5-0.36,0.963-0.772,1.426-1.176c0.914-0.819,1.807-1.692,2.622-2.583l0.257,1.059c-0.968-0.318-1.653-0.946-2.242-1.571
		c-0.585-0.64-1.05-1.342-1.49-2.047c-0.868-1.418-1.536-2.914-2.132-4.426c-0.59-1.515-1.085-3.059-1.5-4.621
		C170.944,85.941,170.603,84.359,170.394,82.751z"/>
</g>
<g>
	<path class="st6" d="M135.376,112.784c0,0-6.653-4.642-6.212-15.707c0,0-7.699-9.731-10.698-1.176
		C115.054,105.631,127.501,122.45,135.376,112.784z"/>
	<g>
		<path class="st7" d="M129.933,113.148c-0.626-0.238-1.232-0.538-1.809-0.899c-0.571-0.368-1.127-0.786-1.612-1.325
			c-0.466-0.528-0.921-1.267-0.864-2.19c0.081-0.935,0.693-1.611,1.266-2.118l-0.303,0.651c-0.214-1.711-0.487-3.443-0.796-5.134
			c-0.348-1.662-0.679-3.421-1.383-4.758c-0.167-0.317-0.386-0.581-0.524-0.661c-0.067-0.02-0.095-0.06-0.166-0.042
			c-0.013-0.011-0.1,0.01-0.199,0.045l-0.276,0.077c-0.731,0.227-1.36,0.663-1.856,1.232c-0.466,0.587-0.775,1.341-0.816,2.162
			c-0.046,0.818,0.111,1.684,0.433,2.516c-0.557-0.692-0.979-1.54-1.116-2.483c-0.165-0.94,0.041-1.967,0.541-2.847
			c0.521-0.871,1.35-1.547,2.259-1.961l0.346-0.143c0.107-0.044,0.228-0.093,0.436-0.127c0.363-0.088,0.783-0.006,1.118,0.138
			c0.654,0.328,0.985,0.803,1.272,1.23c0.545,0.874,0.824,1.768,1.089,2.649c0.263,0.882,0.448,1.77,0.592,2.659
			c0.309,1.777,0.463,3.546,0.526,5.347l0.015,0.423l-0.318,0.228c-0.437,0.314-0.811,0.658-0.895,1.072
			c-0.106,0.408,0.044,0.969,0.375,1.474c0.317,0.513,0.734,1.006,1.192,1.464C128.917,112.289,129.412,112.729,129.933,113.148z"/>
	</g>
</g>
<ellipse transform="matrix(0.9654 -0.2608 0.2608 0.9654 -16.8218 44.5095)" class="st12" cx="159.302" cy="85.64" rx="2.247" ry="3.498"/>
<path class="st12" d="M181.318,80.289c0.504,1.865-0.059,3.639-1.257,3.963s-2.578-0.926-3.082-2.791s0.059-3.639,1.257-3.963
	C179.435,77.175,180.814,78.424,181.318,80.289z"/>
<g>
	<path d="M149.68,85.848c-0.362-1.494-0.415-3.046-0.259-4.609c0.2-1.551,0.704-3.128,1.661-4.493
		c0.239-0.341,0.465-0.699,0.782-0.98c0.303-0.288,0.571-0.638,0.915-0.883c0.346-0.243,0.702-0.478,1.069-0.695
		c0.374-0.195,0.785-0.295,1.181-0.428c0.795-0.285,1.631-0.241,2.431-0.282c0.802,0.05,1.596,0.227,2.348,0.468l-0.004,0.2
		c-0.75,0.332-1.469,0.511-2.16,0.726c-0.336,0.148-0.672,0.255-1.001,0.378c-0.164,0.062-0.334,0.098-0.494,0.162l-0.456,0.234
		c-1.231,0.522-2.429,1.084-3.357,2.091c-0.921,0.993-1.562,2.294-1.934,3.691c-0.398,1.394-0.565,2.893-0.525,4.385L149.68,85.848z
		"/>
</g>
<g>
	<path d="M183.457,74.399c-0.653-1.054-1.444-2.023-2.35-2.807c-0.884-0.802-1.907-1.41-2.974-1.678
		c-1.083-0.277-2.131-0.1-3.205,0.045l-0.417,0.024l-0.415,0.092c-0.285,0.047-0.567,0.112-0.871,0.142
		c-0.586,0.129-1.182,0.292-1.882,0.347l-0.109-0.168c0.398-0.543,0.869-1.046,1.408-1.46c0.579-0.349,1.151-0.766,1.849-0.93
		c0.343-0.087,0.683-0.202,1.041-0.23c0.362-0.01,0.726,0.002,1.084,0.026c0.71,0.134,1.421,0.287,2.054,0.603
		c1.296,0.565,2.349,1.479,3.168,2.503c0.789,1.055,1.423,2.186,1.804,3.412L183.457,74.399z"/>
</g>
<path class="st13" d="M177.491,111.475c7.977-2.004,0.144,13.013-7.997,12.437c-8.142-0.576-12.949-5.982-14.354-13.441
	c-0.585-3.108,2.233-1.696,2.233-1.696S170.224,113.3,177.491,111.475z"/>
<path class="st14" d="M166.941,117.762c-3.074-0.256-5.927,0.099-8.166,0.887c2.464,2.998,6.037,4.932,10.719,5.264
	c2.482,0.175,4.932-1.101,6.917-2.899C174.278,119.337,170.868,118.089,166.941,117.762z"/>
<path class="st15" d="M176.126,111.736c-7.398,1.037-18.753-2.961-18.753-2.961s-0.064-0.031-0.163-0.072
	c-0.233,0.976-0.451,2.521,0.318,3.089c0.895,0.661,7.316,2.879,16.515,3.211c0.774,0.028,1.42-0.546,1.555-1.309
	C175.717,113.022,175.896,112.369,176.126,111.736z"/>
<path class="st16" d="M199.311,179.116"/>
<path class="st9" d="M94.015,201.086l23.401-3.895l9.197,33.504l13.623,24.066c0,0,76.044,9.8,67.403-32.057
	c-0.168-0.815-9.508-42.234-8.409-42.603c6.895-2.313,18.48-6.546,18.48-6.546s-5.327-25.65-12.334-27.33
	c-7.007-1.68-22.587-2.961-22.587-2.961s-4.415,20.492-28.018,24.942s-37.913-18.627-37.913-18.627S73.126,146.493,94.015,201.086z"
	/>
<path class="st17" d="M138.209,219.706c-0.578-4.714-8.367,4.672-13.006,5.854l1.41,5.136l13.623,24.066
	c0,0,36.227,4.66,55.825-6.22C196.061,248.542,143.863,265.811,138.209,219.706z"/>
<path class="st17" d="M105.041,199.253l-11.027,1.835c-10.469-27.361-4.706-40.233,3.648-46.268
	C81.21,173.858,105.041,199.253,105.041,199.253z"/>
<path class="st6" d="M115.819,219.454c0,0,47.944-16.288,61.976-21.913c14.032-5.625,8.951,4.38,8.951,4.38
	s-72.417,56.006-75.185,33.447C110.191,224.2,115.819,219.454,115.819,219.454z"/>
<path class="st15" d="M196.694,198.231c0.789,0.066,1.546,0.206,2.286,0.38l23.187-19.999l-9.059-6.167l-7.146,1.43l-27.421,21.719
	l6.649,6.426C188.38,199.377,192.568,197.888,196.694,198.231z"/>
<polygon class="st18" points="176.053,192.778 208.759,169.103 210.763,173.745 178.26,196.366 "/>
<polygon class="st19" points="210.763,173.745 222.167,178.613 221.312,174.624 208.759,169.103 "/>
<path class="st6" d="M177.398,197.7c0,0,5.82-6.995,7.04-15.911c1.186-8.668,5.053-11.309,4.871,1.084
	c-0.151,10.244,21.78-6.014,24.381-8.491c2.978-2.836,4.099-0.495,1.59,3.121c-2.51,3.617-8.527,8.396-8.527,8.396
	s7.968-1.329,9.139-1.922c1.242-0.628-3.471,8.113-5.951,13.885c-0.623,1.449-1.908,2.505-3.45,2.838l-7.928,1.714
	c0,0-4.39,0.224-9.737,0.624c-4.899,0.366-7.384,4.034-9.74-0.706S177.398,197.7,177.398,197.7z"/>
<path class="st7" d="M206.094,190.409c0,0,7.668-1.93,8.962-3.562l-0.791,1.981C214.265,188.828,211.081,189.565,206.094,190.409z"
	/>
<path class="st7" d="M211.941,193.519c-2.491,1.516-5.897,2.956-5.897,2.956c2.032-0.344,3.992-0.944,5.334-1.624
	C211.413,194.421,211.864,193.934,211.941,193.519z"/>
<path class="st7" d="M99.76,200.129l-5.288,0.88c5.703,20.156,14.681,40.751,25.354,39.618c2.19-0.233,6.138-0.927,9.204-2.539
	C112.676,238.465,104.901,217.614,99.76,200.129z"/>
<g>
	<g>
		<g>
			<g>
				<path class="st17" d="M90.204,165.188c-0.089,0.542-0.231,1.114-0.451,1.779l4.05,2.664l0.953-1.449L90.204,165.188z"/>
			</g>
		</g>
		<g>
			<g>
				<path class="st17" d="M92.036,178.371l-2.746,4.175c0.235,0.8,0.394,1.607,0.474,2.435l2.768-4.208l4.585,3.015l0.953-1.449
					L92.036,178.371z"/>
			</g>
		</g>
		<g>
			<g>
				<path class="st17" d="M95.349,192.527l-2.697,4.1c0.29,0.668,0.521,1.365,0.709,2.078l2.483-3.776l4.585,3.015l0.953-1.449
					L95.349,192.527z"/>
			</g>
		</g>
	</g>
	<g>
		<g>
			<g>
				<polygon class="st17" points="109.456,164.801 108.008,163.848 112.143,157.56 118.177,161.528 117.224,162.977 
					112.639,159.962 				"/>
			</g>
		</g>
		<g>
			<g>
				<polygon class="st17" points="112.77,178.958 111.321,178.005 115.457,171.717 121.49,175.685 120.537,177.134 115.953,174.118 
									"/>
			</g>
		</g>
		<g>
			<g>
				<polygon class="st17" points="116.084,193.114 114.635,192.161 118.77,185.873 124.804,189.842 123.851,191.29 119.266,188.275 
									"/>
			</g>
		</g>
		<g>
			<g>
				<path class="st17" d="M122.084,200.03l-2.699,4.104c0.234,0.389,0.37,0.824,0.433,1.274c0.123,0.262,0.203,0.542,0.26,0.828
					l2.502-3.804l4.585,3.015l0.953-1.449L122.084,200.03z"/>
			</g>
		</g>
		<g>
			<g>
				<path class="st17" d="M125.556,215.939c0.041-0.011,0.082-0.024,0.123-0.035c0.121-0.035,0.245-0.057,0.368-0.088
					c0.137-0.038,0.267-0.09,0.406-0.123c0.265-0.112,0.537-0.193,0.807-0.282l-1.862-1.225l-1.54,2.341
					c0.36-0.151,0.726-0.282,1.096-0.403C125.153,216.056,125.355,215.999,125.556,215.939z"/>
			</g>
		</g>
	</g>
	<g>
		<g>
			<g>
				<path class="st17" d="M137.561,167.066l-2.818,4.285l1.449,0.953l3.054-4.643C138.675,167.5,138.113,167.3,137.561,167.066z"/>
				<path class="st17" d="M139.927,167.828l4.031,2.652l0.953-1.449l-1.219-0.802C142.412,168.236,141.152,168.11,139.927,167.828z"
					/>
			</g>
		</g>
		<g>
			<g>
				<polygon class="st17" points="139.505,186.46 138.056,185.507 142.192,179.219 148.225,183.188 147.272,184.636 
					142.688,181.621 				"/>
			</g>
		</g>
		<g>
			<g>
				<polygon class="st17" points="142.818,200.617 141.37,199.664 145.505,193.376 151.539,197.344 150.586,198.793 
					146.001,195.778 				"/>
			</g>
		</g>
		<g>
			<g>
				<path class="st17" d="M153.953,224.963l3.26,2.144l0.953-1.449l-2.807-1.846C154.915,224.224,154.447,224.609,153.953,224.963z"
					/>
				<path class="st17" d="M148.231,228.132l1.215,0.799l1.527-2.322c-0.217,0.088-0.441,0.155-0.662,0.229
					C149.654,227.327,148.959,227.76,148.231,228.132z"/>
			</g>
		</g>
		<g>
			<g>
				<polygon class="st17" points="152.759,243.087 151.31,242.134 155.446,235.846 161.479,239.815 160.526,241.264 
					155.942,238.248 				"/>
			</g>
		</g>
		<g>
			<g>
				<path class="st17" d="M158.759,250.003l-3.679,5.593c0.442-0.056,0.898-0.055,1.328-0.054c0.253,0.001,0.505,0.019,0.757,0.039
					l2.089-3.177l4.585,3.015l0.953-1.449L158.759,250.003z"/>
			</g>
		</g>
	</g>
	<g>
		<g>
			<g>
				<polygon class="st17" points="162.926,179.806 161.477,178.853 165.613,172.565 171.647,176.534 170.694,177.982 
					166.109,174.967 				"/>
			</g>
		</g>
		<g>
			<g>
				<polygon class="st17" points="166.24,193.963 164.791,193.01 168.927,186.722 174.96,190.69 174.007,192.139 169.423,189.124 
									"/>
			</g>
		</g>
		<g>
			<g>
				<polygon class="st17" points="172.867,222.277 171.418,221.324 175.554,215.036 181.587,219.004 180.634,220.453 
					176.05,217.437 				"/>
			</g>
		</g>
		<g>
			<g>
				<polygon class="st17" points="176.18,236.433 174.732,235.48 178.867,229.192 184.901,233.161 183.948,234.61 179.363,231.594 
									"/>
			</g>
		</g>
		<g>
			<g>
				<polygon class="st17" points="179.494,250.59 178.045,249.637 182.181,243.349 188.214,247.318 187.261,248.766 
					182.677,245.751 				"/>
			</g>
		</g>
	</g>
	<g>
		<g>
			<g>
				<polygon class="st17" points="183.034,158.995 181.585,158.043 185.721,151.755 191.754,155.723 190.801,157.172 
					186.217,154.156 				"/>
			</g>
		</g>
		<g>
			<g>
				<polygon class="st17" points="186.348,173.152 184.899,172.199 189.034,165.911 195.068,169.88 194.115,171.328 189.53,168.313 
									"/>
			</g>
		</g>
		<g>
			<g>
				<polygon class="st17" points="196.288,215.623 194.839,214.67 198.975,208.382 205.008,212.35 204.055,213.799 199.471,210.783 
									"/>
			</g>
		</g>
		<g>
			<g>
				<path class="st17" d="M207.34,225.93c-0.006-0.026-0.01-0.053-0.015-0.08l-5.036-3.312l-4.136,6.288l1.449,0.953l3.183-4.839
					l4.585,3.015l0.433-0.659C207.61,226.881,207.459,226.446,207.34,225.93z"/>
			</g>
		</g>
		<g>
			<g>
				<path class="st17" d="M203.521,242.938c0.007-0.012,0.016-0.024,0.024-0.036c0.235-0.391,0.436-0.805,0.692-1.183
					c0.216-0.319,0.473-0.606,0.727-0.897l0.809-1.23c0.074-0.223,0.146-0.476,0.321-0.848c0.216-0.459,0.499-0.854,0.824-1.184
					l-1.316-0.865l-4.136,6.288l1.168,0.768C202.907,243.452,203.204,243.184,203.521,242.938z"/>
			</g>
		</g>
	</g>
	<g>
		<g>
			<g>
				<path class="st17" d="M207.358,147.814l-2.351,3.575l1.449,0.953l2.2-3.345C208.084,148.722,207.655,148.309,207.358,147.814z"
					/>
			</g>
		</g>
		<g>
			<g>
				<path class="st17" d="M213.774,160.124l-1.318-0.867l-4.136,6.288l1.449,0.953l3.183-4.839l1.663,1.094
					C214.235,161.917,213.953,161.04,213.774,160.124z"/>
			</g>
		</g>
	</g>
</g>
<path class="st6" d="M247.497,142.505c0,0,1.533-5.236,2.594-11.862s1.518-8.045-0.7-12.477s3.894-3.44,6.361,2.879l0.657,4.12
	l16.385-19.44c0,0,1.847-1.744,2.638-0.204c0.79,1.54-8.72,15.104-8.72,15.104s10.13,8.983,5.562,14.183
	c-4.567,5.2-14.653,13.689-18.271,11.881C250.385,144.882,247.497,142.505,247.497,142.505z"/>
<g>
	<g>
		<path class="st20" d="M264.271,109.515c-0.024-0.002-0.047-0.006-0.071-0.012c-0.204-0.056-0.322-0.267-0.266-0.471l2.592-9.358
			c0.057-0.203,0.272-0.321,0.471-0.266c0.204,0.056,0.322,0.267,0.266,0.471l-2.592,9.358
			C264.621,109.416,264.45,109.53,264.271,109.515z"/>
	</g>
</g>
<g>
	<g>
		<path class="st20" d="M259.757,109.621c-0.165-0.014-0.308-0.134-0.343-0.304l-1.942-9.515c-0.042-0.207,0.091-0.408,0.298-0.451
			c0.208-0.044,0.408,0.091,0.451,0.298l1.942,9.515c0.042,0.207-0.091,0.408-0.298,0.451
			C259.829,109.622,259.792,109.624,259.757,109.621z"/>
	</g>
</g>
<g>
	<g>
		<path class="st20" d="M255.761,112.249c-0.097-0.008-0.192-0.053-0.26-0.134l-6.277-7.409c-0.136-0.161-0.116-0.402,0.045-0.539
			c0.161-0.136,0.402-0.116,0.539,0.045l6.277,7.409c0.136,0.161,0.116,0.402-0.045,0.539
			C255.959,112.228,255.859,112.257,255.761,112.249z"/>
	</g>
</g>
<path class="st21" d="M267.135,120.83c0.288-0.152,0.638-0.134,0.908,0.048c0.936,0.628,2.921,2.176,1.864,3.412
	c-1.36,1.59-9.916,7.364-11.95,7.145C255.963,131.219,259.283,124.971,267.135,120.83z"/>
<path class="st21" d="M270.011,124.153c0,0,3.276,1.725,1.305,3.57c-1.327,1.243-7.935,5.734-9.702,5.543
	C259.847,133.076,262.903,127.746,270.011,124.153z"/>
<path class="st21" d="M271.991,127.023c0,0,2.902,3.295,1.712,4.623c-1.19,1.328-7.637,4.716-9.343,4.47
	C262.654,135.871,264.987,130.346,271.991,127.023z"/>
</svg>
