<?xml version="1.0" encoding="utf-8"?>
<!-- Generator: Adobe Illustrator 24.3.0, SVG Export Plug-In . SVG Version: 6.00 Build 0)  -->
<svg version="1.1" id="Camada_1" xmlns="http://www.w3.org/2000/svg" xmlns:xlink="http://www.w3.org/1999/xlink" x="0px" y="0px"
	 viewBox="0 0 415.044 288.496" style="enable-background:new 0 0 415.044 288.496;" xml:space="preserve">
<style type="text/css">
	.st0{opacity:0.46;}
	.st1{fill:#E5ECF0;}
	.st2{fill:none;stroke:#E5ECF0;stroke-width:0.5;stroke-miterlimit:10;}
	.st3{fill:#E5F2EE;}
	.st4{opacity:0.14;}
	.st5{opacity:0.53;}
	.st6{fill-rule:evenodd;clip-rule:evenodd;fill:#148260;}
	.st7{fill:#142F56;}
	.st8{fill:#AA5450;}
	.st9{fill:#853F38;}
	.st10{fill:#231924;}
	.st11{fill:#FFAF57;}
	.st12{fill:#E8923D;}
	.st13{fill:#362836;}
	.st14{fill:#1A0806;}
	.st15{fill:#9E3A2D;}
	.st16{fill:#F4826C;}
	.st17{fill:#FFFFFF;}
	.st18{fill:#FFA54E;}
	.st19{fill:#FF9433;}
	.st20{fill:#BABABA;}
	.st21{fill:#E5E5E5;}
	.st22{fill:#2CBA8D;}
	.st23{fill:#A04E4A;}
</style>
<g class="st0">
	<path class="st1" d="M145.93,50.372c1.145,0.729,2.747,1.179,3.045,2.067c0.508,1.515,0.245,3.306,0.2,4.977
		c-0.012,0.435-0.302,1.051-0.655,1.258c-2.516,1.475-2.807,3.332-1.21,5.7c-0.808-0.85-1.508-1.852-2.449-2.515
		c-1.344-0.947-2.406-0.473-2.906,1.051c0.52,1.015,1.014,1.991,1.519,2.962c1.891,3.639,0.946,5.911-2.875,6.904
		c-2.84,0.738-2.813,0.783-1.289,3.385c0.329,0.562,0.092,1.456,0.115,2.197c-0.634-0.127-1.418-0.061-1.874-0.416
		c-1.749-1.36-3.517-2.738-5.038-4.337c-1.211-1.273-2.294-1.264-3.298-0.122c-1.42,1.615-2.637,3.409-4.039,5.256
		c-0.283-0.559-0.93-1.476-1.23-2.495c-1.017-3.454-3.242-4.954-6.835-5.216c-1.972-0.144-3.871-1.286-6.6-2.263
		c0.893,1.412,1.294,2.684,2.155,3.231c0.893,0.567,2.233,0.431,3.702,0.651c-1.58,3.059-4.04,3.779-6.399,4.543
		c-1.664-2.567-3.234-4.988-4.803-7.409c-0.35,0.19-0.7,0.379-1.05,0.569c0.957,1.914,1.703,3.979,2.932,5.698
		c1.181,1.652,2.333,3.845,5.264,2.799c0.075,0.185,0.15,0.37,0.225,0.555c-0.789,1.045-1.438,2.247-2.396,3.103
		c-2.082,1.861-4.058,3.617-2.723,6.842c0.207,0.5,0.046,1.618-0.296,1.803c-2.449,1.325-2.494,4.075-3.762,6.078
		c-1.429,2.257-2.314,2.838-5.778,2.89c-0.934-2.526-1.886-5.101-2.837-7.675c-0.028-0.076-0.088-0.175-0.062-0.231
		c1.404-3.022,0.079-5.622-0.943-8.442c-0.752-2.074-2.16-3.586-4.468-3.085c-2.541,0.552-4.844,0.913-6.613-1.871
		c-1.535-2.417-1.432-6.013,0.711-8.092c0.615-0.597,1.174-1.293,1.6-2.034c1.565-2.719,6.223-3.155,8.664-1.311
		c1.206,0.911,2.822,3.008,5.062,1.059c0.412-0.358,1.68,0.44,2.52,0.36c1.273-0.121,2.862-0.17,3.69-0.931
		c1.167-1.073,0.392-2.312-1.294-2.489c-0.811-0.085-1.615-0.238-2.422-0.36c-0.028-0.361-0.057-0.721-0.085-1.082
		c1.372-0.195,2.746-0.381,4.116-0.591c0.676-0.103,1.344-0.25,2.016-0.377c-0.298-0.582-0.589-1.168-0.895-1.746
		c-0.321-0.606-0.655-1.205-0.939-1.725c-4.079-0.543-4.697,3.184-6.704,4.873c-1.153-1.205-2.553-2.668-3.953-4.131
		c-0.235,0.137-0.471,0.274-0.706,0.411c0.113,0.575,0.227,1.15,0.337,1.708c-1.565-1.919-4.026-1.246-5.915,1.715
		c-0.393,0.615-1.504,0.772-2.284,1.14c-0.271-0.604-0.761-1.216-0.74-1.81c0.015-0.42,0.734-1.181,1.113-1.165
		c2.572,0.109,2.378-1.277,1.704-2.965c1.561-1.399,3.087-2.768,4.563-4.091c4.364,2.29,5.315-2.241,8.105-4.316
		c-3.451-0.03-4.768-1.087-1.876-4.419c-4.355,1.429-3.053,5.057-4.061,7.256c-1.118-0.78-2.046-1.427-2.974-2.074
		c-0.241,0.15-0.482,0.301-0.723,0.451c0.07-0.742-0.093-1.626,0.254-2.201c1.122-1.86,2.349-3.672,3.695-5.376
		c1.133-1.434,2.371-2.65,4.503-1.19c1.174,0.805,2.73,1.052,4.114,1.551c-0.05,0.214-0.1,0.427-0.15,0.641
		c-0.742,0.103-1.484,0.207-2.705,0.377c0.773,0.946,1.345,1.646,1.916,2.346c0.577-0.556,1.105-1.175,1.739-1.656
		c2.853-2.163,5.865-3.94,9.663-3.6c-0.364-1.173-0.734-2.362-1.103-3.551c0.269-0.095,0.537-0.191,0.806-0.286
		c0.719,1.849,1.437,3.699,2.257,5.809c0.497-0.829,1.011-1.686,1.641-2.736c-0.589-0.345-1.179-0.691-2.238-1.311
		c0.82-0.822,1.528-1.534,2.429-2.438c-0.051-0.08-0.332-0.514-0.348-0.539c0.27-1.117,0.34-1.957,0.683-2.665
		c0.333-0.686,0.892-1.294,1.455-1.826c0.452-0.427,1.375-0.575,1.543-1.043c0.73-2.034,2.429-0.977,3.675-1.319
		c0.194,1.066,0.4,2.13,0.575,3.199c0.049,0.296,0.007,0.607,0.007,0.955c2.358-0.652,4.554-1.312,6.783-1.825
		c0.411-0.094,1.101,0.295,1.413,0.669c0.518,0.62,0.833,1.409,1.402,2.428c1.654-1.797,2.607-2.894,3.64-3.909
		c0.245-0.241,0.769-0.328,1.143-0.287c2.269,0.249,4.528,0.607,6.8,0.817c0.84,0.078,1.707-0.179,2.564-0.225
		c0.799-0.043,1.602-0.009,2.548-0.009c0.02-0.446,0.042-0.945,0.076-1.717c2.567,0.294,5.008,0.574,7.681,0.88
		c0.089,0.31,0.26,0.909,0.471,1.65c-0.762,0.137-1.452,0.261-2.498,0.45c0.519,1.576,1.002,3.042,1.656,5.028
		c-0.874,0.947-2.236,2.182-3.266,3.649c-0.431,0.613-0.32,1.748-0.172,2.596c0.289,1.65,0.778,3.265,0.845,4.966
		c-2.732-1.66-2.153-4.046-1.829-6.425c0.151-1.111,0.026-2.259,0.026-4.11c-1.745,1.789-2.896,2.969-4.58,4.695
		C147.461,44.496,146.234,46.993,145.93,50.372z M113.552,65.806c-0.709-2.484-1.258-4.408-1.94-6.8
		c-0.638,0.334-2.083,0.824-2.044,1.114c0.226,1.669,0.659,3.355,1.346,4.891C111.122,65.474,112.361,65.475,113.552,65.806z"/>
	<path class="st1" d="M23.924,45.269c-0.41-0.976-1.658-2.519-1.359-3.652c0.276-1.044,2.215-1.649,3.673-2.613
		c-0.886-0.535-1.459-0.881-2.031-1.226c0.013-0.184,0.027-0.369,0.04-0.553c0.918,0,1.836,0,3.21,0
		c-1.299-2.949,0.487-3.994,2.673-4.428c1.004-0.2,2.308,0.087,3.208,0.612c1.525,0.889,2.803,2.19,4.261,3.21
		c0.38,0.266,1.036,0.17,1.567,0.181c2.656,0.058,4.928,0.648,6.227,3.381c0.324,0.682,1.526,1.107,2.406,1.327
		c1.138,0.285,2.391,0.106,3.535,0.377c2.103,0.499,3.16,0.041,2.721-2.343c-0.058-0.315,0.194-0.687,0.361-1.219
		c0.379,1.65,0.705,3.067,1.107,4.815c1.446-1.145,2.918-1.661,1.729-3.639c-0.341-0.567,0.076-1.588,0.671-2.407
		c-0.024,0.517-0.047,1.034-0.071,1.551c0.199,0.139,0.397,0.277,0.596,0.416c0.246-0.587,0.493-1.173,0.641-1.526
		c4.011,1.067,4.39,4.521,5.651,7.578c-0.6-0.086-1.146-0.165-1.631-0.234c-0.413,0.906-0.825,1.811-1.336,2.932
		c-0.841-1.013-1.338-1.612-1.627-1.96c0.491-1.049,1.521-2.207,1.366-3.174c-0.199-1.238-0.919-2.955-3.189-2.029
		c-0.258,1.887-1.53,2.774-3.489,3.572c-1.731,0.705-3.075,2.545-4.349,4.083c-0.427,0.516-0.475,1.932-0.072,2.446
		c1.427,1.819,3.125,3.426,4.974,5.38c1.028-2.65,2.069-5.335,3.355-8.649c0.865,1.404,1.515,2.457,2.353,3.817
		c0.259,0.022,0.945,0.08,1.374,0.116c0.803,1.479,1.516,2.791,2.461,4.531c-1.916,0.472-3.739,0.92-5.737,1.412
		c0.655,0.966,1.132,1.668,1.668,2.458c-3.631,0.88-9.101,6.962-9.215,10.046c-1.394-1.728-3.736-2.277-6.207-0.784
		c-1.042,0.629-1.801,2.456-1.883,3.788c-0.144,2.34,1.88,2.896,4.397,1.274c-0.056,0.683-0.106,1.294-0.127,1.547
		c0.897,0.789,1.583,1.394,2.27,1.998c-0.119,0.1-0.238,0.201-0.357,0.301c-2.105-0.767-4.216-1.517-6.312-2.307
		c-1.435-0.541-2.517-1.167-3.234-2.886c-0.893-2.14-2.555-4.049-4.19-5.768c-2.489-2.616-2.873-5.936-0.88-10.137
		c0.28-0.59,0.259-1.433,0.109-2.098c-0.462-2.05-0.955-4.104-1.62-6.095c-0.832-2.49-2.688-4.34-5.064-5.051
		C27.425,43.302,25.83,44.543,23.924,45.269z M50.933,56.76c-0.736,0.522-1.386,0.982-2.035,1.442
		c3.067,0.35-0.092,2.916,1.597,3.781c0.419-0.584,0.797-1.111,1.411-1.966c0.171,1.066,0.275,1.717,0.418,2.613
		c1.153-0.537,2.175-1.013,3.225-1.503C53.798,59.47,52.301,58.054,50.933,56.76z"/>
	<path class="st1" d="M57.75,112.945c-0.156-1.904-0.383-3.805-0.455-5.711c-0.17-4.492-0.19-8.992-0.465-13.477
		c-0.048-0.773-1-1.539-1.63-2.22c-1.683-1.819-3.66-3.597-3.324-6.309c0.231-1.867,0.992-3.721,1.831-5.425
		c0.235-0.478,1.603-0.355,2.426-0.594c3.406-0.99,6.599,1.065,8.172,2.87c1.937,2.222,4.019,2.848,6.363,3.728
		c1.535,0.576,2.576,1.506,0.983,3.225c-0.459,0.496-0.807,1.274-0.848,1.945c-0.118,1.944-0.727,3.386-2.713,4.146
		c-0.648,0.248-1.087,1.105-1.564,1.727c-1.698,2.215-3.512,4.361-5.002,6.71c-0.924,1.456-1.504,3.191-1.938,4.879
		c-0.374,1.453-0.323,3.016-0.459,4.53C58.668,112.96,58.209,112.953,57.75,112.945z"/>
	<path class="st1" d="M70.665,49.573c-1.166-0.507-2.411-3.679-1.42-5.205c0.614-0.946,1.173-1.56,0.812-2.887
		c-0.448-1.65-0.295-3.458-0.464-5.192c-0.036-0.367-0.27-0.77-0.528-1.049c-0.909-0.98-1.869-1.913-2.625-2.676
		c2.018-1.713,3.543-3.018,5.083-4.305c0.306-0.256,0.839-0.713,0.98-0.624c2.742,1.737,4.378-0.864,6.529-1.473
		c0.883-0.25,2.124,0.765,3.811,1.453c-1.541,0.322-2.401,0.501-3.26,0.681c-0.016,0.183-0.032,0.367-0.047,0.55
		c1.558,0.499,3.117,0.998,4.264,1.366c-0.615,2.199-1.308,4.968-2.177,7.68c-0.598,1.869-1.226,3.795-2.264,5.427
		c-0.496,0.779-2.113,0.751-2.981,1.407C74.458,46.179,72.691,47.833,70.665,49.573z"/>
	<path class="st1" d="M142.259,102.07c-0.065-1.461-0.047-2.514-0.17-3.551c-0.259-2.182,0.199-3.587,2.666-4.371
		c2-0.635,3.7-2.21,5.545-3.349c0.521-0.322,1.084-0.577,1.383-0.734c1.052,1.208,1.918,2.203,3.124,3.588
		c0.568-1.332,0.873-2.044,1.225-2.869c1.235,2.2,2.705,4.313,3.598,6.646c0.379,0.991-0.353,2.479-0.769,3.676
		c-0.258,0.742-0.93,1.33-1.309,2.043c-0.628,1.183-1.211,2.045-2.887,2.028c-1.853-0.019-1.734-1.349-2.193-2.353
		c-0.945-2.064-3.454-3.011-5.861-2.192C145.251,101.095,143.885,101.534,142.259,102.07z"/>
	<path class="st1" d="M61.356,30.46c1.587-0.886,3.173-1.773,4.947-2.764c-0.512-0.124-0.987-0.135-1.337-0.349
		c-0.481-0.293-0.868-0.741-1.295-1.122c0.425-0.275,0.816-0.648,1.28-0.808c2.313-0.796,4.65-1.567,6.799,0.91
		c-0.901,0.617-1.743,1.169-2.56,1.756c-1.932,1.389-3.82,2.842-5.793,4.169c-0.724,0.487-1.636,0.693-2.264,0.947
		c0.118-1.193,0.196-1.989,0.275-2.785L61.356,30.46z"/>
	<path class="st1" d="M47.217,34.23c-0.63,0.272-1.404,0.605-2.177,0.938c-0.118-0.134-0.236-0.268-0.355-0.402
		c0.783-0.63,1.508-1.393,2.396-1.786c0.196-0.087,0.988,1.12,1.476,1.754c0.59,0.765,1.252,1.5,1.69,2.348
		c0.377,0.73,0.485,1.599,0.788,2.677c-1.98-0.39-3.332-0.657-4.683-0.923c0.022-0.208,0.045-0.417,0.067-0.625
		c0.485-0.069,0.97-0.137,1.261-0.178C47.521,36.733,47.377,35.547,47.217,34.23z"/>
	<path class="st1" d="M144.495,80.807c-0.396,1.684-0.485,2.847-0.985,3.791c-0.194,0.367-1.318,0.241-2.019,0.34
		c0.08-0.585-0.034-1.322,0.281-1.722C142.359,82.473,143.194,81.925,144.495,80.807z"/>
	<path class="st1" d="M153.65,85.075c1.319,0.454,2.637,0.908,4.128,1.422c-2.577,2.906-3.102-0.066-4.378-0.662
		C153.484,85.581,153.567,85.328,153.65,85.075z"/>
	<path class="st1" d="M109.099,95.155c0.616-1.455,1.232-2.911,1.847-4.366c0.319,0.13,0.638,0.26,0.957,0.389
		c-0.535,1.475-1.07,2.949-1.605,4.424C109.898,95.453,109.498,95.304,109.099,95.155z"/>
	<path class="st1" d="M61.408,30.415c-1.574-1.401-0.5-2.46,0.363-3.69c1.471,1.556,0.154,2.584-0.406,3.726
		C61.356,30.46,61.408,30.415,61.408,30.415z"/>
	<path class="st1" d="M109.14,35.493c-0.41,1.718-0.822,3.448-1.147,4.808C107.139,39.281,107.472,37.17,109.14,35.493z"/>
	<path class="st1" d="M113.552,65.806c-1.191-0.331-2.431-0.332-2.638-0.795c-0.687-1.536-1.12-3.221-1.346-4.891
		c-0.039-0.289,1.405-0.779,2.044-1.114C112.295,61.399,112.844,63.322,113.552,65.806z"/>
	<path class="st1" d="M50.933,56.76c1.368,1.294,2.864,2.71,4.616,4.368c-1.05,0.489-2.071,0.965-3.225,1.503
		c-0.144-0.897-0.248-1.547-0.418-2.613c-0.614,0.855-0.991,1.381-1.411,1.966c-1.689-0.865,1.47-3.431-1.597-3.781
		C49.548,57.742,50.197,57.281,50.933,56.76z"/>
</g>
<polyline class="st2" points="4.43,19.522 4.43,132.372 124.75,132.372 "/>
<path class="st3" d="M86.59,206.726c-11.285-85.764,138.362-23.697,191.302-152.217c32.947-79.983,160.405,74.729,121.954,152.217
	C345.019,317.218,91.274,242.316,86.59,206.726z"/>
<g class="st4">
	<g>
		<g class="st5">
			<path class="st6" d="M345.468,266.24c1.468-4.426,15.489-24.898-1.706-41.876c-6.133-6.056-18.98,0.136-17.106,7.384
				c1.499,5.798,5.156,11.533,13.719,25.834C341.817,259.991,345.468,266.24,345.468,266.24z"/>
		</g>
		<g>
			<path class="st6" d="M346.518,269.647c0.476-4.644-3.903-29.162,18.695-37.391c8.06-2.935,17.216,8.094,12.544,13.903
				c-3.738,4.647-9.413,8.33-23.06,17.748C352.398,265.494,346.518,269.647,346.518,269.647z"/>
		</g>
		<g>
			<path class="st6" d="M347.292,268.997c-1.249-4.499-1.046-29.403-24.705-33.731c-8.439-1.544-15.614,10.863-10.033,15.807
				c4.465,3.955,10.678,6.636,25.711,13.635C340.799,265.887,347.292,268.997,347.292,268.997z"/>
		</g>
	</g>
</g>
<path class="st7" d="M226.664,251.242c0,0-4.699,9.438-6.171,20.365s33.363,11.554,33.363,11.554s67.606-0.343,53.264-26.421
	c-14.341-26.078-17.545-23.111-17.545-23.111L226.664,251.242z"/>
<path class="st8" d="M302.709,203.344c0,0,22.449-45.834,29.108-59.407c6.659-13.572,11.505-0.475,11.505-0.475
	s-24.375,87.662-36.008,74.125C299.981,209.054,302.709,203.344,302.709,203.344z"/>
<path class="st8" d="M303.101,172.064c0,0,10.236,25.357,11.219,28.306s1.775,16.608-3.795,18.52
	c-10.919,3.748-20.43-27.09-24.72-45.873S303.101,172.064,303.101,172.064z"/>
<path class="st9" d="M290.876,169.035c-0.413-1.808-0.584-3.274-0.56-4.452c-3.494-0.688-5.882,0.989-4.176,8.459
	c4.29,18.784,13.801,49.622,24.72,45.873c1.512-0.519,2.552-1.907,3.25-3.708C303.82,215.865,294.97,186.962,290.876,169.035z"/>
<path class="st8" d="M199.916,185.107c0,0,8.768,30.512,9.896,33.895c1.128,3.383,2.037,19.058-4.355,21.251
	c-12.53,4.301-23.444-31.085-28.366-52.639S199.916,185.107,199.916,185.107z"/>
<path class="st10" d="M197.034,43.182c0.261-1.009,9.93-9.276,3.002-13.549c0,0,7.752-14.309-1.409-18.91
	c-9.161-4.601-15.373,4.062-15.373,4.062s1.937-9.104-1.884-10.339c-3.821-1.235-3.637,10.238-3.637,10.238
	s-9.095-13.195-21.19-5.472c-12.096,7.723,0.718,20.305,0.718,20.305s-8.743-8.467-11.758-5.769
	c-3.015,2.699,8.199,10.894,8.199,10.894s-10-4.238-11.258-0.009c-1.258,4.229,10.771,5.1,10.771,5.1s-9.002-0.089-10.112,5.172
	c-1.11,5.261,9.887,6.279,9.887,6.279s-10.077,8.244-1.663,18.945c8.414,10.701,17.153-2.939,17.153-2.939
	s-3.921,11.655-0.122,13.299c3.798,1.643,6.573-15.193,6.573-15.193s5.285,8.071,8.515,5.18c3.231-2.892-2.87-11.008-2.87-11.008
	L197.034,43.182z"/>
<path class="st11" d="M211.841,41.955c0,0-15.252-2.669-19.16-1.47c-7.913,2.428-13.534,15.217-11.402,21.067
	c2.132,5.85,15.988,14.396,15.988,14.396L211.841,41.955z"/>
<path class="st12" d="M181.825,53.095c-1.055,3.184-1.335,6.294-0.547,8.456c2.132,5.85,15.988,14.396,15.988,14.396l6.103-14.235
	C195.458,60.809,188.058,58.314,181.825,53.095z"/>
<g>
	<g>
		<g>
			<g>
				<path class="st8" d="M262.83,188.121c-15.063,3.537-68.728-12.021-83.864-8.803c-1.851-9.894-1.96-18.628,2.197-21.823
					c11.606-8.92,42.226,1.416,39.931-24.967c-2.39-27.471-3.665-33.93-3.665-33.93l32.602,19.385c0,0-6.256,10.146,1.258,23.714
					c6.88,12.423,27.324-5.596,36.331,9.516C266.903,158.474,284.206,183.102,262.83,188.121z"/>
				<path class="st9" d="M249.885,138.836c-13.046,2.468-25.384-4.027-29.654-15.857c-1.832-19.466-2.802-24.381-2.802-24.381
					l32.602,19.385C250.031,117.983,244.647,126.729,249.885,138.836z"/>
			</g>
		</g>
		<path class="st8" d="M237.704,51.005c0,0,27.969-7.287,34.495,24.257c6.526,31.543-0.955,55.448-19.507,58.639
			c-20.981,3.609-36.834-13.287-40.273-38.873C210.036,77.294,208.767,53.378,237.704,51.005z"/>
	</g>
	<g>
		<g>
			<g>
				<path class="st13" d="M205.455,95.928c0,0,8.63-9.117,12.448,10.176c0,0,7.214-7.983-0.823-16.387c0,0,13.776-7.7,6.656-25.185
					c0,0,29.037-18.331,41.914-4.545c0,0-21.33-34.767-55.441-17.763C182.13,56.222,205.455,95.928,205.455,95.928z"/>
			</g>
		</g>
		<g>
			<g>
				<path class="st10" d="M201.369,49.268c3.851,12.324,12.382,24.814,23.74,29.796c-2.037,7.3-8.029,10.653-8.029,10.653
					c8.037,8.404,0.823,16.387,0.823,16.387c-3.818-19.293-12.448-10.176-12.448-10.176S188.095,66.369,201.369,49.268z"/>
			</g>
		</g>
	</g>
</g>
<g>
	<path class="st9" d="M256.379,82.751c1.291,2.966,2.468,5.935,3.771,8.824c0.649,1.443,1.342,2.861,2.118,4.2
		c0.388,0.667,0.819,1.303,1.284,1.877c0.459,0.572,0.997,1.069,1.551,1.299l0.988,0.41l-0.731,0.65
		c-0.969,0.862-1.96,1.644-3.042,2.332c-1.075,0.673-2.234,1.304-3.491,1.523c0.569-0.277,1.08-0.628,1.575-0.997
		c0.5-0.36,0.963-0.772,1.426-1.176c0.914-0.819,1.807-1.692,2.622-2.583l0.257,1.059c-0.968-0.318-1.653-0.946-2.242-1.571
		c-0.585-0.64-1.05-1.342-1.49-2.047c-0.868-1.418-1.536-2.914-2.132-4.426c-0.59-1.515-1.085-3.059-1.5-4.621
		C256.929,85.941,256.588,84.359,256.379,82.751z"/>
</g>
<g>
	<path class="st8" d="M221.361,112.784c0,0-6.653-4.642-6.212-15.707c0,0-7.699-9.731-10.698-1.176
		C201.039,105.631,213.486,122.45,221.361,112.784z"/>
	<g>
		<path class="st9" d="M215.918,113.148c-0.626-0.238-1.232-0.538-1.809-0.899c-0.571-0.368-1.127-0.786-1.612-1.325
			c-0.466-0.528-0.921-1.267-0.864-2.19c0.081-0.935,0.693-1.611,1.266-2.118l-0.303,0.651c-0.214-1.711-0.487-3.443-0.796-5.134
			c-0.348-1.662-0.679-3.421-1.383-4.758c-0.167-0.317-0.386-0.581-0.524-0.661c-0.067-0.02-0.095-0.06-0.166-0.042
			c-0.013-0.011-0.1,0.01-0.199,0.045l-0.276,0.077c-0.731,0.227-1.36,0.663-1.856,1.232c-0.466,0.587-0.775,1.341-0.816,2.162
			c-0.046,0.818,0.111,1.684,0.433,2.516c-0.557-0.692-0.979-1.54-1.116-2.483c-0.165-0.94,0.041-1.967,0.541-2.847
			c0.521-0.871,1.35-1.547,2.259-1.961l0.346-0.143c0.107-0.044,0.228-0.093,0.436-0.127c0.363-0.088,0.783-0.006,1.118,0.138
			c0.654,0.328,0.985,0.803,1.272,1.23c0.545,0.874,0.824,1.768,1.089,2.649c0.263,0.882,0.448,1.77,0.592,2.659
			c0.309,1.777,0.463,3.546,0.526,5.347l0.015,0.423l-0.318,0.228c-0.437,0.314-0.811,0.658-0.895,1.072
			c-0.106,0.408,0.044,0.969,0.375,1.474c0.317,0.513,0.734,1.006,1.192,1.464C214.902,112.289,215.397,112.729,215.918,113.148z"/>
	</g>
</g>
<ellipse transform="matrix(0.9654 -0.2608 0.2608 0.9654 -13.8478 66.9256)" class="st14" cx="245.285" cy="85.648" rx="2.247" ry="3.498"/>
<path class="st14" d="M267.303,80.289c0.504,1.865-0.059,3.639-1.257,3.963c-1.198,0.324-2.578-0.926-3.082-2.791
	c-0.504-1.865,0.059-3.639,1.257-3.963C265.42,77.175,266.799,78.424,267.303,80.289z"/>
<g>
	<path d="M235.665,85.848c-0.362-1.494-0.415-3.046-0.259-4.609c0.2-1.551,0.704-3.128,1.661-4.493
		c0.239-0.341,0.465-0.699,0.782-0.98c0.303-0.288,0.571-0.638,0.915-0.883c0.346-0.243,0.702-0.478,1.069-0.695
		c0.374-0.195,0.785-0.295,1.181-0.428c0.795-0.285,1.631-0.241,2.431-0.282c0.802,0.05,1.596,0.227,2.348,0.468l-0.004,0.2
		c-0.75,0.332-1.469,0.511-2.16,0.726c-0.336,0.148-0.672,0.255-1.001,0.378c-0.164,0.062-0.334,0.098-0.494,0.162l-0.456,0.234
		c-1.231,0.522-2.429,1.084-3.357,2.091c-0.921,0.993-1.562,2.294-1.934,3.691c-0.398,1.394-0.565,2.893-0.525,4.385L235.665,85.848
		z"/>
</g>
<g>
	<path d="M269.442,74.399c-0.653-1.054-1.444-2.023-2.35-2.807c-0.884-0.802-1.907-1.41-2.974-1.678
		c-1.083-0.277-2.131-0.1-3.205,0.045l-0.417,0.024l-0.415,0.092c-0.285,0.047-0.567,0.112-0.871,0.142
		c-0.586,0.129-1.182,0.292-1.882,0.347l-0.109-0.168c0.398-0.543,0.869-1.046,1.408-1.46c0.579-0.349,1.151-0.766,1.849-0.93
		c0.343-0.087,0.683-0.202,1.041-0.23c0.362-0.01,0.726,0.002,1.084,0.026c0.71,0.134,1.421,0.287,2.054,0.603
		c1.296,0.565,2.349,1.479,3.168,2.503c0.789,1.055,1.423,2.186,1.804,3.412L269.442,74.399z"/>
</g>
<path class="st15" d="M263.476,111.475c7.977-2.004,0.144,13.013-7.997,12.437c-8.142-0.576-12.949-5.982-14.354-13.441
	c-0.585-3.108,2.233-1.696,2.233-1.696S256.209,113.3,263.476,111.475z"/>
<path class="st16" d="M252.926,117.762c-3.074-0.256-5.927,0.099-8.166,0.887c2.464,2.998,6.037,4.932,10.719,5.264
	c2.482,0.175,4.932-1.101,6.917-2.899C260.263,119.337,256.853,118.089,252.926,117.762z"/>
<path class="st17" d="M262.111,111.736c-7.398,1.037-18.753-2.961-18.753-2.961s-0.064-0.031-0.163-0.072
	c-0.233,0.976-0.451,2.521,0.318,3.089c0.895,0.661,7.316,2.879,16.515,3.211c0.774,0.028,1.42-0.546,1.555-1.309
	C261.702,113.022,261.881,112.369,262.111,111.736z"/>
<path class="st18" d="M285.296,179.116"/>
<path class="st11" d="M180,201.086l23.401-3.895l9.197,33.504l13.623,24.066c0,0,76.044,9.8,67.403-32.057
	c-0.168-0.815-9.508-42.234-8.409-42.603c6.895-2.313,18.48-6.546,18.48-6.546s-5.327-25.65-12.334-27.33
	c-7.007-1.68-22.587-2.961-22.587-2.961s-4.415,20.492-28.018,24.942s-37.913-18.627-37.913-18.627S159.111,146.493,180,201.086z"/>
<path class="st19" d="M224.194,219.706c-0.578-4.714-8.367,4.672-13.006,5.854l1.41,5.136l13.623,24.066
	c0,0,36.227,4.66,55.825-6.22C282.046,248.542,229.848,265.811,224.194,219.706z"/>
<path class="st19" d="M191.026,199.253l-11.027,1.835c-10.469-27.361-4.706-40.233,3.648-46.268
	C167.195,173.858,191.026,199.253,191.026,199.253z"/>
<path class="st8" d="M201.804,219.454c0,0,47.944-16.288,61.976-21.913c14.032-5.625,8.951,4.38,8.951,4.38
	s-72.417,56.006-75.185,33.447C196.176,224.2,201.804,219.454,201.804,219.454z"/>
<path class="st17" d="M282.679,198.231c0.789,0.066,1.546,0.206,2.286,0.38l23.187-19.999l-9.059-6.167l-7.146,1.43l-27.421,21.719
	l6.649,6.426C274.365,199.377,278.553,197.888,282.679,198.231z"/>
<polygon class="st20" points="262.038,192.778 294.744,169.103 296.748,173.745 264.245,196.366 "/>
<polygon class="st21" points="296.748,173.745 308.152,178.613 307.297,174.624 294.744,169.103 "/>
<path class="st8" d="M263.383,197.7c0,0,5.82-6.995,7.04-15.911c1.186-8.668,5.053-11.309,4.871,1.084
	c-0.151,10.244,21.78-6.014,24.381-8.491c2.978-2.836,4.099-0.495,1.59,3.121c-2.51,3.617-8.527,8.396-8.527,8.396
	s7.968-1.329,9.139-1.922c1.242-0.628-3.471,8.113-5.951,13.885c-0.623,1.449-1.908,2.505-3.45,2.838l-7.928,1.714
	c0,0-4.39,0.224-9.737,0.624c-4.899,0.366-7.384,4.034-9.74-0.706S263.383,197.7,263.383,197.7z"/>
<path class="st9" d="M292.079,190.409c0,0,7.668-1.93,8.962-3.562l-0.791,1.981C300.25,188.828,297.066,189.565,292.079,190.409z"/>
<path class="st9" d="M297.926,193.519c-2.491,1.516-5.897,2.956-5.897,2.956c2.032-0.344,3.992-0.944,5.334-1.624
	C297.398,194.421,297.849,193.934,297.926,193.519z"/>
<path class="st9" d="M185.745,200.129l-5.288,0.88c5.703,20.156,14.681,40.751,25.354,39.618c2.19-0.233,6.138-0.927,9.204-2.539
	C198.661,238.465,190.886,217.614,185.745,200.129z"/>
<g>
	<g>
		<g>
			<g>
				<path class="st19" d="M176.189,165.188c-0.089,0.542-0.231,1.114-0.451,1.779l4.05,2.664l0.953-1.449L176.189,165.188z"/>
			</g>
		</g>
		<g>
			<g>
				<path class="st19" d="M178.021,178.371l-2.746,4.175c0.235,0.8,0.394,1.607,0.474,2.435l2.768-4.208l4.585,3.015l0.953-1.449
					L178.021,178.371z"/>
			</g>
		</g>
		<g>
			<g>
				<path class="st19" d="M181.334,192.527l-2.697,4.1c0.29,0.668,0.521,1.365,0.709,2.078l2.483-3.776l4.585,3.015l0.953-1.449
					L181.334,192.527z"/>
			</g>
		</g>
	</g>
	<g>
		<g>
			<g>
				<polygon class="st19" points="195.441,164.801 193.993,163.848 198.128,157.56 204.162,161.528 203.209,162.977 
					198.624,159.962 				"/>
			</g>
		</g>
		<g>
			<g>
				<polygon class="st19" points="198.755,178.958 197.306,178.005 201.442,171.717 207.475,175.685 206.522,177.134 
					201.938,174.118 				"/>
			</g>
		</g>
		<g>
			<g>
				<polygon class="st19" points="202.069,193.114 200.62,192.161 204.755,185.873 210.789,189.842 209.836,191.29 205.251,188.275 
									"/>
			</g>
		</g>
		<g>
			<g>
				<path class="st19" d="M208.069,200.03l-2.699,4.104c0.234,0.389,0.37,0.824,0.433,1.274c0.123,0.262,0.203,0.542,0.26,0.828
					l2.502-3.804l4.585,3.015l0.953-1.449L208.069,200.03z"/>
			</g>
		</g>
		<g>
			<g>
				<path class="st19" d="M211.541,215.939c0.041-0.011,0.082-0.024,0.123-0.035c0.121-0.035,0.245-0.057,0.368-0.088
					c0.137-0.038,0.267-0.09,0.406-0.123c0.265-0.112,0.537-0.193,0.807-0.282l-1.862-1.225l-1.54,2.341
					c0.36-0.151,0.726-0.282,1.096-0.403C211.138,216.056,211.34,215.999,211.541,215.939z"/>
			</g>
		</g>
	</g>
	<g>
		<g>
			<g>
				<path class="st19" d="M223.546,167.066l-2.818,4.285l1.449,0.953l3.054-4.643C224.66,167.5,224.098,167.3,223.546,167.066z"/>
				<path class="st19" d="M225.912,167.828l4.031,2.652l0.953-1.449l-1.219-0.802C228.397,168.236,227.137,168.11,225.912,167.828z"
					/>
			</g>
		</g>
		<g>
			<g>
				<polygon class="st19" points="225.49,186.46 224.041,185.507 228.177,179.219 234.21,183.188 233.257,184.636 228.673,181.621 
									"/>
			</g>
		</g>
		<g>
			<g>
				<polygon class="st19" points="228.803,200.617 227.355,199.664 231.49,193.376 237.524,197.344 236.571,198.793 
					231.986,195.778 				"/>
			</g>
		</g>
		<g>
			<g>
				<path class="st19" d="M239.938,224.963l3.26,2.144l0.953-1.449l-2.807-1.846C240.9,224.224,240.432,224.609,239.938,224.963z"/>
				<path class="st19" d="M234.216,228.132l1.215,0.799l1.527-2.322c-0.217,0.088-0.441,0.155-0.662,0.229
					C235.639,227.327,234.944,227.76,234.216,228.132z"/>
			</g>
		</g>
		<g>
			<g>
				<polygon class="st19" points="238.744,243.087 237.295,242.134 241.431,235.846 247.464,239.815 246.511,241.264 
					241.927,238.248 				"/>
			</g>
		</g>
		<g>
			<g>
				<path class="st19" d="M244.744,250.003l-3.679,5.593c0.442-0.056,0.898-0.055,1.328-0.054c0.253,0.001,0.505,0.019,0.757,0.039
					l2.089-3.177l4.585,3.015l0.953-1.449L244.744,250.003z"/>
			</g>
		</g>
	</g>
	<g>
		<g>
			<g>
				<polygon class="st19" points="248.911,179.806 247.462,178.853 251.598,172.565 257.632,176.534 256.679,177.982 
					252.094,174.967 				"/>
			</g>
		</g>
		<g>
			<g>
				<polygon class="st19" points="252.225,193.963 250.776,193.01 254.912,186.722 260.945,190.69 259.992,192.139 255.408,189.124 
									"/>
			</g>
		</g>
		<g>
			<g>
				<polygon class="st19" points="258.852,222.277 257.403,221.324 261.539,215.036 267.572,219.004 266.619,220.453 
					262.035,217.437 				"/>
			</g>
		</g>
		<g>
			<g>
				<polygon class="st19" points="262.165,236.433 260.717,235.48 264.852,229.192 270.886,233.161 269.933,234.61 265.348,231.594 
									"/>
			</g>
		</g>
		<g>
			<g>
				<polygon class="st19" points="265.479,250.59 264.03,249.637 268.166,243.349 274.199,247.318 273.246,248.766 268.662,245.751 
									"/>
			</g>
		</g>
	</g>
	<g>
		<g>
			<g>
				<polygon class="st19" points="269.019,158.995 267.57,158.043 271.706,151.755 277.739,155.723 276.786,157.172 
					272.202,154.156 				"/>
			</g>
		</g>
		<g>
			<g>
				<polygon class="st19" points="272.333,173.152 270.884,172.199 275.019,165.911 281.053,169.88 280.1,171.328 275.515,168.313 
									"/>
			</g>
		</g>
		<g>
			<g>
				<polygon class="st19" points="282.273,215.623 280.824,214.67 284.96,208.382 290.993,212.35 290.04,213.799 285.456,210.783 
									"/>
			</g>
		</g>
		<g>
			<g>
				<path class="st19" d="M293.325,225.93c-0.006-0.026-0.01-0.053-0.015-0.08l-5.036-3.312l-4.136,6.288l1.449,0.953l3.183-4.839
					l4.585,3.015l0.433-0.659C293.595,226.881,293.444,226.446,293.325,225.93z"/>
			</g>
		</g>
		<g>
			<g>
				<path class="st19" d="M289.506,242.938c0.007-0.012,0.016-0.024,0.024-0.036c0.235-0.391,0.436-0.805,0.692-1.183
					c0.216-0.319,0.473-0.606,0.727-0.897l0.809-1.23c0.074-0.223,0.146-0.476,0.321-0.848c0.216-0.459,0.499-0.854,0.824-1.184
					l-1.316-0.865l-4.136,6.288l1.168,0.768C288.892,243.452,289.189,243.184,289.506,242.938z"/>
			</g>
		</g>
	</g>
	<g>
		<g>
			<g>
				<path class="st19" d="M293.343,147.814l-2.351,3.575l1.449,0.953l2.2-3.345C294.069,148.722,293.64,148.309,293.343,147.814z"/>
			</g>
		</g>
		<g>
			<g>
				<path class="st19" d="M299.759,160.124l-1.318-0.867l-4.136,6.288l1.449,0.953l3.183-4.839l1.663,1.094
					C300.22,161.917,299.938,161.04,299.759,160.124z"/>
			</g>
		</g>
	</g>
</g>
<path class="st8" d="M333.482,142.505c0,0,1.533-5.236,2.594-11.862c1.061-6.626,1.518-8.045-0.7-12.477s3.894-3.44,6.361,2.879
	l0.657,4.12l16.385-19.44c0,0,1.847-1.744,2.638-0.204c0.79,1.54-8.72,15.104-8.72,15.104s10.13,8.983,5.562,14.183
	c-4.567,5.2-14.653,13.689-18.271,11.881C336.37,144.882,333.482,142.505,333.482,142.505z"/>
<g>
	<g>
		<path class="st22" d="M350.256,109.515c-0.024-0.002-0.047-0.006-0.071-0.012c-0.204-0.056-0.322-0.267-0.266-0.471l2.592-9.358
			c0.057-0.203,0.272-0.321,0.471-0.266c0.204,0.056,0.322,0.267,0.266,0.471l-2.592,9.358
			C350.606,109.416,350.435,109.53,350.256,109.515z"/>
	</g>
</g>
<g>
	<g>
		<path class="st22" d="M345.742,109.621c-0.165-0.014-0.308-0.134-0.343-0.304l-1.942-9.515c-0.042-0.207,0.091-0.408,0.298-0.451
			c0.208-0.044,0.408,0.091,0.451,0.298l1.942,9.515c0.042,0.207-0.091,0.408-0.298,0.451
			C345.814,109.622,345.777,109.624,345.742,109.621z"/>
	</g>
</g>
<g>
	<g>
		<path class="st22" d="M341.746,112.249c-0.097-0.008-0.192-0.053-0.26-0.134l-6.277-7.409c-0.136-0.161-0.116-0.402,0.045-0.539
			c0.161-0.136,0.402-0.116,0.539,0.045l6.277,7.409c0.136,0.161,0.116,0.402-0.045,0.539
			C341.944,112.228,341.844,112.257,341.746,112.249z"/>
	</g>
</g>
<path class="st23" d="M353.12,120.83c0.288-0.152,0.638-0.134,0.908,0.048c0.936,0.628,2.921,2.176,1.864,3.412
	c-1.36,1.59-9.916,7.364-11.95,7.145C341.948,131.219,345.268,124.971,353.12,120.83z"/>
<path class="st23" d="M355.996,124.153c0,0,3.276,1.725,1.305,3.57c-1.327,1.243-7.935,5.734-9.702,5.543
	C345.832,133.076,348.888,127.746,355.996,124.153z"/>
<path class="st23" d="M357.976,127.023c0,0,2.902,3.295,1.712,4.623c-1.19,1.328-7.637,4.716-9.343,4.47
	C348.639,135.871,350.972,130.346,357.976,127.023z"/>
</svg>
